<?xml version="1.0" standalone="no"?>
<!DOCTYPE svg PUBLIC "-//W3C//DTD SVG 1.1//EN" "http://www.w3.org/Graphics/SVG/1.1/DTD/svg11.dtd" >
<svg>
<metadata>
Created by FontForge 20090914 at Mon Dec  5 13:33:46 2016
 By www-data
&#194;&#169; 1992, Tilde Ltd. AG Fonts Collection. Created by Andrejs Grinbergs.
</metadata>
<defs>
<font id="Garamond" horiz-adv-x="560" >
  <font-face 
    font-family="Garamond"
    font-weight="400"
    font-stretch="normal"
    units-per-em="1000"
    panose-1="0 0 0 0 0 0 0 0 0 0"
    ascent="800"
    descent="-200"
    x-height="439"
    cap-height="623"
    bbox="-93.002 -247.001 1066 801.002"
    underline-thickness="20"
    underline-position="-123"
    unicode-range="U+0020-U+2122"
  />
<missing-glyph horiz-adv-x="753" 
d="M47 0v753h659v-753h-659zM659 47v659h-565v-659h565z" />
    <glyph glyph-name=".notdef" horiz-adv-x="753" 
d="M47 0v753h659v-753h-659zM659 47v659h-565v-659h565z" />
    <glyph glyph-name="space" unicode=" " horiz-adv-x="320" 
 />
    <glyph glyph-name="exclam" unicode="!" horiz-adv-x="220" 
d="M109 -12c-13.333 0 -23.834 4.83301 -31.501 14.5s-11.5 21.5 -11.5 35.5c0 14.667 3.83301 26.834 11.5 36.501s18.834 14.5 33.501 14.5c13.333 0 23.833 -4.83301 31.5 -14.5s11.5 -21.834 11.5 -36.501c0 -13.333 -4 -25 -12 -35s-19 -15 -33 -15zM95.999 213
l-30.001 367.002c0 16.667 3.83301 30.667 11.5 42s19.5 17 35.5 17c14.667 0 25.167 -5.33301 31.5 -16s9.5 -24 9.5 -40l-33 -364c0 -8.66699 -0.166992 -16.334 -0.5 -23.001s-1.66602 -12.334 -3.99902 -17.001s-5.5 -7 -9.5 -7c-5.33301 0 -8.5 4.83301 -9.5 14.5
s-1.5 18.5 -1.5 26.5z" />
    <glyph glyph-name="quotedbl" unicode="&#x22;" horiz-adv-x="340" 
d="M127 558l-23.002 -204.002c-0.666992 -6 -1.66699 -12.667 -3 -20s-4.66602 -11 -9.99902 -11s-8.66602 4.5 -9.99902 13.5s-2 14.833 -2 17.5l-16 204c-0.666992 10.667 -1 19.334 -1 26.001c0 16.667 2.16699 30 6.5 40s12.833 15 25.5 15s21.667 -5.33301 27 -16
s8 -24 8 -40c0 -7.33301 -0.666992 -15.666 -2 -24.999zM270.998 557.998l-23.002 -204.002c-0.666992 -6 -1.66699 -12.667 -3 -20s-4.66602 -11 -9.99902 -11s-8.66602 4.5 -9.99902 13.5s-2 14.833 -2 17.5l-16 204c-0.666992 10.667 -1 19.334 -1 26.001
c0 16.667 2.16699 30 6.5 40s12.833 15 25.5 15s21.667 -5.33301 27 -16s8 -24 8 -40c0 -7.33301 -0.666992 -15.666 -2 -24.999z" />
    <glyph glyph-name="numbersign" unicode="#" horiz-adv-x="500" 
d="M410 534l-31.002 -84.9961l-6 -18c0 -4 2.5 -6.16699 7.5 -6.5s9.5 -0.5 13.5 -0.5h82h13c5.33301 0 8 -2 8 -6c0 -2 -0.833008 -5.33301 -2.5 -10s-2.5 -7.33398 -2.5 -8.00098c-5.33301 -14 -8.5 -21.5 -9.5 -22.5s-7.16699 -1.5 -18.5 -1.5h-93
c-11.333 0 -17.833 -2 -19.5 -6l-5.5 -13l-27 -73l-5 -17c0 -4 2.33301 -6.16699 7 -6.5s9 -0.5 13 -0.5h82c4 0 8.5 -0.166992 13.5 -0.5s7.5 -2.5 7.5 -6.5c0 -2.66699 -0.666992 -5.5 -2 -8.5s-3 -7 -5 -12s-4.33301 -11.167 -7 -18.5
c-1.33301 -1.33301 -7.66602 -2 -18.999 -2h-94c-10.667 0 -16.334 -0.333008 -17.001 -1s-3 -6.66699 -7 -18l-39 -109l-6 -14c-2 -2.66699 -5.66699 -4 -11 -4c-8.66699 0 -13 2 -13 6l6 18l35 97l6 18c0 4 -3 6.16699 -9 6.5s-9.66699 0.5 -11 0.5h-80
c-10.667 0 -16.334 -0.333008 -17.001 -1s-3 -6.66699 -7 -18l-39 -109c-2 -5.33301 -3.83301 -9.83301 -5.5 -13.5s-5.5 -5.5 -11.5 -5.5c-7.33301 0 -11 2.33301 -11 7c0 2.66699 0.333008 5.5 1 8.5s2 6.16699 4 9.5l35 97c4 6 6 12 6 18c0 4.66699 -2.5 7 -7.5 7h-11.5
h-78c-4 0 -8.16699 0.166992 -12.5 0.5s-6.5 2.16602 -6.5 5.49902c0 2 0.5 4.5 1.5 7.5s2.5 6.5 4.5 10.5c2 7.33301 4.33301 14.666 7 21.999c1.33301 1.33301 7.33301 2 18 2h89h12c4 0 6.83301 2 8.5 6s2.83398 8 3.50098 12l27 73l6 18c0 4 -3.16699 6.16699 -9.5 6.5
s-10.166 0.5 -11.499 0.5h-77c-13.333 0 -20 2 -20 6c0 2.66699 0.333008 5.5 1 8.5s2 6.16699 4 9.5c5.33301 13.333 8.66602 20.666 9.99902 21.999s7.33301 2 18 2h88c4.66699 0 9 0.166992 13 0.5s7.66699 6.5 11 18.5l36 96c1.33301 4.66699 2.83301 9 4.5 13
s5.16699 6 10.5 6c8 0 12 -2.33301 12 -7c0 -2 -0.666992 -4.5 -2 -7.5s-2.66602 -6.16699 -3.99902 -9.5l-31 -85l-6 -18c0 -4.66699 2.66699 -7 8 -7h13h79c12 0 18.833 2 20.5 6s3.16699 8.33301 4.5 13l36 96c4 12.667 9 19 15 19c8.66699 0 13 -2.33301 13 -7
c0 -2.66699 -0.666992 -5.5 -2 -8.5s-2.66602 -5.83301 -3.99902 -8.5zM303.998 375.004h-80.001h-11c-4.66699 0 -9 -6 -13 -18l-28 -74l-5 -17c0 -4 2.5 -6.16699 7.5 -6.5s9.5 -0.5 13.5 -0.5h79h11c4.66699 0 9.33398 6 14.001 18l26 74c2 5.33301 4 11 6 17
c0 4 -2.16699 6.16699 -6.5 6.5s-8.83301 0.5 -13.5 0.5z" />
    <glyph glyph-name="dollar" unicode="$" horiz-adv-x="500" 
d="M258 710l0.000976562 -57.0039v-13c0 -12 6 -18 18 -18c14 0 28.333 -1.33301 43 -4s29.334 -6 44.001 -10c6 -2 11.667 -4 17 -6s9.16602 -5.16699 11.499 -9.5s3.5 -13.5 3.5 -27.5c-0.666992 -11.333 -1 -19 -1 -23v-46c0 -8 -2.66699 -12 -8 -12
s-9.33301 4.33301 -12 13s-4.33398 13.667 -5.00098 15c-7.33301 25.333 -18.666 46 -33.999 62c-18.667 19.333 -40 29 -64 29c-8.66699 0 -13 -4.66699 -13 -14v-173c0 -18 1.5 -29.167 4.5 -33.5s13.167 -10.166 30.5 -17.499c43.333 -19.333 76 -41 98 -65
c26.667 -30 40 -66.667 40 -110c0 -38 -14.333 -73.667 -43 -107s-61.667 -53.666 -99 -60.999c-16 -3.33301 -25.167 -6.5 -27.5 -9.5s-3.5 -13.167 -3.5 -30.5v-72c0 -4 -3.33301 -6 -10 -6c-6 0 -9.33301 0.5 -10 1.5s-1 3.66699 -1 8s-0.333008 10.5 -1 18.5v50v12
c0 6.66699 -0.833008 11.5 -2.5 14.5s-6.16699 4.5 -13.5 4.5c-40 0 -78.667 8.66699 -116 26c-6.66699 2.66699 -13.5 5.83398 -20.5 9.50098s-11.167 7.5 -12.5 11.5s-2.33301 10.167 -3 18.5s-1 16.166 -1 23.499v12v17c0 18 1 33 3 45s6.33301 18 13 18
c4 0 6.83301 -1.83301 8.5 -5.5s2.83398 -8.5 3.50098 -14.5c6 -39.333 13.167 -66.666 21.5 -81.999s20.5 -28.333 36.5 -39c8.66699 -6 19.5 -11 32.5 -15s24.833 -6 35.5 -6c7.33301 0 11.666 2.83301 12.999 8.5s2 13.834 2 24.501v207
c0 15.333 -0.666992 24.666 -2 27.999s-8 7.33301 -20 12c-40.667 15.333 -72.334 34.333 -95.001 57c-28.667 28 -43 61.333 -43 100c0 36.667 14.167 69.834 42.5 99.501s60.833 47.167 97.5 52.5c13.333 1.33301 20 7 20 17v14v58c-0.666992 5.33301 -1 9.33301 -1 12
c0 9.33301 3.66699 14 11 14c8.66699 0 13 -3.33301 13 -10c-0.666992 -6.66699 -1 -12 -1 -16zM236.001 424.996l-0.000976562 145v19c-1.33301 8 -5.66602 12 -12.999 12c-24 0 -45 -10 -63 -30s-27 -42 -27 -66s7.66699 -44.667 23 -62c10.667 -12 29 -25.667 55 -41
l10 -4c3.33301 -1.33301 5.33301 -2 6 -2c4.66699 0 7.66699 4 9 12v17zM258 255.996v-211.001c0 -6.66699 2.66699 -10 8 -10c3.33301 0 9.83301 1.83301 19.5 5.5s16.5 6.83398 20.5 9.50098c41.333 24 62 59 62 105c0 27.333 -6.83301 50.333 -20.5 69
s-33.5 35.667 -59.5 51c-0.666992 0.666992 -3.83398 2.5 -9.50098 5.5s-9.16699 4.5 -10.5 4.5c-5.33301 0 -8.66602 -4 -9.99902 -12v-17z" />
    <glyph glyph-name="percent" unicode="%" horiz-adv-x="760" 
d="M153 243c-41.333 0 -75.334 23.332 -102.001 69.999c-22.667 40 -34 82.667 -34 128s11 87.666 33 126.999c26.667 47.333 61.334 71 104.001 71c19.333 0 37.5 -5.66699 54.5 -17s31.667 -26.333 44 -45s21.333 -39.5 27 -62.5s8.5 -47.5 8.5 -73.5
c0 -25.333 -2.5 -48.666 -7.5 -69.999s-13.333 -41.666 -25 -60.999s-26.5 -35.333 -44.5 -48s-37.333 -19 -58 -19zM153.999 259.999c33.333 0 56.333 22.667 69 68c8 28 12 64.333 12 109c0 46 -3.66699 82 -11 108c-12.667 46 -36 69 -70 69
c-33.333 0 -57 -22.667 -71 -68c-8.66699 -28.667 -13 -65 -13 -109s4.33301 -80.333 13 -109c14 -45.333 37.667 -68 71 -68zM602.999 608.999l-410 -598.001l-10 -14.5c-3.33301 -5 -8 -7.5 -14 -7.5l-15 -1c-4 0 -6 2 -6 6c0 2.66699 1.5 6.33398 4.5 11.001
s5.83301 8.33398 8.5 11.001l409 599c3.33301 5.33301 7 10.666 11 15.999s10 8 18 8c10 0 15 -3 15 -9c0 -3.33301 -1.33301 -6.83301 -4 -10.5s-5 -7.16699 -7 -10.5zM611.999 -12.002c-42 0 -75.999 23.332 -101.999 69.999c-22.667 40 -34 82.667 -34 128
c0 46.667 11 89.334 33 128.001c26.667 46.667 61 70 103 70c20.667 0 39.167 -5.33301 55.5 -16s30.666 -25.5 42.999 -44.5s21.333 -40.333 27 -64s8.5 -48.167 8.5 -73.5c0 -24 -2.5 -47 -7.5 -69s-13.167 -42.667 -24.5 -62s-25.833 -35.333 -43.5 -48
s-37.167 -19 -58.5 -19zM613 9.99707c33.333 0 56.333 22.667 69 68c8 28 12 64.333 12 109c0 46 -3.66699 82.333 -11 109c-12.667 46 -36 69 -70 69s-58 -22.667 -72 -68c-8.66699 -28 -13 -64.667 -13 -110c0 -44.667 4.33301 -81 13 -109c14 -45.333 38 -68 72 -68z" />
    <glyph glyph-name="ampersand" unicode="&#x26;" horiz-adv-x="700" 
d="M501 149l55.001 -63.9961c22 -26 38 -42.333 48 -49c16.667 -11.333 37.667 -17 63 -17c16 -2 24 -6.33301 24 -13c0 -4.66699 -2.16699 -7.5 -6.5 -8.5s-9.83301 -1.5 -16.5 -1.5c-14 0 -37 0.666992 -69 2s-49 2 -51 2c-14 0 -37 -0.666992 -69 -2s-49 -2 -51 -2
c-9.33301 0 -14 3.66699 -14 11c0 6.66699 5.66699 10 17 10c18.667 0 32.167 2.16699 40.5 6.5s12.5 10.833 12.5 19.5c0 7.33301 -3.33301 15.666 -10 24.999c-1.33301 1.33301 -7.33301 8.66602 -18 21.999c-4 5.33301 -7.66699 9.66602 -11 12.999
c-6.66699 7.33301 -11.667 11 -15 11c-2 0 -7.66699 -4.66699 -17 -14l-7 -7c-37.333 -36 -67.666 -61 -90.999 -75c-35.333 -21.333 -73 -32 -113 -32c-50 0 -92.333 15.333 -127 46c-37.333 32.667 -56 73.667 -56 123c0 35.333 9.66699 66 29 92
c9.33301 13.333 21.5 25.166 36.5 35.499s31.5 19.5 49.5 27.5s31 14 39 18c26 13.333 39 21.666 39 24.999c-19.333 22 -36 45.333 -50 70c-16 27.333 -24 54 -24 80c0 41.333 18.333 75 55 101c32.667 23.333 70.667 35 114 35c46 0 84.333 -10.333 115 -31
c34.667 -23.333 52 -56.666 52 -99.999c0 -29.333 -10.333 -51.666 -31 -66.999c-13.333 -10 -28.333 -19.333 -45 -28c-8 -4 -24.333 -11.667 -49 -23l-27 -12c-10 -6 -15 -10.333 -15 -13c0 -2 2.33301 -5.66699 7 -11s7.66699 -8.66602 9 -9.99902l115 -125
c5.33301 -6.66699 8.66602 -10.667 9.99902 -12c5.33301 -5.33301 10 -8 14 -8c5.33301 0 10.666 3.33301 15.999 10l10 15c10 12.667 21 28.667 33 48c15.333 24.667 23 41.667 23 51c0 10.667 -4.33301 18 -13 22s-19 6 -31 6h-20c-8.66699 1.33301 -13 5 -13 11
c0 7.33301 7.33301 11 22 11c10 0 23.667 -0.833008 41 -2.5s28 -2.5 32 -2.5c16.667 0 30 0.333008 40 1c40 2.66699 62 4 66 4c12 0 18 -3.33301 18 -10c0 -4.66699 -2 -7.83398 -6 -9.50098s-8.66699 -2.5 -14 -2.5c-12.667 0 -23.167 -1.16699 -31.5 -3.5
s-17.833 -7.33301 -28.5 -15s-21.667 -18.167 -33 -31.5c-6 -7.33301 -23.333 -30 -52 -68l-27 -38c-7.33301 -10.667 -11 -17 -11 -19c0 -4.66699 2 -9.33398 6 -14.001s8 -9 12 -13zM411.001 139.004l-4.99805 5.00195l-151 166c-6.66699 8 -10.334 12.333 -11.001 13
c-6.66699 6.66699 -12 10 -16 10c-3.33301 0 -12.5 -3.66699 -27.5 -11s-24.5 -12.333 -28.5 -15c-25.333 -14 -45 -31.5 -59 -52.5s-21 -45.167 -21 -72.5c0 -40.667 14 -75.334 42 -104.001s62.667 -43 104 -43c30 0 57.167 6 81.5 18s48.166 29.667 71.499 53
c4 4 8.5 9.16699 13.5 15.5s7.16699 12.166 6.5 17.499zM261.003 415.006l30.999 -26c4.66699 0 12.334 2.66699 23.001 8c4.66699 2 12 6 22 12c26 13.333 44.667 28 56 44s17 38 17 66c0 29.333 -10.333 54 -31 74s-46 30 -76 30s-55 -7.83301 -75 -23.5
s-30 -38.167 -30 -67.5c0 -18.667 7 -39.667 21 -63c9.33301 -15.333 23.333 -33.333 42 -54z" />
    <glyph glyph-name="quotesingle" unicode="'" horiz-adv-x="200" 
d="M79 354l-16.002 203.998c-0.666992 10.667 -1 19.334 -1 26.001c0 16.667 2.16699 30 6.5 40s12.833 15 25.5 15s21.667 -5.33301 27 -16s8 -24 8 -40c0 -7.33301 -0.666992 -15.666 -2 -24.999l-23 -204c-0.666992 -6 -1.66699 -12.667 -3 -20
s-4.66602 -11 -9.99902 -11s-8.66602 4.5 -9.99902 13.5s-2 14.833 -2 17.5z" />
    <glyph glyph-name="parenleft" unicode="(" horiz-adv-x="360" 
d="M37 295c0 55.333 9.16797 105.832 27.501 151.499s46.666 89.167 84.999 130.5s80.5 73.666 126.5 96.999l44.5 19c13 5.33301 20.833 8 23.5 8c6 0 9 -2.33301 9 -7c0 -3.33301 -2 -5.66602 -6 -6.99902c-82 -30.667 -142.667 -82 -182 -154
c-34.667 -64 -52 -143 -52 -237c0 -95.333 17 -174.666 51 -237.999c38.667 -71.333 99.667 -122.666 183 -153.999c4 -1.33301 6 -3.33301 6 -6c0 -5.33301 -3 -8 -9 -8c-10 0 -28.667 7 -56 21c-20 10 -37.333 20 -52 30c-59.333 39.333 -107 88.666 -143 147.999
c-20 32 -34.333 64.5 -43 97.5s-13 69.167 -13 108.5z" />
    <glyph glyph-name="parenright" unicode=")" horiz-adv-x="360" 
d="M316 295c0 -38.667 -4.49902 -74.667 -13.499 -108s-23.167 -66 -42.5 -98c-36 -59.333 -83.667 -108.666 -143 -147.999c-12 -8 -29 -17.667 -51 -29c-28.667 -14.667 -47.334 -22 -56.001 -22c-6.66699 0 -10 2.66699 -10 8c-0 2.66699 2.33301 4.66699 7 6
c82 30.667 142.667 82 182 154c34.667 64 52 143.333 52 238c0 95.333 -17 174.333 -51 237c-38.667 71.333 -99.667 122.666 -183 153.999c-4.66699 1.33301 -7 3.66602 -7 6.99902c0 4.66699 3 7 9 7s18 -4.16699 36 -12.5s28.667 -13.166 32 -14.499
c22 -11.333 44 -25.5 66 -42.5s42 -35.167 60 -54.5c38.667 -41.333 67.167 -84.5 85.5 -129.5s27.5 -95.833 27.5 -152.5z" />
    <glyph glyph-name="asterisk" unicode="*" horiz-adv-x="340" 
d="M242 511l-32 -4c-18.667 -4 -28 -9 -28 -15c0 -6.66699 19.5 -12.667 58.5 -18s58.5 -18.333 58.5 -39c0 -8 -3.16699 -15.167 -9.5 -21.5s-13.5 -9.5 -21.5 -9.5c-14 0 -30.667 12.333 -50 37s-32.333 37 -39 37c-5.33301 0 -8 -3 -8 -9c0 -1.33301 6.33301 -19 19 -53
c6.66699 -18 10 -31.333 10 -40c0 -20.667 -11.333 -31 -34 -31s-34 10.667 -34 32c0 8.66699 3.16699 21.667 9.5 39l19.5 53c0 6 -2.66699 9 -8 9c-2.66699 0 -18.667 -16.667 -48 -50c-14 -16 -27.667 -24 -41 -24c-8.66699 0 -16 3 -22 9s-9 13.333 -9 22
c0 20.667 19.5 33.667 58.5 39s58.5 11.333 58.5 18s-19.5 12.667 -58.5 18s-58.5 18.333 -58.5 39c0 8 3.16699 15.167 9.5 21.5s13.5 9.5 21.5 9.5c14 0 30.667 -12.333 50 -37s32.333 -37 39 -37c5.33301 0 8 3 8 9c0 1.33301 -6.33301 19 -19 53
c-6.66699 18 -10 31.333 -10 40c0 20.667 11.333 31 34 31s34 -10.667 34 -32c0 -8.66699 -3.16699 -21.667 -9.5 -39l-19.5 -53c0 -6 2.66699 -9 8 -9c2.66699 0 18.667 16.667 48 50c14 16 27.667 24 41 24c8.66699 0 16 -3 22 -9s9 -13.333 9 -22
c0 -13.333 -6.33301 -23 -19 -29c-8 -4 -20.667 -7 -38 -9z" />
    <glyph glyph-name="plus" unicode="+" 
d="M58 336h195v194h54v-194h194v-54h-194v-195h-54v195h-195v54z" />
    <glyph glyph-name="comma" unicode="," horiz-adv-x="260" 
d="M124 77c19.333 0 34.333 -8.49902 45 -25.499s16 -35.5 16 -55.5c0 -24 -5.83301 -49.333 -17.5 -76s-26.167 -49.334 -43.5 -68.001c-5.33301 -6 -11.666 -12.333 -18.999 -19c-10.667 -9.33301 -18.334 -14 -23.001 -14c-5.33301 0 -8 2.66699 -8 8
c19.333 21.333 36.833 43.833 52.5 67.5s23.5 45.5 23.5 65.5c0 18.667 -10.667 28 -32 28c-26.667 0 -40 13.667 -40 41c0 14 4.16699 25.5 12.5 34.5s19.5 13.5 33.5 13.5z" />
    <glyph glyph-name="hyphen" unicode="-" horiz-adv-x="320" 
d="M279 200h-253l16 51h253z" />
    <glyph glyph-name="period" unicode="." horiz-adv-x="260" 
d="M131 -12c-14 0 -24.999 4.66699 -32.999 14s-12 21 -12 35c0 14.667 4.16699 26.5 12.5 35.5s19.833 13.5 34.5 13.5c14 0 24.167 -4.66699 30.5 -14s9.5 -21 9.5 -35c0 -15.333 -3.33301 -27.333 -10 -36s-17.334 -13 -32.001 -13z" />
    <glyph glyph-name="slash" unicode="/" horiz-adv-x="400" 
d="M2 -50l352 728c2 5.33301 4.33301 10.5 7 15.5s7.33398 7.5 14.001 7.5c3.33301 0 7 -0.166992 11 -0.5s6 -1.83301 6 -4.5c0 -3.33301 -1 -6.83301 -3 -10.5s-3.33301 -6.16699 -4 -7.5l-346 -719c-2 -4.66699 -3.33301 -8 -4 -10
c-2.66699 -6.66699 -7.33398 -10 -14.001 -10h-10c-7.33301 -2 -11 -0.333008 -11 5z" />
    <glyph glyph-name="zero" unicode="0" horiz-adv-x="500" 
d="M253 -19c-68 0 -123.333 39.666 -166 118.999c-36 66.667 -54 137.334 -54 212.001c0 74 17.667 144 53 210c42.667 80 98 120 166 120c34.667 0 67.667 -12.333 99 -37c28 -22 51 -50 69 -84c16 -30 27.833 -63 35.5 -99s11.5 -72.667 11.5 -110
s-3.5 -73.333 -10.5 -108s-18.167 -66.667 -33.5 -96c-18 -34.667 -41 -63.667 -69 -87c-32 -26.667 -65.667 -40 -101 -40zM253 5.99902c32 0 58.665 13.333 79.998 40c16.667 20.667 30 49 40 85c6 22 10.5 50.167 13.5 84.5s4.5 66.5 4.5 96.5
c0 50.667 -1.83301 89.834 -5.5 117.501s-9.16699 53.167 -16.5 76.5c-10 32 -23.333 57.333 -40 76c-21.333 24 -46.666 36 -75.999 36c-57.333 0 -97.666 -39 -120.999 -117c-15.333 -50.667 -23 -113.667 -23 -189c0 -76.667 7.33301 -139.334 22 -188.001
c24 -78.667 64.667 -118 122 -118z" />
    <glyph glyph-name="one" unicode="1" horiz-adv-x="500" 
d="M305 626l-0.000976562 -513.997c0 -28 0.666992 -45 2 -51c5.33301 -22.667 25.333 -34 60 -34h30c10.667 0 16 -4.66699 16 -14c0 -8.66699 -5.33301 -13 -16 -13h-273c-11.333 0 -17 5 -17 15c0 5.33301 3 8.66602 9 9.99902s20.333 2 43 2
c34 0 54.333 4.83301 61 14.5s10 32.5 10 68.5v445c0 12.667 -5 19 -15 19c-4.66699 0 -10 -1.33301 -16 -4s-10.333 -4.66699 -13 -6l-58 -26l-19 -7.5c-6 -2.33301 -10.333 -3.5 -13 -3.5c-7.33301 0 -11 4.33301 -11 13c0 4.66699 2 8.66699 6 12s12 6.66602 24 9.99902
l167 73c6.66699 3.33301 11.334 4.66602 14.001 3.99902c6 -2 9 -6.33301 9 -13z" />
    <glyph glyph-name="two" unicode="2" horiz-adv-x="500" 
d="M165 77l187.004 0.000976562c26 0 44.167 3.33301 54.5 10s16.833 19.834 19.5 39.501s7 29.5 13 29.5s9.16699 -2.5 9.5 -7.5s0.5 -9.83301 0.5 -14.5v-117c0 -11.333 -7 -17 -21 -17h-348c-6 -0.666992 -10.667 -1 -14 -1c-12 0 -18 3.66699 -18 11
c0 2.66699 1.66699 6.5 5 11.5s6.33301 9.83301 9 14.5l133 161c53.333 60 88.666 102.667 105.999 128c40 57.333 60 107 60 149c0 38.667 -12.5 70.167 -37.5 94.5s-56.833 36.5 -95.5 36.5c-30.667 0 -58.334 -8.33301 -83.001 -25s-44.334 -39 -59.001 -67
c-4 -6.66699 -7.33301 -11.334 -10 -14.001s-5.66699 -4 -9 -4c-6 0 -9 3 -9 9c0 6.66699 4.66699 17.667 14 33c7.33301 12 14.333 21.667 21 29c20.667 25.333 44.5 43.833 71.5 55.5s57.833 17.5 92.5 17.5c50 0 92.667 -13.667 128 -41c38.667 -30 58 -69 58 -117
c0 -38.667 -12.667 -76.334 -38 -113.001c-16.667 -24 -44.667 -53.667 -84 -89l-168 -164c-2.66699 -2.66699 -6.83398 -8 -12.501 -16s-8.5 -13.667 -8.5 -17c0 -4 6.33301 -6 19 -6c8 0.666992 12.667 1 14 1z" />
    <glyph glyph-name="three" unicode="3" horiz-adv-x="500" 
d="M219 370l53 5.00195c52.667 0 96.5 -16.5 131.5 -49.5s52.5 -75.167 52.5 -126.5c0 -37.333 -8.16699 -72.5 -24.5 -105.5s-38.833 -62.5 -67.5 -88.5c-32 -28.667 -66 -51.667 -102 -69c-41.333 -20 -80.666 -30 -117.999 -30c-25.333 0 -47 4.33301 -65 13
c-24.667 12 -37 29 -37 51c0 11.333 3.33301 20.666 10 27.999s15.667 11 27 11c10.667 0 20.334 -4 29.001 -12c6 -5.33301 12.167 -13.5 18.5 -24.5s10.833 -18.167 13.5 -21.5c8 -9.33301 19.667 -14 35 -14c20 0 42.667 5.83301 68 17.5s46 24.5 62 38.5
c24 20 43.167 44.833 57.5 74.5s21.5 60.167 21.5 91.5c0 48.667 -14.667 89.334 -44 122.001s-68.666 49 -117.999 49c-19.333 0 -38.333 -2.83301 -57 -8.5s-37.667 -13.834 -57 -24.501c-2 -0.666992 -5.83301 -2.33398 -11.5 -5.00098s-9.5 -4 -11.5 -4
c-7.33301 0 -11 3.66699 -11 11c0 6 5.33301 12 16 18l32 22l122 78c51.333 38.667 77 75.667 77 111c0 25.333 -9.5 45.333 -28.5 60s-41.5 22 -67.5 22c-22.667 0 -44.834 -6.5 -66.501 -19.5s-38.5 -29.5 -50.5 -49.5c-2 -3.33301 -4.33301 -7 -7 -11s-5.66699 -6 -9 -6
c-6.66699 0 -10 4 -10 12c0 6.66699 3.66699 15.334 11 26.001c5.33301 8 11.666 15.667 18.999 23c17.333 18 38.166 31.5 62.499 40.5s49.833 13.5 76.5 13.5c38.667 0 71.667 -9 99 -27c32 -21.333 48 -50 48 -86c0 -30.667 -17 -58.334 -51 -83.001
c-8 -6 -25.333 -16.333 -52 -31z" />
    <glyph glyph-name="four" unicode="4" horiz-adv-x="500" 
d="M378 166l-0.00292969 -84.999c0 -20.667 1 -34 3 -40c4.66699 -14 22 -21 52 -21c3.33301 0 8 -0.333008 14 -1s9 -4.66699 9 -12s-5.33301 -11 -16 -11s-28.5 0.666992 -53.5 2s-38.5 2 -40.5 2c-12 0 -32.833 -0.666992 -62.5 -2s-45.5 -2 -47.5 -2
c-9.33301 0 -14 3.33301 -14 10c0 9.33301 7 14 21 14h15c8.66699 0 17.167 1.33301 25.5 4s14 7.16699 17 13.5s4.5 14.833 4.5 25.5v18v85v12c0 12 -1.83301 18.667 -5.5 20s-9.5 2 -17.5 2h-11h-212c-11.333 -0.666992 -18.666 -1 -21.999 -1
c-5.33301 0 -8.66602 1 -9.99902 3s-2 7.66699 -2 17c0 6 2.5 12.167 7.5 18.5l11.5 14.5l338 448c5.33301 8.66699 12.666 13 21.999 13c8.66699 0 13 -2.66699 13 -8c0 -2.66699 -1.66699 -6.33398 -5 -11.001l-330 -432c-3.33301 -4.66699 -6.33301 -8.66699 -9 -12
c-6 -8 -9 -13 -9 -15c0 -4.66699 5.33301 -7 16 -7c6.66699 0.666992 10.667 1 12 1h180h12c8.66699 0 14.334 0.666992 17.001 2s4 8 4 20v14v181c0 9.33301 1 14.333 3 15l60 22c4.66699 1.33301 7.5 -1.83398 8.5 -9.50098s1.5 -16.5 1.5 -26.5v-192
c0 -15.333 3.33301 -23 10 -23h77c4 0 6.33301 -2.66699 7 -8s1 -9.66602 1 -12.999c0 -7.33301 -3.33301 -11 -10 -11h-36h-31c-9.33301 0 -14.666 -1.33301 -15.999 -4s-2 -6.66699 -2 -12v-18z" />
    <glyph glyph-name="five" unicode="5" horiz-adv-x="500" 
d="M359 576l-187.003 -25.001c-22 -2.66699 -35.167 -4.5 -39.5 -5.5s-9.83301 -12.833 -16.5 -35.5l-12 -42l-6 -24c0 -6 3.66699 -9.66699 11 -11s12.333 -2 15 -2l38 -4c40 -4 72.667 -8.66699 98 -14c35.333 -8 66.666 -19.833 93.999 -35.5s49.333 -38.667 66 -69
s25 -62.166 25 -95.499c0 -46 -15.667 -89.333 -47 -130c-26.667 -34.667 -62.667 -65 -108 -91c-20 -11.333 -41.667 -21.333 -65 -30s-46.666 -15.667 -69.999 -21s-38.666 -8.66602 -45.999 -9.99902c-20.667 -4 -34.667 -6 -42 -6c-8.66699 0 -13 3.33301 -13 10
c0 8 6.33301 12 19 12c25.333 0 55.5 5.66699 90.5 17s65.5 24 91.5 38c35.333 19.333 64.833 46 88.5 80s35.5 70 35.5 108c0 40.667 -12.333 74 -37 100c-22 23.333 -53.667 40.666 -95 51.999c-24 6 -53.167 11.667 -87.5 17s-63.5 8 -87.5 8c-10 0 -15 3 -15 9l6 22
l54 185c4.66699 17.333 8.83398 27.5 12.501 30.5s15.167 5.83301 34.5 8.5l229 31c4.66699 1.33301 8.33398 2 11.001 2c5.33301 0 8 -2.66699 8 -8l-7 -30l-7 -27c-2 -6.66699 -8.66699 -10.667 -20 -12z" />
    <glyph glyph-name="six" unicode="6" horiz-adv-x="500" 
d="M405 734c5.33301 2.66699 9.99414 4.66992 13.9941 6.00293c14.667 6 24.334 9 29.001 9c8 0 12 -3.66699 12 -11c0 -4 -4.33301 -7.66699 -13 -11l-10 -4c-41.333 -14.667 -82.666 -36.834 -123.999 -66.501s-76.333 -62.167 -105 -97.5
c-67.333 -82 -101 -177.333 -101 -286c0 -62 11.333 -118.667 34 -170c29.333 -66.667 71.333 -100 126 -100c18.667 0 35.834 4.83301 51.501 14.5s28.834 22.5 39.501 38.5c13.333 20 22.833 41.333 28.5 64s8.5 47.667 8.5 75s-2.83301 53.5 -8.5 78.5
s-14.667 46.667 -27 65s-25.833 32 -40.5 41s-31.667 13.5 -51 13.5c-17.333 0 -32.666 -4.33301 -45.999 -13l-36 -29c-5.33301 0 -8 3.33301 -8 10c0 5.33301 3 11.333 9 18c2 2.66699 7.33301 7.66699 16 15c12 10 25.667 17.5 41 22.5s31.333 7.5 48 7.5
c54 0 97.667 -22 131 -66c30 -40 45 -88 45 -144c0 -62 -18.333 -115.333 -55 -160c-39.333 -48 -89.666 -72 -150.999 -72c-69.333 0 -126.333 33 -171 99c-39.333 58.667 -59 124.667 -59 198c0 49.333 11 98.666 33 147.999c19.333 43.333 46.833 85.666 82.5 126.999
s74.5 76.5 116.5 105.5s89 53.833 141 74.5z" />
    <glyph glyph-name="seven" unicode="7" horiz-adv-x="500" 
d="M146 -46l245.001 556.001l6.5 13.5c2.33301 5 3.5 9.16699 3.5 12.5c0 8.66699 -6.33301 13 -19 13h-284c-8.66699 0 -16.334 -0.166992 -23.001 -0.5s-15 -2.5 -25 -6.5l-10 -4c-2 0 -3.66699 2.16699 -5 6.5s-2 7.16602 -2 8.49902l-4 52
c0 7.33301 0.833008 12.5 2.5 15.5s5.83398 4.5 12.501 4.5h395c4 0 10.333 -0.166992 19 -0.5s13 -4.16602 13 -11.499c0 -2.66699 -1 -6 -3 -10s-3.66699 -7.66699 -5 -11l-276 -619c-2 -5.33301 -4 -11 -6 -17c-2.66699 -4 -7.33398 -6 -14.001 -6h-14
c-4.66699 1.33301 -7 2.66602 -7 3.99902z" />
    <glyph glyph-name="eight" unicode="8" horiz-adv-x="500" 
d="M161 302l30 12c-43.333 15.333 -76.333 33.666 -99 54.999c-28.667 27.333 -43 61.333 -43 102c0 24 6.5 47.333 19.5 70s29.5 41.5 49.5 56.5s42.167 26.167 66.5 33.5s49.5 11 75.5 11c51.333 0 95 -12 131 -36c42 -28 63 -66.333 63 -115
c0 -33.333 -12 -60.666 -36 -81.999c-14.667 -12.667 -41.334 -28 -80.001 -46l-30 -15c46 -11.333 83.667 -30.333 113 -57c34.667 -32 52 -69.667 52 -113c0 -26 -5.83301 -51.333 -17.5 -76s-28.167 -46.334 -49.5 -65.001s-46.333 -32.5 -75 -41.5s-59 -13.5 -91 -13.5
c-54.667 0 -102 14.667 -142 44c-21.333 16 -38.666 35.333 -51.999 58s-20 46.334 -20 71.001c0 29.333 8.5 54.833 25.5 76.5s53.5 45.167 109.5 70.5zM278 361c6.66699 0 15.666 2.49805 26.999 7.49805s22 10.5 32 16.5c37.333 25.333 56 60.333 56 105
c0 40 -13.833 72.167 -41.5 96.5s-61.834 36.5 -102.501 36.5c-19.333 0 -36.666 -2.5 -51.999 -7.5s-29.166 -13.167 -41.499 -24.5s-22.5 -25.166 -30.5 -41.499s-12 -32.166 -12 -47.499c0 -28 8.33301 -52.333 25 -73c14.667 -18.667 35.667 -34 63 -46
c8 -3.33301 21 -7.83301 39 -13.5s30.667 -8.5 38 -8.5zM247.999 0.998047c25.333 0 47.999 4 67.999 12s37.667 21 53 39c23.333 27.333 35 59 35 95c0 28.667 -7.66699 53.334 -23 74.001s-36.666 38 -63.999 52c-8 4 -24 10.167 -48 18.5s-39.333 12.5 -46 12.5
c-4.66699 0 -11.834 -2.16699 -21.501 -6.5s-18.5 -9.5 -26.5 -15.5c-27.333 -17.333 -47.666 -36.833 -60.999 -58.5s-20 -47.834 -20 -78.501c0 -40.667 14 -75 42 -103c14 -14.667 30.5 -25.167 49.5 -31.5s39.833 -9.5 62.5 -9.5z" />
    <glyph glyph-name="nine" unicode="9" horiz-adv-x="500" 
d="M53 -100c-6.66699 0 -10.002 3.33496 -10.002 10.002c0 4.66699 5.66699 9.66699 17 15l13 5c40 18 79.333 43 118 75s72 66 100 102c32.667 40.667 58.167 83.667 76.5 129s27.5 92.333 27.5 141c0 53.333 -11 102.666 -33 147.999
c-13.333 26.667 -30 48.334 -50 65.001c-23.333 19.333 -48.666 29 -75.999 29c-17.333 0 -33.666 -3.66699 -48.999 -11s-28.333 -17.666 -39 -30.999c-14 -17.333 -24.5 -37.833 -31.5 -61.5s-10.5 -47.834 -10.5 -72.501c0 -45.333 10.333 -86 31 -122
c25.333 -44 58.666 -66 99.999 -66c16.667 0 32.334 4 47.001 12l23 13c6 0 9 -3.33301 9 -10c0 -3.33301 -2 -7 -6 -11c-1.33301 -1.33301 -3.66602 -3 -6.99902 -5c-28.667 -19.333 -59.334 -29 -92.001 -29c-53.333 0 -96.833 18.333 -130.5 55s-50.5 82 -50.5 136
c0 60 20.333 112.667 61 158s91 68 151 68c30 0 59.5 -7.33301 88.5 -22s53.833 -34.5 74.5 -59.5s36.5 -53.833 47.5 -86.5s16.5 -66.334 16.5 -101.001c0 -62.667 -16 -123 -48 -181c-28 -50.667 -68.333 -99.667 -121 -147
c-48.667 -42.667 -102.667 -79.334 -162 -110.001c-9.33301 -4.66699 -23 -11 -41 -19c-24 -10.667 -38.667 -16 -44 -16z" />
    <glyph glyph-name="colon" unicode=":" horiz-adv-x="260" 
d="M131 274c-14 0 -24.999 4.66699 -32.999 14s-12 21 -12 35c0 14.667 4.16699 26.5 12.5 35.5s19.833 13.5 34.5 13.5c14 0 24.167 -4.66699 30.5 -14s9.5 -21 9.5 -35c0 -15.333 -3.33301 -27.333 -10 -36s-17.334 -13 -32.001 -13zM131.001 -12
c-14 0 -24.999 4.66699 -32.999 14s-12 21 -12 35c0 14.667 4.16699 26.5 12.5 35.5s19.833 13.5 34.5 13.5c14 0 24.167 -4.66699 30.5 -14s9.5 -21 9.5 -35c0 -15.333 -3.33301 -27.333 -10 -36s-17.334 -13 -32.001 -13z" />
    <glyph glyph-name="semicolon" unicode=";" horiz-adv-x="260" 
d="M124 77c19.333 0 34.333 -8.49902 45 -25.499s16 -35.5 16 -55.5c0 -24 -5.83301 -49.333 -17.5 -76s-26.167 -49.334 -43.5 -68.001c-5.33301 -6 -11.666 -12.333 -18.999 -19c-10.667 -9.33301 -18.334 -14 -23.001 -14c-5.33301 0 -8 2.66699 -8 8
c19.333 21.333 36.833 43.833 52.5 67.5s23.5 45.5 23.5 65.5c0 18.667 -10.667 28 -32 28c-26.667 0 -40 13.667 -40 41c0 14 4.16699 25.5 12.5 34.5s19.5 13.5 33.5 13.5zM124 270.001c-14 0 -24.999 4.66699 -32.999 14s-12 21 -12 35c0 14.667 4.16699 26.5 12.5 35.5
s19.833 13.5 34.5 13.5c14 0 24.167 -4.66699 30.5 -14s9.5 -21 9.5 -35c0 -15.333 -3.33301 -27.333 -10 -36s-17.334 -13 -32.001 -13z" />
    <glyph glyph-name="less" unicode="&#x3c;" 
d="M520 125v-55l-472 215v50l472 217v-55l-411 -188z" />
    <glyph glyph-name="equal" unicode="=" 
d="M58 402h443v-54h-443v54zM58 271h443v-54h-443v54z" />
    <glyph glyph-name="greater" unicode="&#x3e;" 
d="M48 125l410 184l-410 188v55l472 -217v-50l-472 -215v55z" />
    <glyph glyph-name="question" unicode="?" horiz-adv-x="300" 
d="M88 -12c-14 0 -24.999 4.66699 -32.999 14s-12 21 -12 35c0 14.667 4.16699 26.5 12.5 35.5s19.833 13.5 34.5 13.5c14 0 24.167 -4.66699 30.5 -14s9.5 -21 9.5 -35c0 -15.333 -3.33301 -27.333 -10 -36s-17.334 -13 -32.001 -13zM79.001 196l-13.001 71.999l-3 23
c0 11.333 9.33301 24.666 28 39.999c11.333 8.66699 19 14.334 23 17.001c48 34 79.667 63.167 95 87.5s23 50.5 23 78.5c0 14 -1.33301 25.5 -4 34.5s-8.16699 18.833 -16.5 29.5s-18 19.167 -29 25.5s-22.5 9.5 -34.5 9.5c-21.333 0 -40.333 -14.333 -57 -43
s-29.667 -43 -39 -43s-16 8.5 -20 25.5s-6 32.833 -6 47.5c0 6.66699 0.833008 11.834 2.5 15.501s5.83398 7.5 12.501 11.5s18 7 34 9s29.667 3 41 3c44 0 82 -16.667 114 -50s48 -72 48 -116c0 -35.333 -8.33301 -66 -25 -92c-12.667 -20 -35 -43 -67 -69l-37 -29
c-20 -17.333 -31.667 -28.333 -35 -33c-8 -10.667 -12 -26 -12 -46v-22c0 -8 -2.66699 -12 -8 -12s-9 3.33301 -11 10s-3.33301 12 -4 16z" />
    <glyph glyph-name="at" unicode="@" horiz-adv-x="740" 
d="M623 171l37 -0.00195312c-21.333 -55.333 -58.333 -99.666 -111 -132.999s-109.334 -50 -170.001 -50c-88.667 0 -163.5 31.833 -224.5 95.5s-91.5 140.834 -91.5 231.501c0 88.667 30.5 164.834 91.5 228.501s135.167 95.5 222.5 95.5c80 0 148.5 -25.167 205.5 -75.5
s85.5 -115.833 85.5 -196.5c0 -61.333 -18.333 -115 -55 -161c-19.333 -24 -42.833 -44.167 -70.5 -60.5s-55.167 -24.5 -82.5 -24.5c-17.333 0 -32.833 4.33301 -46.5 13s-21.834 21 -24.501 37c-14.667 -14.667 -31 -26.5 -49 -35.5s-36.667 -13.5 -56 -13.5
c-32 0 -57.167 11.667 -75.5 35s-27.5 52 -27.5 86c0 61.333 17.667 118.666 53 171.999c40 60 88.667 90 146 90c20 0 38.333 -4.33301 55 -13s27.334 -21.667 32.001 -39l13 40h72l-81 -240c-4.66699 -14.667 -9 -29 -13 -43c-6 -21.333 -9 -35 -9 -41
c0 -12 7.33301 -18 22 -18s29.667 4 45 12s29.333 18 42 30c22.667 20.667 40.5 47 53.5 79s19.5 64.667 19.5 98c0 64.667 -25.167 119.5 -75.5 164.5s-108.166 67.5 -173.499 67.5c-78 0 -144.5 -27.5 -199.5 -82.5s-82.5 -122.167 -82.5 -201.5
c0 -82 26.5 -151.167 79.5 -207.5s119.833 -84.5 200.5 -84.5c50 0 97 13 141 39s78 61.333 102 106zM401 261.998l42.0029 126.001c4.66699 12 7 21.667 7 29c0 17.333 -4.33301 32.166 -13 44.499s-21.334 18.5 -38.001 18.5c-40.667 0 -77.334 -37.333 -110.001 -112
c-28 -64 -42 -120 -42 -168c0 -16 4.5 -28.833 13.5 -38.5s21.167 -14.5 36.5 -14.5c25.333 0 47.666 13.333 66.999 40c14 19.333 26.333 44.333 37 75z" />
    <glyph glyph-name="A" unicode="A" horiz-adv-x="640" 
d="M169 187l-30 -75.0029c-4 -10.667 -7.33301 -20.5 -10 -29.5s-4 -17.5 -4 -25.5c0 -14 8.33301 -24 25 -30c11.333 -4 25.333 -6 42 -6c8 0 14.333 -0.666992 19 -2s7 -5 7 -11c0 -4.66699 -2.33301 -7.83398 -7 -9.50098s-10.334 -2.5 -17.001 -2.5
c-9.33301 0 -25.166 0.666992 -47.499 2s-34.5 2 -36.5 2c-9.33301 0 -25.333 -0.666992 -48 -2s-34.667 -2 -36 -2c-7.33301 -0.666992 -13 -1 -17 -1c-12.667 0 -19 4 -19 12c0 6 2.66699 9.83301 8 11.5s12 2.5 20 2.5c12.667 0 22.5 0.833008 29.5 2.5
s13.667 5.83398 20 12.501s13.5 19.334 21.5 38.001c6 12.667 11.667 26.667 17 42l193 501c0.666992 3.33301 2.16699 7.83301 4.5 13.5s6.5 8.5 12.5 8.5c5.33301 0 10 -6.33301 14 -19l202 -502c14.667 -35.333 24 -56.333 28 -63c14.667 -22.667 32.667 -34 54 -34
c19.333 0 29 -5 29 -15c0 -6.66699 -5 -10 -15 -10c-14.667 0 -36.667 0.666992 -66 2s-51.333 2 -66 2c-12 0 -32.833 -0.666992 -62.5 -2s-45.834 -2 -48.501 -2c-10.667 0 -16 3.33301 -16 10s2.83301 10.834 8.5 12.501s12.5 2.5 20.5 2.5c20 0 33.667 1 41 3
c15.333 4.66699 23 13.667 23 27c0 5.33301 -1 11.333 -3 18s-5.66699 17 -11 31l-32 76c-10 24 -15.333 36.667 -16 38c-5.33301 8.66699 -20.666 13 -45.999 13h-136c-18.667 0 -30 -2 -34 -6c-0.666992 -1.33301 -5.66699 -12.666 -15 -33.999zM271 456.997l-69 -181.999
l-3 -12c0 -4.66699 7 -7 21 -7c8.66699 0.666992 13.667 1 15 1h115h12c11.333 0 17 2.66699 17 8l-7 22l-68 170c-3.33301 9.33301 -6.33301 16.666 -9 21.999s-5 8 -7 8c-3.33301 0 -7 -4.33301 -11 -13c-3.33301 -10 -5.33301 -15.667 -6 -17z" />
    <glyph glyph-name="B" unicode="B" horiz-adv-x="640" 
d="M129 107l0.00292969 410.998v25c0 18.667 -2.33301 32.334 -7 41.001c-6.66699 12 -19.334 18 -38.001 18c-7.33301 0 -16.333 -1.33301 -27 -4s-17.667 -4 -21 -4c-7.33301 0 -11 3 -11 9c0 6.66699 5.16699 11.834 15.5 15.501s20.5 6.5 30.5 8.5
c26 4.66699 55.167 7.83398 87.5 9.50098s69.166 2.5 110.499 2.5c43.333 0 80.666 -1.33301 111.999 -4s60.5 -9.83398 87.5 -21.501s48.5 -27.5 64.5 -47.5c18.667 -23.333 28 -49 28 -77c0 -36.667 -14.667 -67.667 -44 -93c-24.667 -21.333 -56.334 -36 -95.001 -44
c48.667 -6 89.667 -24 123 -54c37.333 -33.333 56 -74.333 56 -123c0 -28.667 -6.83301 -55.167 -20.5 -79.5s-32.167 -44.333 -55.5 -60s-48.166 -26.167 -74.499 -31.5s-55.833 -8 -88.5 -8c-28 0 -74.5 0.666992 -139.5 2s-99.833 2 -104.5 2
c-6.66699 -0 -17 -0.666992 -31 -2s-24.667 -2 -32 -2c-11.333 0 -17 5 -17 15c0 6 3.5 9.16699 10.5 9.5s11.833 0.5 14.5 0.5c32 0 51.667 6.33301 59 19c4.66699 8 7 30.333 7 67zM208.003 544.998l0.00195312 -141.003c0 -22 2.5 -35.5 7.5 -40.5s18.833 -7.5 41.5 -7.5
h54c26 0 49 2.33301 69 7s37.667 14.334 53 29.001c24.667 22.667 37 53.334 37 92.001c0 46.667 -17.333 81.667 -52 105c-30.667 20.667 -70 31 -118 31c-26.667 0 -45.334 -1.16699 -56.001 -3.5s-19.334 -7.16602 -26.001 -14.499c-4 -4 -6.66699 -10 -8 -18
s-2 -16.333 -2 -25v-14zM208.005 289.995l-0.00195312 -160.999c0 -28 0.666992 -45.667 2 -53c4 -20.667 13 -35.334 27 -44.001c6 -4 17.833 -7.5 35.5 -10.5s37.834 -4.5 60.501 -4.5c28 0 52.167 2.66699 72.5 8s38.833 15.5 55.5 30.5s29.334 32.667 38.001 53
s13 41.5 13 63.5c0 62 -25.667 107 -77 135c-21.333 12.667 -44.333 20.667 -69 24s-54.667 5 -90 5h-19c-6 0 -11.667 0.333008 -17 1c-13.333 0 -22 -2.66699 -26 -8s-6 -18.333 -6 -39z" />
    <glyph glyph-name="C" unicode="C" horiz-adv-x="620" 
d="M571 561l6.99902 -65.002c0 -8.66699 -3.66699 -13 -11 -13c-16.667 33.333 -39 62.333 -67 87c-30.667 27.333 -71.334 41 -122.001 41c-79.333 0 -142 -30 -188 -90c-42 -54.667 -63 -122.667 -63 -204c0 -73.333 20.667 -138.666 62 -195.999
c24.667 -34 52.5 -60.167 83.5 -78.5s66.167 -27.5 105.5 -27.5c50 0 90.667 16.333 122 49l72 108c8.66699 0 12.334 -4.33301 11.001 -13l-5 -81c0 -16 -1.33301 -26 -4 -30s-12 -10 -28 -18c-59.333 -28 -119.666 -42 -180.999 -42
c-90.667 0 -167.834 32.167 -231.501 96.5s-95.5 141.5 -95.5 231.5c0 90.667 34.5 167.167 103.5 229.5s150.167 93.5 243.5 93.5c21.333 0 47.833 -2.66699 79.5 -8s57.834 -11.666 78.501 -18.999c14 -4.66699 22.333 -13 25 -25c0 -1.33301 1 -10 3 -26z" />
    <glyph glyph-name="D" unicode="D" horiz-adv-x="740" 
d="M119 107v413v24c0 14.667 -1.66699 25.334 -5 32.001c-5.33301 10 -14.666 15 -27.999 15c-7.33301 0 -15.166 -1.16699 -23.499 -3.5l-26.5 -7.5c-7.33301 0 -11 3.66699 -11 11c0 15.333 37.667 27.166 113 35.499s133.333 12.5 174 12.5
c48 0 93.833 -6.16699 137.5 -18.5s84 -32.5 121 -60.5s67 -63.667 90 -107s34.5 -88.333 34.5 -135c0 -46 -9.33301 -90 -28 -132s-45.334 -78.167 -80.001 -108.5s-73.334 -51.5 -116.001 -63.5s-90.334 -18 -143.001 -18c-25.333 0 -67.666 0.666992 -126.999 2
s-90.333 2 -93 2c-7.33301 -0 -19.5 -0.666992 -36.5 -2s-25.833 -2 -26.5 -2c-11.333 0 -17 4.66699 -17 14c0 5.33301 2.33301 8.5 7 9.5s11 1.5 19 1.5c37.333 0 58.333 10 63 30c1.33301 6 2 24.667 2 56zM198 540v-415.002c0 -44.667 6.83301 -74.167 20.5 -88.5
s42.5 -21.5 86.5 -21.5c47.333 0 86 5 116 15c37.333 12 70.166 32.833 98.499 62.5s49.5 63 63.5 100s21 75.833 21 116.5c0 92.667 -28.667 167 -86 223s-131.666 84 -222.999 84c-20 0 -37.5 -1 -52.5 -3s-25.667 -6.16699 -32 -12.5s-10 -14.166 -11 -23.499
s-1.5 -21.666 -1.5 -36.999z" />
    <glyph glyph-name="E" unicode="E" 
d="M195 544l0.00488281 -145.001c0 -22.667 2.83301 -36.167 8.5 -40.5s19.5 -6.5 41.5 -6.5h41c10 0 21.167 0.166992 33.5 0.5s25.333 1.33301 39 3s23 6.5 28 14.5s9.83301 26.333 14.5 55c2 11.333 6.33301 17 13 17c7.33301 0 11 -3.33301 11 -10l-5 -86l5 -94
c0 -12 -3.66699 -18 -11 -18c-6.66699 0 -11 5.66699 -13 17c-4 22.667 -8.83301 38.5 -14.5 47.5s-13.667 14.833 -24 17.5s-26.333 4.66699 -48 6s-40.834 2 -57.501 2h-12c-22 0 -35.833 -1.66699 -41.5 -5s-8.5 -13 -8.5 -29v-174c0 -42 10.667 -69 32 -81
c14 -8 44.333 -12 91 -12c51.333 0 87 4 107 12c30 12 52.667 38 68 78c2 6 4.83301 13.167 8.5 21.5s8.16699 12.5 13.5 12.5c6.66699 0 10 -3.66699 10 -11c0 -5.33301 -1.33301 -13.333 -4 -24l-15 -106c-0.666992 -4 -4.33398 -6 -11.001 -6h-391
c-6.66699 0 -17 -0.666992 -31 -2s-24.333 -2 -31 -2c-11.333 0 -17 5 -17 15c0 4.66699 2.5 7.83398 7.5 9.50098s11.167 2.5 18.5 2.5c31.333 0 50.666 6 57.999 18c4.66699 8 7 30 7 66v407v21c0 24.667 -3.66699 41 -11 49s-25.333 12 -54 12c-17.333 0 -26 4 -26 12
c0 10 5.66699 15 17 15c21.333 0 57.166 -0.666992 107.499 -2s77.166 -2 80.499 -2c30 0 79 0.666992 147 2s104 2 108 2c10 0 15 -7.33301 15 -22c-0.666992 -7.33301 -1 -12.333 -1 -15v-86v-12c-1.33301 -6 -4.33301 -9 -9 -9c-4 0 -6.83301 1.66699 -8.5 5l-7.5 15
l-15 28c-8 16.667 -16 29 -24 37c-10 10 -22.5 17.333 -37.5 22s-30.167 7.5 -45.5 8.5s-37 1.5 -65 1.5c-12.667 0 -26.334 -0.166992 -41.001 -0.5s-25.667 -1.83301 -33 -4.5s-12.166 -7 -14.499 -13s-3.5 -13 -3.5 -21v-13z" />
    <glyph glyph-name="F" unicode="F" horiz-adv-x="520" 
d="M116 104l0.00292969 411.998v21c0 23.333 -3.66699 39 -11 47s-25.333 12 -54 12c-17.333 0 -26 4.66699 -26 14c0 8.66699 5.66699 13 17 13c10.667 0 28.5 -0.666992 53.5 -2s38.5 -2 40.5 -2c40 0 105.5 0.666992 196.5 2s139.833 2 146.5 2
c10.667 0 16 -7.66699 16 -23v-12v-70c0.666992 -6 1 -11.333 1 -16c0 -15.333 -3.66699 -23 -11 -23c-4 0 -7.33301 2 -10 6s-4.66699 9 -6 15c-12 42.667 -33.333 70.334 -64 83.001c-21.333 8.66699 -58.666 13 -111.999 13c-14.667 0 -30.334 -0.166992 -47.001 -0.5
s-29.334 -2.5 -38.001 -6.5c-4.66699 -2 -8 -6.66699 -10 -14s-3 -14.666 -3 -21.999v-12v-142c0 -22.667 2.83301 -36.167 8.5 -40.5s19.5 -6.5 41.5 -6.5h41c10 0 21.167 0.166992 33.5 0.5s25.333 1.33301 39 3s23 6.5 28 14.5s9.83301 26.333 14.5 55
c2 11.333 6.33301 17 13 17c7.33301 0 11 -3.33301 11 -10l-5 -86l5 -94c0 -12 -3.66699 -18 -11 -18c-6.66699 0 -11 5.66699 -13 17c-4 22.667 -8.83301 38.5 -14.5 47.5s-13.667 14.833 -24 17.5s-26.333 4.66699 -48 6s-40.834 2 -57.501 2h-12
c-22 0 -35.833 -1.66699 -41.5 -5s-8.5 -13 -8.5 -29v-186c0 -36.667 2 -58.334 6 -65.001c7.33301 -12 27 -18 59 -18c8 0 14.333 -0.666992 19 -2s7 -4.66602 7 -9.99902c0 -8.66699 -5.66699 -13 -17 -13c-13.333 0 -34.833 0.666992 -64.5 2s-45.5 2 -47.5 2
c-12.667 -0 -34.334 -0.666992 -65.001 -2s-47 -2 -49 -2c-11.333 0 -17 4.33301 -17 13c0 6 2.16699 9.5 6.5 10.5s10.5 1.5 18.5 1.5c38 0 59 9.33301 63 28c1.33301 6 2 24.333 2 55z" />
    <glyph glyph-name="G" unicode="G" horiz-adv-x="740" 
d="M608 543l2 -42c0 -13.333 -5 -20 -15 -20c-14.667 34 -35.334 63.333 -62.001 88c-29.333 27.333 -72.666 41 -129.999 41c-41.333 0 -78.833 -7 -112.5 -21s-62.667 -35.667 -87 -65s-42.666 -63 -54.999 -101s-18.5 -76.333 -18.5 -115
c0 -40.667 5.5 -77.5 16.5 -110.5s29.833 -64.667 56.5 -95s58 -52.5 94 -66.5s76.333 -21 121 -21c22 0 43.167 2 63.5 6s37.166 11.333 50.499 22c8.66699 7.33301 14 18.166 16 32.499s3 31.5 3 51.5v83c0 27.333 -4 45 -12 53s-26.667 12 -56 12c-16 0 -24 4 -24 12
c0 5.33301 2.33301 8.83301 7 10.5s10 2.5 16 2.5c12 0 32.5 -0.666992 61.5 -2s44.5 -2 46.5 -2c12 0 31.5 0.666992 58.5 2s41.833 2 44.5 2c11.333 0 17 -4 17 -12c0 -8.66699 -6.33301 -13 -19 -13l-19 -2c-5.33301 -0.666992 -10.666 -1 -15.999 -1
c-6.66699 -1.33301 -11.834 -3.66602 -15.501 -6.99902s-6.33398 -8.83301 -8.00098 -16.5s-2.5 -16.167 -2.5 -25.5v-13v-115v-19c0 -7.33301 -1.16699 -13.5 -3.5 -18.5s-7.16602 -9.83301 -14.499 -14.5c-28.667 -18.667 -61.667 -32.5 -99 -41.5
s-75.333 -13.5 -114 -13.5c-48 0 -92.167 6 -132.5 18s-77.5 32 -111.5 60c-38 31.333 -66.833 66.333 -86.5 105s-29.5 82 -29.5 130c0 96.667 39.333 178 118 244c74.667 62.667 162 94 262 94c29.333 0 57 -2.16699 83 -6.5s52 -11.5 78 -21.5
c14 -5.33301 22.333 -14 25 -26c1.33301 -17.333 2.33301 -31.333 3 -42z" />
    <glyph glyph-name="H" unicode="H" horiz-adv-x="740" 
d="M194 283v-179.002c0 -36.667 2 -58.334 6 -65.001c7.33301 -12 27 -18 59 -18c8 0 14.333 -0.666992 19 -2s7 -4.66602 7 -9.99902c0 -8.66699 -5.66699 -13 -17 -13c-13.333 0 -34.833 0.666992 -64.5 2s-45.5 2 -47.5 2c-12.667 0 -34.334 -0.666992 -65.001 -2
s-47 -2 -49 -2c-11.333 0 -17 4.33301 -17 13c0 6 2.16699 9.5 6.5 10.5s10.5 1.5 18.5 1.5c38 0 59 9.33301 63 28c1.33301 6 2 24.333 2 55v410v22c0 24.667 -3 40.334 -9 47.001c-8 8.66699 -26.667 13 -56 13c-16.667 0 -25 4.33301 -25 13c0 9.33301 5.66699 14 17 14
c13.333 0 34.833 -0.666992 64.5 -2s45.5 -2 47.5 -2c12.667 0 34.334 0.666992 65.001 2s47 2 49 2c11.333 0 17 -4.66699 17 -14c0 -5.33301 -2.5 -8.83301 -7.5 -10.5s-11.167 -2.5 -18.5 -2.5c-28.667 0 -46.667 -4 -54 -12s-11 -24 -11 -48v-22v-129
c0 -18.667 1.16699 -29.5 3.5 -32.5s12.833 -4.5 31.5 -4.5h280c16.667 0 26.667 1.66699 30 5s5 14 5 32v129v22c0 24.667 -3 40.334 -9 47.001c-8 8.66699 -26.667 13 -56 13c-16.667 0 -25 4.33301 -25 13c0 9.33301 5.66699 14 17 14c13.333 0 34.833 -0.666992 64.5 -2
s45.5 -2 47.5 -2c12.667 0 34.334 0.666992 65.001 2s47 2 49 2c11.333 0 17 -4.66699 17 -14c0 -5.33301 -2.5 -8.83301 -7.5 -10.5s-11.167 -2.5 -18.5 -2.5c-28.667 0 -46.667 -4 -54 -12s-11 -24 -11 -48v-22v-410c0 -36.667 2 -58.334 6 -65.001
c7.33301 -12 27 -18 59 -18c8 0 14.333 -0.666992 19 -2s7 -4.66602 7 -9.99902c0 -8.66699 -5.66699 -13 -17 -13c-13.333 0 -34.833 0.666992 -64.5 2s-45.5 2 -47.5 2c-12.667 -0 -34.334 -0.666992 -65.001 -2s-47 -2 -49 -2c-11.333 0 -17 4.33301 -17 13
c0 6 2.16699 9.5 6.5 10.5s10.5 1.5 18.5 1.5c38 0 59 9.33301 63 28c1.33301 6 2 24.333 2 55v179c0 18.667 -1.5 29.5 -4.5 32.5s-13.167 4.5 -30.5 4.5h-277c-18 0 -28.833 -1.83301 -32.5 -5.5s-5.5 -14.167 -5.5 -31.5z" />
    <glyph glyph-name="I" unicode="I" horiz-adv-x="320" 
d="M116 104v409.999v22c0 24.667 -3 40.334 -9 47.001c-8 8.66699 -26.667 13 -56 13c-16.667 0 -25 4.33301 -25 13c0 9.33301 5.66699 14 17 14c13.333 0 34.833 -0.666992 64.5 -2s45.5 -2 47.5 -2c12.667 0 34.334 0.666992 65.001 2s47 2 49 2
c11.333 0 17 -4.66699 17 -14c0 -5.33301 -2.5 -8.83301 -7.5 -10.5s-11.167 -2.5 -18.5 -2.5c-28.667 0 -46.667 -4 -54 -12s-11 -24 -11 -48v-22v-410c0 -36.667 2 -58.334 6 -65.001c7.33301 -12 27 -18 59 -18c8 0 14.333 -0.666992 19 -2s7 -4.66602 7 -9.99902
c0 -8.66699 -5.66699 -13 -17 -13c-13.333 0 -34.833 0.666992 -64.5 2s-45.5 2 -47.5 2c-12.667 -0 -34.334 -0.666992 -65.001 -2s-47 -2 -49 -2c-11.333 0 -17 4.33301 -17 13c0 6 2.16699 9.5 6.5 10.5s10.5 1.5 18.5 1.5c38 0 59 9.33301 63 28
c1.33301 6 2 24.333 2 55z" />
    <glyph glyph-name="J" unicode="J" horiz-adv-x="320" 
d="M210 514l-0.00195312 -396c0 -52.667 -3 -90.667 -9 -114c-8 -32.667 -26 -66.667 -54 -102c-20 -24.667 -45 -46.667 -75 -66c-34.667 -22.667 -65.667 -34 -93 -34c-18 0 -34.5 4.66699 -49.5 14s-22.5 22.666 -22.5 39.999c0 11.333 4.5 21.166 13.5 29.499
s19.5 12.5 31.5 12.5c10 0 18.5 -2.66699 25.5 -8s13.833 -12.666 20.5 -21.999s11 -15 13 -17c6 -5.33301 12.667 -8 20 -8c12 0 24.333 4.5 37 13.5s23.334 19.5 32.001 31.5c14.667 19.333 24 48 28 86c2 17.333 3 48.333 3 93v447v22c0 24.667 -3 40.334 -9 47.001
c-8 8.66699 -26.667 13 -56 13c-16.667 0 -25 4.33301 -25 13c0 9.33301 5.66699 14 17 14c13.333 0 34.833 -0.666992 64.5 -2s45.5 -2 47.5 -2c12.667 0 34.334 0.666992 65.001 2s47 2 49 2c11.333 0 17 -4.66699 17 -14c0 -5.33301 -2.5 -8.83301 -7.5 -10.5
s-11.167 -2.5 -18.5 -2.5c-28.667 0 -46.667 -4 -54 -12s-11 -24 -11 -48v-22z" />
    <glyph glyph-name="K" unicode="K" horiz-adv-x="660" 
d="M116 104l-0.000976562 409.998v22c0 24.667 -3 40.334 -9 47.001c-8 8.66699 -26.667 13 -56 13c-16.667 0 -25 4.33301 -25 13c0 9.33301 5.66699 14 17 14c13.333 0 34.833 -0.666992 64.5 -2s45.5 -2 47.5 -2c12.667 0 34.334 0.666992 65.001 2s47 2 49 2
c11.333 0 17 -4.66699 17 -14c0 -5.33301 -2.5 -8.83301 -7.5 -10.5s-11.167 -2.5 -18.5 -2.5c-28.667 0 -46.667 -4 -54 -12s-11 -24 -11 -48v-22v-186c0 -10.667 2 -16 6 -16s7.66699 2.66699 11 8l188 189l28 30c14 16.667 21 28.334 21 35.001
c0 8.66699 -3 14.5 -9 17.5s-13.667 4.5 -23 4.5h-18c-8 2 -12 6.33301 -12 13c0 9.33301 5.66699 14 17 14c13.333 0 34.833 -0.666992 64.5 -2s45.5 -2 47.5 -2c11.333 0 28 0.666992 50 2s38.333 2 49 2c10 0 15 -4.33301 15 -13c0 -6 -3.16699 -9.83301 -9.5 -11.5
s-13.166 -2.5 -20.499 -2.5c-16.667 0 -29.334 -0.5 -38.001 -1.5s-19 -4.16699 -31 -9.5s-26.167 -14.333 -42.5 -27s-30.5 -25.334 -42.5 -38.001l-107 -108c-6 -5.33301 -11 -10 -15 -14c-6.66699 -7.33301 -10 -13 -10 -17c0 -2.66699 2.66699 -7.66699 8 -15
c1.33301 -2 5 -6.66699 11 -14l180 -227c15.333 -20 26.666 -34 33.999 -42c14.667 -17.333 27 -30.333 37 -39c17.333 -15.333 35.333 -23 54 -23c8 0 14.333 -0.666992 19 -2s7 -4.66602 7 -9.99902c0 -8.66699 -7.33301 -13 -22 -13c-14 0 -37.5 0.666992 -70.5 2
s-50.833 2 -53.5 2c-12 -0 -32.5 -0.666992 -61.5 -2s-44.167 -2 -45.5 -2c-14 0 -21 3.66699 -21 11c0 6 2.33301 9.5 7 10.5s11.667 1.5 21 1.5c16.667 0 27.334 0.666992 32.001 2c13.333 4 20 11.667 20 23c0 7.33301 -4.33301 17.333 -13 30
c-2 2.66699 -9.33301 11.667 -22 27l-156 199c-3.33301 4 -6.66602 8.33301 -9.99902 13c-6 6.66699 -10.667 10 -14 10s-8.66602 -3.66699 -15.999 -11l-15.5 -15c-5.66699 -5.33301 -11.834 -11.5 -18.501 -18.5s-10 -14.167 -10 -21.5v-153
c0 -36.667 2 -58.334 6 -65.001c7.33301 -12 27 -18 59 -18c8 0 14.333 -0.666992 19 -2s7 -4.66602 7 -9.99902c0 -8.66699 -5.66699 -13 -17 -13c-13.333 0 -34.833 0.666992 -64.5 2s-45.5 2 -47.5 2c-12.667 -0 -34.334 -0.666992 -65.001 -2s-47 -2 -49 -2
c-11.333 0 -17 4.33301 -17 13c0 6 2.16699 9.5 6.5 10.5s10.5 1.5 18.5 1.5c38 0 59 9.33301 63 28c1.33301 6 2 24.333 2 55z" />
    <glyph glyph-name="L" unicode="L" horiz-adv-x="480" 
d="M194 514v-379.002c0 -43.333 4 -71.333 12 -84c12 -18.667 38.667 -28 80 -28c21.333 0 41.5 2.5 60.5 7.5s35.5 13.5 49.5 25.5c10 8 20 20.667 30 38c8 13.333 15.333 28.333 22 45c3.33301 8.66699 7.33301 13 12 13c6 0 9 -4.66699 9 -14
c0 -10 -1.83301 -27.833 -5.5 -53.5s-5.5 -42.5 -5.5 -50.5c0 -16.667 -1 -27.167 -3 -31.5s-9.66699 -6.5 -23 -6.5c-33.333 0 -88.833 0.666992 -166.5 2s-118.834 2 -123.501 2c-11.333 0 -28 -0.666992 -50 -2s-38.667 -2 -50 -2s-17 4.66699 -17 14
c0 8.66699 8.66699 13 26 13c32 0 51.333 5.66699 58 17c4 6.66699 6 28.334 6 65.001v409v22c0 24.667 -3 40.334 -9 47.001c-8 8.66699 -26.667 13 -56 13c-16.667 0 -25 4.33301 -25 13c0 9.33301 5.66699 14 17 14c13.333 0 34.833 -0.666992 64.5 -2s45.5 -2 47.5 -2
c12.667 0 34.334 0.666992 65.001 2s47 2 49 2c11.333 0 17 -4.66699 17 -14c0 -5.33301 -2.5 -8.83301 -7.5 -10.5s-11.167 -2.5 -18.5 -2.5c-28.667 0 -46.667 -4 -54 -12s-11 -24 -11 -48v-22z" />
    <glyph glyph-name="M" unicode="M" horiz-adv-x="800" 
d="M219 594l181.999 -456l206 472c4 8.66699 13 13 27 13h111c6 0.666992 10.667 1 14 1c10 0 15 -4 15 -12c0 -5.33301 -1.66699 -9.33301 -5 -12s-9.66602 -4 -18.999 -4h-17c-10.667 0 -17 -0.333008 -19 -1s-4.66699 -3 -8 -7s-5.66602 -10.167 -6.99902 -18.5
s-2 -16.833 -2 -25.5c0.666992 -13.333 1 -22.333 1 -27v-413c0 -25.333 0.5 -41.833 1.5 -49.5s4 -14.334 9 -20.001s10.5 -9.33398 16.5 -11.001s13.667 -2.5 23 -2.5h19c8 -1.33301 12 -5.66602 12 -12.999c0 -8 -6.33301 -12 -19 -12
c-11.333 0 -29.833 0.666992 -55.5 2s-39.167 2 -40.5 2c-14 0 -37 -0.666992 -69 -2s-48.667 -2 -50 -2c-12.667 0 -19 4 -19 12c0 6.66699 2.66699 10.5 8 11.5s13 1.5 23 1.5c9.33301 0 18 1.16699 26 3.5s15.333 6.16602 22 11.499s10.667 13.333 12 24
s2 25.334 2 44.001v453h-7l-222 -520c-2.66699 -6 -4.33398 -9.66699 -5.00098 -11c-2.66699 -4.66699 -6 -7 -10 -7c-6.66699 0 -11.667 6.33301 -15 19l-197 507h-7l-29 -412c0 -42 2 -68.333 6 -79c8 -22 28 -33 60 -33c10 0 17.667 -0.666992 23 -2s8 -5 8 -11
c0 -8 -7.33301 -12 -22 -12c-10 0 -25 0.666992 -45 2s-35 2 -45 2s-27 -0.666992 -51 -2s-36.667 -2 -38 -2c-10.667 0 -16 4 -16 12c0 5.33301 2.5 8.83301 7.5 10.5s11.167 2.5 18.5 2.5c26 0 43.333 6.33301 52 19c6.66699 10 10 28.667 10 56l31 443
c0 26.667 -2 42.334 -6 47.001c-6 6.66699 -22 10 -48 10c-6.66699 0 -12.334 1 -17.001 3s-7 6.33301 -7 13c0 8 5 12 15 12c6.66699 -0.666992 11.334 -1 14.001 -1h116c8.66699 0 14.667 -2.66699 18 -8z" />
    <glyph glyph-name="N" unicode="N" horiz-adv-x="700" 
d="M569 129l-0.00390625 384v22c0 24.667 -3.66699 41 -11 49s-25.666 12 -54.999 12c-16.667 0 -25 3.66699 -25 11c0 10.667 6 16 18 16c10 0 26.667 -0.666992 50 -2s36 -2 38 -2c10.667 0 27.5 0.666992 50.5 2s35.167 2 36.5 2c11.333 0 17 -5.33301 17 -16
c0 -4 -1.83301 -6.83301 -5.5 -8.5s-10.5 -2.5 -20.5 -2.5c-31.333 0 -50.666 -6 -57.999 -18c-4.66699 -8 -7 -29.667 -7 -65v-508c0 -12.667 -2.33301 -19 -7 -19s-9.66699 3 -15 9l-10 15l-420 546v-452c0 -36.667 2 -58.334 6 -65.001
c6.66699 -12 26.334 -18 59.001 -18c16.667 0 25 -3.33301 25 -10c0 -10 -5.66699 -15 -17 -15c-10 0 -26.667 0.666992 -50 2s-36 2 -38 2c-9.33301 0 -23.666 -0.666992 -42.999 -2s-34 -2 -44 -2c-12 0 -18 5 -18 15c0 6.66699 5.33301 10 16 10h10
c38 0 59 9.33301 63 28c1.33301 6 2 24.333 2 55v409v22c0 25.333 -3 41.333 -9 48c-8 8.66699 -26.667 13 -56 13c-16.667 0 -25 3.66699 -25 11c0 6 2.5 10.167 7.5 12.5s10.5 3.5 16.5 3.5h124c9.33301 -2 17.333 -6.33301 24 -13
c1.33301 -1.33301 7 -8.66602 17 -21.999z" />
    <glyph glyph-name="O" unicode="O" horiz-adv-x="780" 
d="M38 314c0 89.333 35.165 165.833 105.498 229.5s151.5 95.5 243.5 95.5c96.667 0 178.834 -30.5 246.501 -91.5s101.5 -138.833 101.5 -233.5s-33.667 -172.667 -101 -234s-149.666 -92 -246.999 -92c-92 0 -172.667 31.333 -242 94c-71.333 64.667 -107 142 -107 232z
M643.998 314c0 40.667 -5.00098 77.999 -15.001 111.999s-27.167 65.667 -51.5 95s-52.5 51.833 -84.5 67.5s-66.667 23.5 -104 23.5c-39.333 0 -76.166 -8 -110.499 -24s-63 -38.5 -86 -67.5s-39.5 -60.833 -49.5 -95.5s-15 -71.667 -15 -111
c0 -40 5.16699 -77.833 15.5 -113.5s27.5 -67.667 51.5 -96s52.833 -50.166 86.5 -65.499s69.5 -23 107.5 -23c37.333 0 72.833 8.5 106.5 25.5s62 40 85 69s39.333 60.5 49 94.5s14.5 70.333 14.5 109z" />
    <glyph glyph-name="P" unicode="P" 
d="M114 104l-0.00195312 410v22c0 24.667 -3 40.334 -9 47.001c-8 8.66699 -26.333 13 -55 13c-16.667 0 -25 4.33301 -25 13c0 9.33301 5.66699 14 17 14c12 0 29.667 -0.666992 53 -2s41 -2 53 -2c18.667 0 49.334 0.666992 92.001 2s65 2 67 2
c28.667 0 53.334 -2.33301 74.001 -7s41.334 -14 62.001 -28s37.667 -33.5 51 -58.5s20 -50.833 20 -77.5c0 -52.667 -19 -96.334 -57 -131.001s-83.667 -52 -137 -52c-12.667 0 -26.334 2.33301 -41.001 7l-48 16l-12 3.5c-3.33301 1 -6.66602 1.5 -9.99902 1.5
c-8.66699 0 -13.5 -3.33301 -14.5 -10s-1.5 -12.667 -1.5 -18v-165c0 -36.667 2 -58.334 6 -65.001c7.33301 -12 27 -18 59 -18c8 0 14.333 -0.666992 19 -2s7 -4.66602 7 -9.99902c0 -8.66699 -5.66699 -13 -17 -13c-13.333 0 -34.833 0.666992 -64.5 2s-45.5 2 -47.5 2
c-12.667 -0 -34.334 -0.666992 -65.001 -2s-47 -2 -49 -2c-11.333 0 -17 4.33301 -17 13c0 6 2.16699 9.5 6.5 10.5s10.5 1.5 18.5 1.5c38 0 59 9.33301 63 28c1.33301 6 2 24.333 2 55zM192.998 519v-148.002c-0.666992 -8.66699 -1 -15.334 -1 -20.001
c0 -7.33301 1.16699 -13.666 3.5 -18.999s7.33301 -10.333 15 -15s20 -9 37 -13s30.833 -6 41.5 -6c40.667 0 74.5 14.833 101.5 44.5s40.5 64.834 40.5 105.501c0 24.667 -4.16699 47.334 -12.5 68.001s-21.5 38.667 -39.5 54c-14 12.667 -30.667 21.667 -50 27
s-40.666 8 -63.999 8c-32.667 0 -52.834 -5.66699 -60.501 -17s-11.5 -34.333 -11.5 -69z" />
    <glyph glyph-name="Q" unicode="Q" horiz-adv-x="780" 
d="M338 -16c-86 16.667 -156.333 52.998 -211 108.998c-59.333 60.667 -89 132.667 -89 216c0 94 35.333 172.5 106 235.5s153.667 94.5 249 94.5c96 0 177.333 -31.667 244 -95s100 -142.333 100 -237c0 -79.333 -27.667 -149 -83 -209s-123 -96.667 -203 -110
c-11.333 -2 -17.333 -3 -18 -3c-6 -2.66699 -9 -8 -9 -16c0 -13.333 6 -28.333 18 -45c10 -14 21.333 -26 34 -36c20.667 -16.667 44.5 -30 71.5 -40s53.833 -15 80.5 -15c12 0 25.667 1 41 3s28 5 38 9c2.66699 1.33301 5.83398 2.83301 9.50098 4.5s6.5 2.5 8.5 2.5
c7.33301 0 11 -4 11 -12c0 -13.333 -20.333 -24.333 -61 -33c-30 -6.66699 -55 -10 -75 -10c-28 0 -57.667 3.83301 -89 11.5s-59.333 18.334 -84 32.001s-45.334 29.834 -62.001 48.501c-21.333 23.333 -32 47 -32 71c0 7.33301 1.66699 15.333 5 24zM389 8.99805
c39.333 0 74.999 8.49902 106.999 25.499s60.667 41.833 86 74.5c22.667 29.333 38.834 60.5 48.501 93.5s14.5 69.167 14.5 108.5s-5.16699 76.333 -15.5 111s-27.166 66.667 -50.499 96c-50.667 62.667 -115.667 94 -195 94c-37.333 0 -72.333 -7.83301 -105 -23.5
s-61.334 -38.5 -86.001 -68.5c-22 -26.667 -38.167 -57 -48.5 -91s-15.5 -69.667 -15.5 -107c0 -79.333 22.667 -149.666 68 -210.999c50 -68 114 -102 192 -102z" />
    <glyph glyph-name="R" unicode="R" horiz-adv-x="580" 
d="M116 104l-0.000976562 409.001v22c0 25.333 -3 41.333 -9 48c-8 8.66699 -26.667 13 -56 13c-16.667 0 -25 4 -25 12c0 10 6 15 18 15c10.667 0 29.167 -0.666992 55.5 -2s40.5 -2 42.5 -2c20 0 52.833 0.666992 98.5 2s69.834 2 72.501 2c52.667 0 96 -12 130 -36
c39.333 -27.333 59 -66 59 -116c0 -42.667 -16 -78.334 -48 -107.001c-29.333 -26 -66 -42 -110 -48c14 -2 26.333 -10.333 37 -25c4.66699 -6 12.667 -19.667 24 -41l81 -156c14.667 -28.667 24 -45.334 28 -50.001c12.667 -15.333 29 -23 49 -23
c8.66699 0 15.167 -0.666992 19.5 -2s6.5 -5.33301 6.5 -12c0 -7.33301 -6 -11 -18 -11h-106c-8.66699 0 -15.667 3.66699 -21 11c-2 2 -6.33301 9.66699 -13 23l-98 195c-19.333 37.333 -32.666 59 -39.999 65c-11.333 8.66699 -35 13 -71 13
c-12 0 -19.333 -1.66699 -22 -5s-4.16699 -10.166 -4.5 -20.499s-0.5 -16.833 -0.5 -19.5v-154c0 -36.667 2 -58.334 6 -65.001c7.33301 -12 27 -18 59 -18c8 0 14.333 -0.666992 19 -2s7 -4.66602 7 -9.99902c0 -8.66699 -5.66699 -13 -17 -13
c-13.333 0 -34.833 0.666992 -64.5 2s-45.5 2 -47.5 2c-12.667 -0 -34.334 -0.666992 -65.001 -2s-47 -2 -49 -2c-11.333 0 -17 4.33301 -17 13c0 6 2.16699 9.5 6.5 10.5s10.5 1.5 18.5 1.5c38 0 59 9.33301 63 28c1.33301 6 2 24.333 2 55zM194.999 522.001
l-0.00292969 -179.001c0 -6.66699 2.83301 -11.5 8.5 -14.5s12.834 -4.5 21.501 -4.5c10 0.666992 17 1 21 1c28 0 51.333 2 70 6s36.334 12.5 53.001 25.5s28.834 28.333 36.501 46s11.5 36.834 11.5 57.501c0 45.333 -12.667 80.333 -38 105s-60.666 37 -105.999 37
c-36.667 0 -58.834 -4.16699 -66.501 -12.5s-11.5 -30.833 -11.5 -67.5z" />
    <glyph glyph-name="S" unicode="S" horiz-adv-x="480" 
d="M249 286l-51.002 21.999c-46 20 -79.333 39.667 -100 59c-30 28 -45 62.333 -45 103c0 50.667 19.167 91.5 57.5 122.5s83.5 46.5 135.5 46.5c22 0 45.167 -1.83301 69.5 -5.5s45.833 -9.16699 64.5 -16.5c8.66699 -3.33301 13.834 -7.5 15.501 -12.5
s2.5 -13.167 2.5 -24.5l4 -78c0 -8 -3.66699 -12 -11 -12c-4.66699 0 -8.33398 3.33301 -11.001 10s-4.33398 11 -5.00098 13c-12 36.667 -26.667 63 -44 79c-20 18 -48.667 27 -86 27c-35.333 0 -65.666 -9.16699 -90.999 -27.5s-38 -44.833 -38 -79.5
c0 -36.667 21 -68.667 63 -96c14.667 -9.33301 52 -27 112 -53c20.667 -9.33301 38.334 -18.333 53.001 -27c20 -11.333 35.333 -23 46 -35c14.667 -16.667 26.334 -35.167 35.001 -55.5s13 -41.5 13 -63.5c0 -27.333 -6.33301 -53.333 -19 -78s-29.834 -46 -51.501 -64
s-46 -31.167 -73 -39.5s-55.833 -12.5 -86.5 -12.5c-25.333 0 -51.666 3.5 -78.999 10.5s-51.333 16.5 -72 28.5c-6 4 -9.83301 9.16699 -11.5 15.5s-2.5 14.833 -2.5 25.5v15v37c0 12 0.666992 23.333 2 34s3.33301 17.667 6 21s6 5 10 5c6 0 9.66699 -3.66699 11 -11
s2.33301 -14.666 3 -21.999c5.33301 -44 20 -78.333 44 -103s58.333 -37 103 -37c40 0 74.833 12 104.5 36s44.5 55.333 44.5 94c0 37.333 -11.667 68.333 -35 93c-18.667 20 -47.667 38.667 -87 56z" />
    <glyph glyph-name="T" unicode="T" horiz-adv-x="580" 
d="M331 547l0.00683594 -443c0 -36.667 2 -58.334 6 -65.001c7.33301 -12 27 -18 59 -18c8 0 14.333 -0.666992 19 -2s7 -4.66602 7 -9.99902c0 -8.66699 -5.66699 -13 -17 -13c-13.333 0 -34.833 0.666992 -64.5 2s-45.5 2 -47.5 2
c-12.667 -0 -34.334 -0.666992 -65.001 -2s-47 -2 -49 -2c-11.333 0 -17 4.33301 -17 13c0 6 2.16699 9.5 6.5 10.5s10.5 1.5 18.5 1.5c38 0 59 9.33301 63 28c1.33301 6 2 24.333 2 55v463c0 12.667 -1.5 20.834 -4.5 24.501s-9.16699 5.5 -18.5 5.5
c-8.66699 -0.666992 -15.667 -1 -21 -1c-48.667 0 -84.334 -5.16699 -107.001 -15.5s-45.667 -34.833 -69 -73.5c-2.66699 -4.66699 -5.83398 -9.83398 -9.50098 -15.501s-7.83398 -8.5 -12.501 -8.5c-6.66699 0 -10 4 -10 12c0 6 2 14 6 24l39 130
c2.66699 9.33301 7 14 13 14s9 -3.66699 9 -11c1.33301 -10.667 3.66602 -17.5 6.99902 -20.5s8.16602 -5.16699 14.499 -6.5s12.166 -2 17.499 -2h19h363h19c12 0 21.167 1.33301 27.5 4s11.333 9.33398 15 20.001s8.5 16 14.5 16c4 0 6.66699 -3 8 -9s2 -9.66699 2 -11
c-0.666992 -8.66699 -1 -14 -1 -16l-6 -122c0 -11.333 -4 -17 -12 -17c-4 0 -7.83301 5.16699 -11.5 15.5s-7.16699 21.166 -10.5 32.499c-5.33301 14 -11.333 25.333 -18 34c-10 12 -20.667 19.333 -32 22s-27.666 4 -48.999 4h-58
c-22.667 0 -35.834 -1.83301 -39.501 -5.5s-5.5 -18.167 -5.5 -43.5z" />
    <glyph glyph-name="U" unicode="U" horiz-adv-x="700" 
d="M577 200l-0.00292969 273.997c0 22.667 -0.5 42.667 -1.5 60s-4.16699 30.666 -9.5 39.999s-12.833 15.333 -22.5 18s-22.167 4 -37.5 4c-8.66699 0 -15.334 0.666992 -20.001 2s-7 5 -7 11c0 9.33301 7 14 21 14c10 0 25 -0.666992 45 -2s35 -2 45 -2
c8.66699 0 23.5 0.666992 44.5 2s32.167 2 33.5 2c14 0 21 -4.33301 21 -13c0 -6 -3.33301 -9.83301 -10 -11.5s-14 -2.5 -22 -2.5c-22 0 -36.167 -5.16699 -42.5 -15.5s-9.5 -26.5 -9.5 -48.5v-20v-312c0 -50 -4.16699 -84.667 -12.5 -104s-23.166 -38.166 -44.499 -56.499
s-48.666 -31.5 -81.999 -39.5s-68 -12 -104 -12s-68 3 -96 9c-37.333 8 -67.333 20.333 -90 37c-26.667 18.667 -44 43.334 -52 74.001c-4.66699 18 -7 48.667 -7 92v314v22c0 24.667 -3 40.334 -9 47.001c-8 8.66699 -26.667 13 -56 13c-16.667 0 -25 4.33301 -25 13
c0 9.33301 5.66699 14 17 14c13.333 0 34.833 -0.666992 64.5 -2s45.5 -2 47.5 -2c12.667 0 34.334 0.666992 65.001 2s47 2 49 2c11.333 0 17 -4.66699 17 -14c0 -5.33301 -2.5 -8.83301 -7.5 -10.5s-11.167 -2.5 -18.5 -2.5c-28.667 0 -46.667 -4 -54 -12s-11 -24 -11 -48
v-22v-282c0 -44.667 0.833008 -77.167 2.5 -97.5s7.83398 -39.166 18.501 -56.499c14 -22.667 38 -39.667 72 -51c28 -9.33301 58 -14 90 -14c33.333 0 63.666 4 90.999 12s51 22 71 42c16.667 17.333 27.334 38 32.001 62c2.66699 13.333 4 37 4 71z" />
    <glyph glyph-name="V" unicode="V" horiz-adv-x="640" 
d="M354 115l164.003 402l9 26.5c3.33301 9.66699 5 17.834 5 24.501c0 10 -4.33301 17.167 -13 21.5s-18.334 6.5 -29.001 6.5h-25c-12.667 1.33301 -19 5.33301 -19 12c0 10 7.33301 15 22 15c9.33301 0 23.666 -0.666992 42.999 -2s33.666 -2 42.999 -2
s25.333 0.666992 48 2s34.667 2 36 2c9.33301 0 14 -4.33301 14 -13c0 -4 -2 -7.33301 -6 -10s-10 -4 -18 -4c-9.33301 0 -16.833 -0.833008 -22.5 -2.5s-12.167 -5.66699 -19.5 -12s-14 -15 -20 -26s-11.667 -23.833 -17 -38.5l-205 -501
c-2 -5.33301 -3.66699 -10.666 -5 -15.999c-3.33301 -8 -7 -12 -11 -12s-7.5 3.16699 -10.5 9.5s-5.5 12.5 -7.5 18.5l-215 513c-12 28.667 -23 47 -33 55s-23.333 12 -40 12c-18 0 -27 5 -27 15c0 6 2.5 9.5 7.5 10.5s9.5 1.5 13.5 1.5c12 0 29.667 -0.666992 53 -2
s41 -2 53 -2c10 0 25 0.666992 45 2s35.333 2 46 2c12.667 0 19 -4 19 -12c0 -7.33301 -6.33301 -11.833 -19 -13.5s-24.667 -2.83398 -36 -3.50098c-10 -2.66699 -15 -7.33398 -15 -14.001c0 -7.33301 1.83301 -14.833 5.5 -22.5s6.16699 -13.5 7.5 -17.5z" />
    <glyph glyph-name="W" unicode="W" horiz-adv-x="920" 
d="M481 261l-118.003 -251c-3.33301 -9.33301 -5.66602 -14.666 -6.99902 -15.999c-3.33301 -4 -7 -6 -11 -6s-7.66699 3.16699 -11 9.5s-5.33301 10.5 -6 12.5l-236 508l-14 31c-7.33301 16 -13.666 26.833 -18.999 32.5s-11.166 9.5 -17.499 11.5s-14.166 3 -23.499 3
c-16 0 -24 5 -24 15c0 8 5.33301 12 16 12s26.667 -0.666992 48 -2s38 -2 50 -2c11.333 0 29.833 0.666992 55.5 2s39.167 2 40.5 2c12 0 18 -4.66699 18 -14c0 -6 -1.83301 -9.66699 -5.5 -11s-9.83398 -2 -18.501 -2c-11.333 0 -20.666 -1.33301 -27.999 -4
s-11 -8.66699 -11 -18c0 -7.33301 2.16699 -16 6.5 -26s7.5 -17 9.5 -21l199 -429l73 156c2.66699 6 5.33398 12.5 8.00098 19.5s4 13.5 4 19.5c0 8 -3.33301 20 -10 36c-5.33301 10.667 -8.66602 18 -9.99902 22l-83 179c-12 25.333 -19 39.333 -21 42
c-10.667 16 -23.334 24 -38.001 24h-12c-12 0 -18 4.33301 -18 13c0 9.33301 5 14 15 14c10.667 0 29.167 -0.666992 55.5 -2s40.5 -2 42.5 -2c11.333 0 29.833 0.666992 55.5 2s39.167 2 40.5 2c11.333 0 17 -5 17 -15c0 -6 -2.83301 -9.5 -8.5 -10.5
s-13.167 -1.5 -22.5 -1.5c-10 0 -18 -1.66699 -24 -5s-9 -9.33301 -9 -18c0 -4.66699 1.83301 -11.667 5.5 -21l10.5 -26l64 -140l66 141c2 5.33301 5.33301 13.666 10 24.999s7 19.333 7 24c0 6 -3.16699 10.833 -9.5 14.5s-12.833 5.5 -19.5 5.5c-18.667 0 -28 4 -28 12
c0 10 6.33301 15 19 15c8 0 20 -0.666992 36 -2s28 -2 36 -2s20 0.666992 36 2s28 2 36 2c8.66699 0 13 -4.33301 13 -13c0 -6.66699 -2.33301 -10.667 -7 -12s-12 -2 -22 -2c-21.333 0 -39 -9 -53 -27c-6 -8 -15.667 -26.667 -29 -56l-46 -96
c-10.667 -22 -16.667 -35.333 -18 -40c-3.33301 -9.33301 -5 -17.333 -5 -24c0 -6 1 -12 3 -18s7.33301 -18 16 -36l85 -192l170 411c3.33301 7.33301 6.66602 16.333 9.99902 27s5 19 5 25c0 12 -4.5 19.333 -13.5 22s-21.167 4 -36.5 4c-11.333 0 -17 4.66699 -17 14
c0 8.66699 5.66699 13 17 13c8 0 22 -0.666992 42 -2s30.667 -2 32 -2c8 0 20 0.666992 36 2s28.333 2 37 2c11.333 0 17 -5 17 -15c0 -8 -9 -12 -27 -12c-7.33301 0 -13.5 -0.666992 -18.5 -2s-10.833 -5.66602 -17.5 -12.999s-13 -17.333 -19 -30
s-11.667 -25.334 -17 -38.001l-208 -502c-1.33301 -4 -3 -8.16699 -5 -12.5s-5.33301 -6.5 -10 -6.5s-9.33398 4.5 -14.001 13.5l-9 17.5z" />
    <glyph glyph-name="X" unicode="X" horiz-adv-x="640" 
d="M309 280l-121.005 -164.998c-7.33301 -10 -15 -21.667 -23 -35c-10.667 -18 -16 -30.333 -16 -37c0 -8 3.16699 -13.667 9.5 -17s14.5 -5 24.5 -5h21c12 0 21 -0.833008 27 -2.5s9 -5.83398 9 -12.501s-8 -10 -24 -10c-11.333 0 -30.666 0.666992 -57.999 2
s-41.333 2 -42 2c-12 0 -31.5 -0.666992 -58.5 -2s-41.833 -2 -44.5 -2h-13c-4 1.33301 -6 4.66602 -6 9.99902c0 7.33301 3.33301 11.666 10 12.999s11.334 2 14.001 2h13c9.33301 0 16.333 0.333008 21 1s10.667 3 18 7c13.333 7.33301 32 25.666 56 54.999
c12 14.667 21.667 27 29 37l114 151c2.66699 3.33301 6.16699 8.33301 10.5 15s6.5 12 6.5 16c0 6 -2.5 12.667 -7.5 20s-8.83301 12.666 -11.5 15.999l-118 161l-33 44c-15.333 19.333 -27 32 -35 38s-15.667 9.83301 -23 11.5s-17.333 2.5 -30 2.5
c-10 0 -18 0.666992 -24 2s-9 5.33301 -9 12c0 8.66699 7 13 21 13c11.333 0 29.833 -0.666992 55.5 -2s39.167 -2 40.5 -2c18 0 47.5 0.666992 88.5 2s62.833 2 65.5 2c10 0 15 -4.33301 15 -13c0 -6 -2.66699 -9.83301 -8 -11.5s-11.666 -2.5 -18.999 -2.5h-18
c-12 0 -21.667 -1.16699 -29 -3.5s-11 -8.16602 -11 -17.499c0 -5.33301 2.66699 -12 8 -20c2.66699 -4 7.33398 -10.333 14.001 -19l122 -168l102 139c8.66699 12 15.667 22.333 21 31c8.66699 14.667 13 26.667 13 36c0 10.667 -4.16699 17 -12.5 19s-19.833 3 -34.5 3
c-10 0 -17.833 0.666992 -23.5 2s-8.5 5.33301 -8.5 12c0 8.66699 7 13 21 13s38.167 -0.666992 72.5 -2s52.833 -2 55.5 -2c10.667 0 27.5 0.666992 50.5 2s35.5 2 37.5 2c10.667 0 16 -5.33301 16 -16c0 -5.33301 -2.33301 -8.5 -7 -9.5s-11 -1.5 -19 -1.5
c-15.333 0 -29.166 -1.5 -41.499 -4.5s-24.166 -8.16699 -35.499 -15.5c-14.667 -10 -33.667 -28.667 -57 -56c-18.667 -22 -36 -43.667 -52 -65l-57 -78c-5.33301 -6.66699 -9 -11.667 -11 -15c-4.66699 -7.33301 -7 -13.333 -7 -18c0 -5.33301 2.33301 -11.166 7 -17.499
l10 -13.5l183 -252c11.333 -15.333 21 -25.833 29 -31.5s19.333 -8.5 34 -8.5c7.33301 0 13.5 -1 18.5 -3s7.5 -6 7.5 -12c0 -4.66699 -1 -7.5 -3 -8.5s-8.33301 -1.5 -19 -1.5c-14 0 -37.5 0.666992 -70.5 2s-50.833 2 -53.5 2c-11.333 0 -29.833 -0.666992 -55.5 -2
s-39.167 -2 -40.5 -2c-13.333 0 -20 3.66699 -20 11c0 9.33301 8.66699 14 26 14c8.66699 -0.666992 15.667 -1 21 -1c11.333 0 20.166 1.33301 26.499 4s9.5 8.33398 9.5 17.001c0 6.66699 -3.66699 15.667 -11 27c-4 6.66699 -10 14.667 -18 24z" />
    <glyph glyph-name="Y" unicode="Y" horiz-adv-x="660" 
d="M360 303l137.001 209.004c10.667 16 18 28.5 22 37.5s6 16.167 6 21.5c0 10 -4.16699 16.667 -12.5 20s-18.5 5 -30.5 5h-13c-10 0 -17.167 0.5 -21.5 1.5s-6.5 3.83301 -6.5 8.5c0 5.33301 2.5 9.5 7.5 12.5s10.167 4.5 15.5 4.5c10 0 25.333 -0.666992 46 -2
s36 -2 46 -2s25 0.666992 45 2s35.333 2 46 2c14 0 21 -5 21 -15c0 -6 -2.66699 -9.5 -8 -10.5s-12.333 -1.5 -21 -1.5c-25.333 0 -49 -11.667 -71 -35c-7.33301 -8 -24 -30.667 -50 -68l-123 -184c-8.66699 -14 -15.334 -25.5 -20.001 -34.5s-7 -22.833 -7 -41.5v-17v-112
c0 -36.667 2 -58.334 6 -65.001c7.33301 -12 27 -18 59 -18c8 0 14.333 -0.666992 19 -2s7 -4.66602 7 -9.99902c0 -8.66699 -5.66699 -13 -17 -13c-13.333 0 -34.833 0.666992 -64.5 2s-45.5 2 -47.5 2c-12.667 0 -34.334 -0.666992 -65.001 -2s-47 -2 -49 -2
c-11.333 0 -17 4.33301 -17 13c0 6 2.16699 9.5 6.5 10.5s10.5 1.5 18.5 1.5c38 0 59 9.33301 63 28c1.33301 6 2 24.333 2 55v126c0 21.333 -1.16699 35.666 -3.5 42.999s-10.166 20.666 -23.499 39.999l-137 203l-30 45c-18.667 23.333 -43 35 -73 35
c-18.667 0 -28 4.33301 -28 13c0 9.33301 6.66699 14 20 14c10 0 25 -0.666992 45 -2s35 -2 45 -2c15.333 0 38.333 0.666992 69 2s53.667 2 69 2c12 0 18 -4 18 -12c0 -6.66699 -2.5 -10.834 -7.5 -12.501s-11.5 -2.5 -19.5 -2.5c-16.667 0 -29 -0.833008 -37 -2.5
s-12 -7.5 -12 -17.5c0 -6.66699 4.33301 -17 13 -31c6 -8.66699 9.66699 -14.334 11 -17.001z" />
    <glyph glyph-name="Z" unicode="Z" horiz-adv-x="600" 
d="M43 23l387.999 541.001c8 9.33301 12 17.333 12 24c0 4 -4.66699 6.66699 -14 8h-17h-153c-48.667 0 -85.667 -11 -111 -33l-57 -73c-6 0 -9 3.33301 -9 10c0 4 0.666992 8.33301 2 13l4 14l29 108c1.33301 6 3 12.5 5 19.5s6 10.5 12 10.5
c6.66699 0 11.334 -6 14.001 -18c1.33301 -10.667 4.5 -17.167 9.5 -19.5s11.833 -3.66602 20.5 -3.99902s16.667 -0.5 24 -0.5h332c4 0 8.5 -0.166992 13.5 -0.5s7.5 -2.83301 7.5 -7.5c0 -2.66699 -1.66699 -6.33398 -5 -11.001l-385 -539c-4 -6 -7 -10.333 -9 -13
c-4 -6 -6 -10.667 -6 -14c0 -6.66699 6.33301 -10 19 -10c8 0.666992 13 1 15 1h190c51.333 0 88.333 6.66699 111 20c29.333 17.333 46.666 49.333 51.999 96c2 16 6.33301 24 13 24c7.33301 0 11 -5.33301 11 -16c-0.666992 -8 -1 -13.333 -1 -16v-80v-28
c0 -13.333 -2.16699 -21.5 -6.5 -24.5s-16.166 -4.5 -35.499 -4.5h-445c-5.33301 -0.666992 -10 -1 -14 -1c-14.667 0 -22 3.66699 -22 11c0 3.33301 2 7.66602 6 12.999z" />
    <glyph glyph-name="bracketleft" unicode="[" horiz-adv-x="240" 
d="M56 -50l0.00195312 718.002c0 13.333 2.16699 22.166 6.5 26.499s12.833 6.5 25.5 6.5h121c12.667 0 19 -4.66699 19 -14c0 -8.66699 -6.66699 -13 -20 -13c-8 0.666992 -13.333 1 -16 1h-32c-8 0 -15.167 -0.5 -21.5 -1.5s-11 -3.33301 -14 -7
s-4.83301 -9.33398 -5.5 -17.001s-1 -16.167 -1 -25.5v-12v-604c0 -8.66699 0.166992 -18 0.5 -28s1.66602 -17.5 3.99902 -22.5s7.16602 -8 14.499 -9s15.666 -1.5 24.999 -1.5h26c6.66699 0.666992 12.334 1 17.001 1c15.333 0 23 -4.66699 23 -14
c0 -8.66699 -6.33301 -13 -19 -13h-121c-12 0 -20.333 1.83301 -25 5.5s-7 11.5 -7 23.5z" />
    <glyph glyph-name="backslash" unicode="\" horiz-adv-x="520" 
d="M333 0l-262 701h60l260 -701h-58z" />
    <glyph glyph-name="bracketright" unicode="]" horiz-adv-x="240" 
d="M179 669l0.00195312 -717.999c0 -12 -2.16699 -19.833 -6.5 -23.5s-12.833 -5.5 -25.5 -5.5h-121c-12.667 0 -19 4.33301 -19 13c0 9.33301 8.33301 14 25 14c8 -0.666992 13 -1 15 -1h26h21c9.33301 1.33301 15.166 4.16602 17.499 8.49902s3.83301 12.333 4.5 24
s1 21.167 1 28.5v604v12c0 8.66699 -0.333008 17 -1 25s-2.33398 13.667 -5.00098 17s-7.5 5.5 -14.5 6.5s-14.5 1.5 -22.5 1.5h-31h-13c-15.333 0 -23 4.33301 -23 13s6.33301 13 19 13h121c13.333 0 22 -2 26 -6s6 -12.667 6 -26z" />
    <glyph glyph-name="asciicircum" unicode="^" 
d="M97 146h-54l215 472h49l217 -472h-54l-188 408z" />
    <glyph glyph-name="underscore" unicode="_" horiz-adv-x="500" 
d="M0 -87h500v-51h-500v51z" />
    <glyph glyph-name="grave" unicode="`" horiz-adv-x="360" 
d="M139 633l133.999 -99c3.33301 -2.66699 7 -5 11 -7c5.33301 -4 8 -8 8 -12c0 -5.33301 -2.33301 -8 -7 -8c-3.33301 0 -7.66602 1.16699 -12.999 3.5s-10.333 4.83301 -15 7.5l-145 72l-32 16c-12 8 -18 17.667 -18 29c0 7.33301 2.33301 13.333 7 18s10.667 7 18 7
c8.66699 0 18 -3 28 -9c6 -3.33301 14 -9.33301 24 -18z" />
    <glyph glyph-name="a" unicode="a" horiz-adv-x="480" 
d="M184 207l77.001 35.9961c18 8.66699 28.667 15.334 32 20.001s5 16.667 5 36v44c0 31.333 -2.66699 52.333 -8 63c-8.66699 18 -27.334 27 -56.001 27s-52.667 -7.66699 -72 -23c-16 -12.667 -30.333 -33 -43 -61c-6 -13.333 -9.33301 -20.333 -10 -21
c-4 -6.66699 -9.33301 -11.5 -16 -14.5s-14.5 -6 -23.5 -9s-16.167 -4.5 -21.5 -4.5c-8.66699 0 -13 4 -13 12c0 12 4.33301 24.667 13 38s18.334 24.333 29.001 33c23.333 20.667 51.166 37.334 83.499 50.001s64.166 19 95.499 19c18 0 35 -1.83301 51 -5.5
s29.333 -10.5 40 -20.5c8.66699 -7.33301 14.167 -14.666 16.5 -21.999s3.5 -17.666 3.5 -30.999v-20v-236c0 -29.333 2.66699 -50 8 -62s14.333 -18 27 -18c9.33301 0 18.833 4.16699 28.5 12.5s15.167 12.5 16.5 12.5c4.66699 0 7 -2.66699 7 -8
c0 -4.66699 -3 -10.334 -9 -17.001c-3.33301 -3.33301 -8.33301 -8 -15 -14c-13.333 -9.33301 -25.5 -16.5 -36.5 -21.5s-22.5 -7.5 -34.5 -7.5c-19.333 0 -35 11.667 -47 35s-19 35 -21 35c-21.333 -19.333 -46.5 -36.833 -75.5 -52.5s-57.5 -23.5 -85.5 -23.5
c-26 0 -48.167 7 -66.5 21s-27.5 33.333 -27.5 58c0 30.667 17.667 59.334 53 86.001c18.667 14 50.334 32 95.001 54zM280.001 232.996l-91 -46c-25.333 -12.667 -43.333 -24.667 -54 -36c-16 -16.667 -24 -36 -24 -58c0 -18.667 6.5 -33.167 19.5 -43.5
s29.5 -15.5 49.5 -15.5c17.333 0 34 3.5 50 10.5s29.833 16.5 41.5 28.5s19 23.167 22 33.5s4.5 24.5 4.5 42.5v60c0 4.66699 -0.166992 10.5 -0.5 17.5s-2.5 10.5 -6.5 10.5z" />
    <glyph glyph-name="b" unicode="b" 
d="M145 685l-0.00390625 -272.999c0 -8 2.66699 -12 8 -12c6 3.33301 10.333 5.66602 13 6.99902c36.667 18 65.334 30 86.001 36s39.667 9 57 9c63.333 0 116 -20.667 158 -62s63 -93.333 63 -156c0 -71.333 -26.167 -130.166 -78.5 -176.499
s-115.166 -69.5 -188.499 -69.5c-27.333 0 -52.666 4.33301 -75.999 13l-66 31c-5.33301 0 -9.5 -2.16699 -12.5 -6.5s-6 -9.83301 -9 -16.5l-8.5 -19c-4.66699 -7.33301 -9.66699 -11 -15 -11c-6.66699 0 -10 4 -10 12l5 26c2.66699 14 4.16699 27.333 4.5 40
s0.5 24 0.5 34v466v14.5c0 5 0.333008 10.167 1 15.5c0 17.333 -2 29.333 -6 36c-6 10 -17.333 15 -34 15h-16c-6.66699 1.33301 -10 4.66602 -10 9.99902c0 6 4.66699 9.66699 14 11c16.667 3.33301 32.834 7.33301 48.501 12s29.5 11 41.5 19
c9.33301 7.33301 16.333 11 21 11c6 0 9 -5.33301 9 -16zM144.996 323.001l-0.000976562 -206.999c0 -21.333 1 -37.5 3 -48.5s8.66699 -21.833 20 -32.5s25 -18.334 41 -23.001s34 -7 54 -7c58.667 0 105.667 21.667 141 65c33.333 40.667 50 91 50 151
c0 54 -15.667 99.667 -47 137c-34 40.667 -77.333 61 -130 61c-21.333 0 -41.833 -3.16699 -61.5 -9.5s-37.167 -15.833 -52.5 -28.5c-7.33301 -6.66699 -12.166 -13 -14.499 -19s-3.5 -13.333 -3.5 -22v-17z" />
    <glyph glyph-name="c" unicode="c" horiz-adv-x="460" 
d="M426 375c0.666992 -8 1.00195 -15 1.00195 -21c0 -10 -0.833008 -17.5 -2.5 -22.5s-5.16699 -7.5 -10.5 -7.5c-6.66699 0 -22.334 18.333 -47.001 55s-52.667 55 -84 55c-17.333 0 -35 -3.83301 -53 -11.5s-34 -17.5 -48 -29.5
c-22.667 -19.333 -40.334 -43.5 -53.001 -72.5s-19 -58.833 -19 -89.5c0 -53.333 17 -100.333 51 -141c36.667 -43.333 82 -65 136 -65c23.333 0 44.333 3.5 63 10.5s36 18.167 52 33.5c8 8 13 12 15 12c4.66699 0 7 -2.66699 7 -8c0 -4 -4 -10.333 -12 -19
c-5.33301 -6 -11.333 -11.667 -18 -17c-40.667 -32.667 -89 -49 -145 -49c-61.333 0 -114 22 -158 66s-66 96.333 -66 157c0 66.667 26.167 123.5 78.5 170.5s112.833 70.5 181.5 70.5c20.667 0 42.5 -2.83301 65.5 -8.5s42.167 -13.834 57.5 -24.501c6 -4 9 -12.333 9 -25
c-0.666992 -9.33301 -1 -15.666 -1 -18.999z" />
    <glyph glyph-name="d" unicode="d" 
d="M479 685l-0.00195312 -592.001v-15c0 -11.333 0.833008 -20.166 2.5 -26.499s5.83398 -9.5 12.501 -9.5c7.33301 0 14.833 3.66699 22.5 11l24.5 24c5.33301 0 7 -4 5 -12l-1 -13c0 -6 -0.833008 -9.66699 -2.5 -11s-6.5 -3.33301 -14.5 -6l-81 -31c-10 -6 -17 -9 -21 -9
c-3.33301 0 -6 2.5 -8 7.5s-3 11.833 -3 20.5c0 6.66699 -0.5 13.667 -1.5 21s-3.83301 11 -8.5 11c-23.333 -17.333 -48.5 -32.833 -75.5 -46.5s-53.167 -20.5 -78.5 -20.5c-62 0 -113.5 22.833 -154.5 68.5s-61.5 99.834 -61.5 162.501c0 31.333 6 60.5 18 87.5
s29.5 51.5 52.5 73.5s49.333 39.5 79 52.5s60.167 19.5 91.5 19.5c36 0 71.667 -7 107 -21c10 -4 16.333 -6 19 -6c6 0 9 7.66699 9 23c-0.666992 8 -1 12.667 -1 14v95v14.5c0 5 0.333008 10.167 1 15.5c0 17.333 -2 29.333 -6 36c-6 10 -17.333 15 -34 15h-16
c-6.66699 1.33301 -10 4.66602 -10 9.99902c0 6 4.66699 9.66699 14 11c16.667 3.33301 32.834 7.33301 48.501 12s29.5 11 41.5 19c9.33301 7.33301 16.333 11 21 11c6 0 9 -5.33301 9 -16zM409.998 127.999l0.000976562 180.999v12c0 19.333 -1.33301 35.166 -4 47.499
s-9.33398 23.5 -20.001 33.5s-24.5 17.833 -41.5 23.5s-34.167 8.5 -51.5 8.5h-10c-52.667 -4.66699 -94.834 -26 -126.501 -64s-47.5 -83.333 -47.5 -136c0 -53.333 15 -99.666 45 -138.999c32.667 -42.667 75.334 -64 128.001 -64c22 0 43.833 3.83301 65.5 11.5
s39.167 19.5 52.5 35.5c4 4.66699 6.66699 9.83398 8 15.501s2 11.5 2 17.5v17z" />
    <glyph glyph-name="e" unicode="e" horiz-adv-x="500" 
d="M453 272l-302.999 -0.000976562c-18 0 -29.333 -1.33301 -34 -4s-7 -11.667 -7 -27c0 -58 17 -106.667 51 -146c36.667 -42 84.334 -63 143.001 -63c32 0 60.667 6.66699 86 20l62 45c5.33301 0 8 -2.66699 8 -8c0 -4.66699 -5.66699 -12.667 -17 -24
c-8.66699 -8.66699 -16 -15.667 -22 -21c-23.333 -20 -47.5 -34.333 -72.5 -43s-53.5 -13 -85.5 -13c-64.667 0 -118.834 22.5 -162.501 67.5s-65.5 99.167 -65.5 162.5c0 35.333 5.5 66.333 16.5 93s29.5 51.334 55.5 74.001c50.667 44.667 110.667 67 180 67
c29.333 0 56.166 -4.83301 80.499 -14.5s45.5 -25.5 63.5 -47.5c23.333 -29.333 35 -63 35 -101c0 -11.333 -4 -17 -12 -17zM151.001 295.999h81h13c25.333 0 45.166 0.5 59.499 1.5s28.333 3 42 6s23.5 7.5 29.5 13.5s9 15 9 27c0 10 -2.33301 20.167 -7 30.5
s-11 19.833 -19 28.5c-10.667 11.333 -23.5 19.333 -38.5 24s-31.167 7 -48.5 7c-26.667 0 -51.167 -5.66699 -73.5 -17s-41.166 -28 -56.499 -50c-5.33301 -6.66699 -10.833 -16 -16.5 -28s-8.5 -22 -8.5 -30c0 -6.66699 3 -10.5 9 -11.5s14.333 -1.5 25 -1.5z" />
    <glyph glyph-name="f" unicode="f" horiz-adv-x="300" 
d="M155 372l-0.00390625 -270.001c-0.666992 -14 -1 -24 -1 -30c0 -16 3 -28.167 9 -36.5s18.333 -13.5 37 -15.5s28 -6.33301 28 -13c0 -7.33301 -4 -11 -12 -11c-11.333 0 -30.166 0.666992 -56.499 2s-40.166 2 -41.499 2c-10 0 -25.333 -0.666992 -46 -2s-36 -2 -46 -2
c-8.66699 0 -13 3.33301 -13 10s3.66699 10.667 11 12s12.666 2 15.999 2c19.333 2 32.333 8 39 18c4.66699 7.33301 7 19.666 7 36.999v27v270v24c-2 8 -11.667 12 -29 12c-6 -0.666992 -11 -1 -15 -1c-10 0 -15 3 -15 9c0 4.66699 2.5 8.16699 7.5 10.5
s10.5 4.16602 16.5 5.49902c18 4.66699 28 13.834 30 27.501s3 27.167 3 40.5c2.66699 32 6 55.667 10 71c6.66699 25.333 17.667 46.333 33 63c18 18.667 39.833 34.5 65.5 47.5s50.834 19.5 75.501 19.5c14.667 0 32.834 -3.16699 54.501 -9.5s32.5 -15.5 32.5 -27.5
c0 -10.667 -4.33301 -24.334 -13 -41.001c-5.33301 -10.667 -10.333 -16 -15 -16s-10 2.66699 -16 8c-2.66699 2.66699 -7 7.33398 -13 14.001c-13.333 14.667 -23 24.334 -29 29.001c-12 9.33301 -24.667 14 -38 14c-29.333 0 -50.333 -16.667 -63 -50
c-8.66699 -23.333 -13 -52.666 -13 -87.999v-50c0 -22.667 1.33301 -35.834 4 -39.501s14.334 -5.5 35.001 -5.5h79c9.33301 0 14 -6 14 -18c0 -8.66699 -5 -13 -15 -13h-12h-70c-16 0 -25.833 -1.16699 -29.5 -3.5s-5.5 -9.16602 -5.5 -20.499v-12z" />
    <glyph glyph-name="g" unicode="g" horiz-adv-x="520" 
d="M418 415h49.9971h16c8.66699 0 14 -2 16 -6s3 -9.33301 3 -16c0 -9.33301 -1.16699 -14.833 -3.5 -16.5s-8.16602 -2.5 -17.499 -2.5c-10.667 0.666992 -16.667 1 -18 1c-6.66699 0.666992 -12.667 1 -18 1c-15.333 0 -23 -3 -23 -9c0 -2 2.33301 -7.66699 7 -17
c8.66699 -18 13 -39 13 -63c0 -20 -4.16699 -39 -12.5 -57s-21.166 -35 -38.499 -51s-38.833 -27.833 -64.5 -35.5s-51.5 -11.5 -77.5 -11.5c-18.667 0 -31.667 -0.666992 -39 -2s-19.666 -5.66602 -36.999 -12.999c-11.333 -4.66699 -18 -7.66699 -20 -9
c-7.33301 -4.66699 -11 -10.667 -11 -18c0 -10.667 6.83301 -18.667 20.5 -24s26.834 -8 39.501 -8h108c33.333 0 56.5 -0.666992 69.5 -2s29 -6.66602 48 -15.999s34.833 -21.5 47.5 -36.5s19 -32.167 19 -51.5c0 -58.667 -32.333 -104.334 -97 -137.001
c-52.667 -26.667 -111.334 -40 -176.001 -40c-26.667 0 -50.167 1.83301 -70.5 5.5s-40.333 10.167 -60 19.5s-36.167 21.166 -49.5 35.499s-20 30.833 -20 49.5c0 17.333 5.33301 32.333 16 45c8 9.33301 21 19 39 29l28 16l19 11c10 6 15 11 15 15s-3 8.83301 -9 14.5
l-11 10.5c-9.33301 7.33301 -19.666 16.333 -30.999 27c-16.667 16 -25 26.333 -25 31c0 5.33301 3.33301 8.66602 10 9.99902c24.667 8.66699 43.334 15.667 56.001 21c30.667 12.667 46 21 46 25c-28.667 16.667 -53.334 36.667 -74.001 60c-23.333 26 -35 56 -35 90
c0 48.667 19.333 87.834 58 117.501s83 44.5 133 44.5c36 0 69.667 -8 101 -24c14 -6.66699 23.167 -10.5 27.5 -11.5s15.166 -1.5 32.499 -1.5zM301.997 -5l-126.001 0.000976562c-24.667 -15.333 -42.667 -28.333 -54 -39c-18.667 -18 -28 -37.333 -28 -58
c0 -16 4.16699 -30.5 12.5 -43.5s19.5 -24 33.5 -33s30 -15.667 48 -20s36.333 -6.5 55 -6.5c44.667 0 84.334 8 119.001 24c46 21.333 69 51.666 69 90.999c0 32 -14.667 55 -44 69c-22 10.667 -50.333 16 -85 16zM250.996 151.001c38.667 0 68.333 14.667 89 44
c18.667 26 28 59.333 28 100c0 34 -9.33301 64.667 -28 92c-21.333 31.333 -48.333 47 -81 47c-36 0 -64.667 -14 -86 -42s-32 -60.667 -32 -98s8.66699 -69.333 26 -96c20.667 -31.333 48.667 -47 84 -47z" />
    <glyph glyph-name="h" unicode="h" 
d="M164 685l0.000976562 -292.994c1.33301 -6.66699 4 -10 8 -10c3.33301 0 7.33301 2.33301 12 7c22 22 44.167 38 66.5 48s48.833 15 79.5 15c24 0 46.167 -3.66699 66.5 -11s36.833 -20 49.5 -38s21 -40.333 25 -67c2 -14 3 -39 3 -75v-159c-0.666992 -14 -1 -24 -1 -30
c0 -16 3 -28.167 9 -36.5s18.333 -13.5 37 -15.5s28 -6.33301 28 -13c0 -7.33301 -4 -11 -12 -11c-11.333 0 -25 0.5 -41 1.5s-33.667 1.83301 -53 2.5c-11.333 0 -29.833 -0.666992 -55.5 -2s-38.834 -2 -39.501 -2c-9.33301 0 -14 3.33301 -14 10c0 6 2 9.66699 6 11
s13.333 2.66602 28 3.99902s25 6.16602 31 14.499s9 20.5 9 36.5c-0.666992 12.667 -1 22.667 -1 30v173v12c0 25.333 -1.33301 43.666 -4 54.999s-7 22 -13 32c-20.667 30 -52.334 45 -95.001 45c-38.667 0 -71.667 -14.333 -99 -43c-13.333 -14 -21.666 -27 -24.999 -39
s-5 -29.667 -5 -53v-182c-0.666992 -14 -1 -24 -1 -30c0 -16 3 -28.167 9 -36.5s18.333 -13.5 37 -15.5s28 -6.33301 28 -13c0 -7.33301 -4 -11 -12 -11c-11.333 0 -25 0.5 -41 1.5s-33.667 1.83301 -53 2.5c-11.333 0 -29.833 -0.666992 -55.5 -2s-38.834 -2 -39.501 -2
c-9.33301 0 -14 3.33301 -14 10c0 6 2 9.66699 6 11s13.333 2.66602 28 3.99902s25 6.16602 31 14.499s9 20.5 9 36.5c-0.666992 12.667 -1 22.667 -1 30v455v14.5c0 5 0.333008 10.167 1 15.5c0 17.333 -2 29.333 -6 36c-6 10 -17.333 15 -34 15h-16
c-6.66699 1.33301 -10 4.66602 -10 9.99902c0 6 4.66699 9.66699 14 11c16.667 3.33301 32.834 7.33301 48.501 12s29.5 11 41.5 19c9.33301 7.33301 16.333 11 21 11c6 0 9 -5.33301 9 -16z" />
    <glyph glyph-name="i" unicode="i" horiz-adv-x="260" 
d="M172 436l0.000976562 -334c-0.666992 -14 -1 -24 -1 -30c0 -16 3 -28.167 9 -36.5s18.333 -13.5 37 -15.5s28 -6.33301 28 -13c0 -7.33301 -4 -11 -12 -11c-11.333 0 -25 0.5 -41 1.5s-33.667 1.83301 -53 2.5c-11.333 -0 -29.833 -0.666992 -55.5 -2
s-38.834 -2 -39.501 -2c-9.33301 0 -14 3.33301 -14 10c0 6 2 9.66699 6 11s13.333 2.66602 28 3.99902s25 6.16602 31 14.499s9 20.5 9 36.5c-0.666992 12.667 -1 22.667 -1 30v188v14c0 10.667 -0.833008 20.834 -2.5 30.501s-4.5 16.667 -8.5 21s-13.333 6.5 -28 6.5h-13
c-8 0 -12 2.66699 -12 8c0 6 7 11.333 21 16s29.667 12.334 47 23.001s30 20.667 38 30c2 2.66699 4.5 5.5 7.5 8.5s6.5 4.5 10.5 4.5c6 0 9 -5.33301 9 -16zM137.001 539c-13.333 0 -23.833 4.50098 -31.5 13.501s-11.5 20.5 -11.5 34.5s4.16699 25.833 12.5 35.5
s19.166 14.5 32.499 14.5c12.667 0 22.834 -4.83301 30.501 -14.5s11.5 -20.834 11.5 -33.501c0 -14 -3.83301 -25.833 -11.5 -35.5s-18.5 -14.5 -32.5 -14.5z" />
    <glyph glyph-name="j" unicode="j" horiz-adv-x="220" 
d="M156 436v-453.002c0 -29.333 -1.66699 -53.666 -5 -72.999s-11.333 -38 -24 -56c-9.33301 -14 -23.333 -29.667 -42 -47c-16 -14.667 -33 -28 -51 -40l-13 -9c-4.66699 -3.33301 -9 -5 -13 -5c-4.66699 0 -7 2.33301 -7 7c0 5.33301 3.33301 10.666 10 15.999
c28.667 22.667 48.5 44.167 59.5 64.5s16.5 47.5 16.5 81.5v368v14c0 10.667 -0.833008 20.834 -2.5 30.501s-4.5 16.667 -8.5 21s-13.333 6.5 -28 6.5h-13c-8 0 -12 2.66699 -12 8c0 6 7 11.333 21 16s29.667 12.334 47 23.001s30 20.667 38 30c2 2.66699 4.5 5.5 7.5 8.5
s6.5 4.5 10.5 4.5c6 0 9 -5.33301 9 -16zM118 538.998c-12 0 -21.5 4.83203 -28.5 14.499s-10.5 20.834 -10.5 33.501c0 14 3.83301 25.833 11.5 35.5s18.167 14.5 31.5 14.5s23.833 -4.5 31.5 -13.5s11.5 -20.5 11.5 -34.5c0 -14.667 -4.33301 -26.667 -13 -36
s-20 -14 -34 -14z" />
    <glyph glyph-name="k" unicode="k" horiz-adv-x="540" 
d="M163 159l0.00390625 -56.9941c-0.666992 -14 -1 -24 -1 -30c0 -16 3 -28.167 9 -36.5s18.333 -13.5 37 -15.5s28 -6.33301 28 -13c0 -7.33301 -4 -11 -12 -11c-11.333 0 -25 0.5 -41 1.5s-33.667 1.83301 -53 2.5c-11.333 0 -29.833 -0.666992 -55.5 -2
s-38.834 -2 -39.501 -2c-9.33301 0 -14 3.33301 -14 10c0 6 2 9.66699 6 11s13.333 2.66602 28 3.99902s25 6.16602 31 14.499s9 20.5 9 36.5c-0.666992 12.667 -1 22.667 -1 30v455v14.5c0 5 0.333008 10.167 1 15.5c0 17.333 -2 29.333 -6 36c-6 10 -17.333 15 -34 15h-16
c-6.66699 1.33301 -10 4.66602 -10 9.99902c0 6 4.66699 9.66699 14 11c16.667 3.33301 32.834 7.33301 48.501 12s29.5 11 41.5 19c9.33301 7.33301 16.333 11 21 11c6 0 9 -5.33301 9 -16v-435c0 -4 0.166992 -8.5 0.5 -13.5s2.16602 -7.5 5.49902 -7.5
c2 0.666992 4 1.66699 6 3s3.66699 2.66602 5 3.99902l148 117c10.667 8.66699 18.667 15.667 24 21c11.333 11.333 17 20 17 26c0 6.66699 -3.16699 11 -9.5 13s-13.833 3 -22.5 3c-8 0 -16.333 0.5 -25 1.5s-13 5.16699 -13 12.5c0 6 7.33301 9 22 9h176
c3.33301 0 7 -0.166992 11 -0.5s6 -2.83301 6 -7.5c0 -6 -2.16699 -9.5 -6.5 -10.5s-8.83301 -1.5 -13.5 -1.5c-22.667 0 -43.334 -5.33301 -62.001 -16c-2.66699 -1.33301 -20.334 -14.666 -53.001 -39.999l-76 -60c-6 -5.33301 -12 -10.333 -18 -15
c-4.66699 -5.33301 -7 -9.33301 -7 -12c0 -4 2.33301 -8.33301 7 -13l151 -192c16.667 -20.667 27 -32.667 31 -36c11.333 -10 25.333 -15 42 -15c14 0 21 -5 21 -15c0 -6 -5.33301 -9 -16 -9s-29.167 0.666992 -55.5 2s-40.5 2 -42.5 2c-10 0 -27.5 -0.666992 -52.5 -2
s-38.5 -2 -40.5 -2h-10c-4 1.33301 -6 4 -6 8c0 5.33301 1.66699 9.33301 5 12s7.33301 4 12 4c16 0 26.5 1.33301 31.5 4s7.5 7.66699 7.5 15c0 5.33301 -3 12.666 -9 21.999c-2 3.33301 -7 10 -15 20l-93 122l-12 16c-6.66699 8 -12.334 12 -17.001 12
c-4 0 -8.66699 -2.16699 -14 -6.5s-8.33301 -6.83301 -9 -7.5c-16.667 -12.667 -26 -20.834 -28 -24.501s-3 -14.834 -3 -33.501z" />
    <glyph glyph-name="l" unicode="l" horiz-adv-x="260" 
d="M164 685v-582.997c-0.666992 -14 -1 -24 -1 -30c0 -16 3 -28.167 9 -36.5s18.333 -13.5 37 -15.5s28 -6.33301 28 -13c0 -7.33301 -4 -11 -12 -11c-11.333 0 -25 0.5 -41 1.5s-33.667 1.83301 -53 2.5c-11.333 0 -29.833 -0.666992 -55.5 -2s-38.834 -2 -39.501 -2
c-9.33301 0 -14 3.33301 -14 10c0 6 2 9.66699 6 11s13.333 2.66602 28 3.99902s25 6.16602 31 14.499s9 20.5 9 36.5c-0.666992 12.667 -1 22.667 -1 30v455v14.5c0 5 0.333008 10.167 1 15.5c0 17.333 -2 29.333 -6 36c-6 10 -17.333 15 -34 15h-16
c-6.66699 1.33301 -10 4.66602 -10 9.99902c0 6 4.66699 9.66699 14 11c16.667 3.33301 32.834 7.33301 48.501 12s29.5 11 41.5 19c9.33301 7.33301 16.333 11 21 11c6 0 9 -5.33301 9 -16z" />
    <glyph glyph-name="m" unicode="m" horiz-adv-x="820" 
d="M93 102l0.00195312 188.005v14c0 10.667 -0.833008 20.834 -2.5 30.501s-4.5 16.667 -8.5 21s-13.333 6.5 -28 6.5h-13c-8 0 -12 2.66699 -12 8c0 6 7 11.333 21 16s29.667 12.334 47 23.001s30 20.667 38 30c2 2.66699 4.5 5.5 7.5 8.5s6.5 4.5 10.5 4.5
c6 0 9 -5.33301 9 -16v-25c0 -8 0.166992 -15.833 0.5 -23.5s2.16602 -11.5 5.49902 -11.5c22 19.333 45.333 36.333 70 51c28.667 16.667 57 25 85 25c32.667 0 59.334 -9 80.001 -27l46 -60c20.667 22.667 43.667 42.334 69 59.001c28.667 18.667 58 28 88 28
c26 0 48 -4.33301 66 -13c13.333 -6.66699 26.666 -17.667 39.999 -33c16 -18.667 25 -40.834 27 -66.501s3 -47.834 3 -66.501v-171c-0.666992 -14 -1 -24 -1 -30c0 -16 3 -28.167 9 -36.5s18.333 -13.5 37 -15.5s28 -6.33301 28 -13c0 -7.33301 -4 -11 -12 -11
c-11.333 0 -25 0.5 -41 1.5s-33.667 1.83301 -53 2.5c-11.333 0 -29.833 -0.666992 -55.5 -2s-38.834 -2 -39.501 -2c-9.33301 0 -14 3.33301 -14 10c0 6 2 9.66699 6 11s13.333 2.66602 28 3.99902s25 6.16602 31 14.499s9 20.5 9 36.5c-0.666992 12.667 -1 22.667 -1 30
v170v12c0 18 -0.833008 33.5 -2.5 46.5s-5.16699 25.167 -10.5 36.5c-7.33301 14 -20 25.167 -38 33.5s-36.333 12.5 -55 12.5c-13.333 0 -27.5 -3.5 -42.5 -10.5s-29.167 -17 -42.5 -30s-21.666 -25.5 -24.999 -37.5s-5 -30.333 -5 -55v-178c-0.666992 -14 -1 -24 -1 -30
c0 -16 3 -28.167 9 -36.5s18.333 -13.5 37 -15.5s28 -6.33301 28 -13c0 -7.33301 -4 -11 -12 -11c-11.333 0 -25 0.5 -41 1.5s-33.667 1.83301 -53 2.5c-11.333 0 -29.833 -0.666992 -55.5 -2s-38.834 -2 -39.501 -2c-9.33301 0 -14 3.33301 -14 10c0 6 2 9.66699 6 11
s13.333 2.66602 28 3.99902s25 6.16602 31 14.499s9 20.5 9 36.5c-0.666992 12.667 -1 22.667 -1 30v170v12c0 18 -0.833008 33.5 -2.5 46.5s-5.16699 25.167 -10.5 36.5c-7.33301 14 -20 25.167 -38 33.5s-36.333 12.5 -55 12.5c-13.333 0 -27.5 -3.5 -42.5 -10.5
s-29.167 -17 -42.5 -30s-21.666 -25.5 -24.999 -37.5s-5 -30.333 -5 -55v-178c-0.666992 -14 -1 -24 -1 -30c0 -16 3 -28.167 9 -36.5s18.333 -13.5 37 -15.5s28 -6.33301 28 -13c0 -7.33301 -4 -11 -12 -11c-11.333 0 -25 0.5 -41 1.5s-33.667 1.83301 -53 2.5
c-11.333 0 -29.833 -0.666992 -55.5 -2s-38.834 -2 -39.501 -2c-9.33301 0 -14 3.33301 -14 10c0 6 2 9.66699 6 11s13.333 2.66602 28 3.99902s25 6.16602 31 14.499s9 20.5 9 36.5c-0.666992 12.667 -1 22.667 -1 30z" />
    <glyph glyph-name="n" unicode="n" 
d="M95 102l0.000976562 188.001v14c0 10.667 -0.833008 20.834 -2.5 30.501s-4.5 16.667 -8.5 21s-13.333 6.5 -28 6.5h-13c-8 0 -12 2.66699 -12 8c0 6 7 11.333 21 16s29.667 12.334 47 23.001s30 20.667 38 30c2 2.66699 4.5 5.5 7.5 8.5s6.5 4.5 10.5 4.5
c6 0 9 -5.33301 9 -16v-66c24 22 49.833 41.167 77.5 57.5s56.5 24.5 86.5 24.5c50.667 0 90 -18 118 -54c16 -20.667 25 -44 27 -70s3 -48.667 3 -68v-158c-0.666992 -14 -1 -24 -1 -30c0 -16 3 -28.167 9 -36.5s18.333 -13.5 37 -15.5s28 -6.33301 28 -13
c0 -7.33301 -4 -11 -12 -11c-11.333 0 -25 0.5 -41 1.5s-33.667 1.83301 -53 2.5c-11.333 0 -29.833 -0.666992 -55.5 -2s-38.834 -2 -39.501 -2c-9.33301 0 -14 3.33301 -14 10c0 6 2 9.66699 6 11s13.333 2.66602 28 3.99902s25 6.16602 31 14.499s9 20.5 9 36.5
c-0.666992 12.667 -1 22.667 -1 30v159v12c0 18 -1.16699 34.333 -3.5 49s-7.16602 27.334 -14.499 38.001c-9.33301 14 -22.333 25 -39 33s-35 12 -55 12c-38.667 0 -71.667 -14.333 -99 -43c-14 -14.667 -22.833 -28.167 -26.5 -40.5s-5.5 -29.5 -5.5 -51.5v-168
c-0.666992 -14 -1 -24 -1 -30c0 -16 3 -28.167 9 -36.5s18.333 -13.5 37 -15.5s28 -6.33301 28 -13c0 -7.33301 -4 -11 -12 -11c-11.333 0 -25 0.5 -41 1.5s-33.667 1.83301 -53 2.5c-11.333 0 -29.833 -0.666992 -55.5 -2s-38.834 -2 -39.501 -2
c-9.33301 0 -14 3.33301 -14 10c0 6 2 9.66699 6 11s13.333 2.66602 28 3.99902s25 6.16602 31 14.499s9 20.5 9 36.5c-0.666992 12.667 -1 22.667 -1 30z" />
    <glyph glyph-name="o" unicode="o" 
d="M283 -12c-69.333 0 -128 22.333 -176 67s-72 101 -72 169c0 64 22.667 117.667 68 161c23.333 22.667 50.5 39.5 81.5 50.5s63.833 16.5 98.5 16.5c33.333 0 64 -4.5 92 -13.5s54 -23.667 78 -44s43 -45.833 57 -76.5s21 -62 21 -94
c0 -67.333 -24.167 -123.5 -72.5 -168.5s-106.833 -67.5 -175.5 -67.5zM286 7c50.667 0 92.333 23 125 69c29.333 41.333 44 88.333 44 141c0 56 -14.333 104.667 -43 146c-32 46.667 -75.333 70 -130 70c-52.667 0 -94.5 -20.333 -125.5 -61s-46.5 -88.334 -46.5 -143.001
c0 -55.333 15 -104.666 45 -147.999c34 -49.333 77.667 -74 131 -74z" />
    <glyph glyph-name="p" unicode="p" horiz-adv-x="580" 
d="M95 -123l-0.000976562 413v14c0 10.667 -0.833008 20.834 -2.5 30.501s-4.5 16.667 -8.5 21s-13.333 6.5 -28 6.5h-13c-8 0 -12 2.66699 -12 8c0 6 7 11.333 21 16s29.667 12.334 47 23.001s30 20.667 38 30c2 2.66699 4.5 5.5 7.5 8.5s6.5 4.5 10.5 4.5
c6 0 9 -5.33301 9 -16v-55c28 22.667 55.667 40.167 83 52.5s56 18.5 86 18.5c27.333 0 54.333 -6.5 81 -19.5s49.834 -29.667 69.501 -50s34.834 -44.666 45.501 -72.999s16 -56.833 16 -85.5c0 -68.667 -23.833 -125.167 -71.5 -169.5s-107.167 -66.5 -178.5 -66.5
c-16.667 0 -32 1.66699 -46 5s-32 8.66602 -54 15.999c-8 1.33301 -15.667 3 -23 5c-6 0 -9 -6 -9 -18c0.666992 -6.66699 1 -10.667 1 -12v-107c-0.666992 -14 -1 -24 -1 -30c0 -16 3 -28.167 9 -36.5s18.333 -13.5 37 -15.5s28 -6.33301 28 -13c0 -7.33301 -4 -11 -12 -11
c-11.333 0 -25 0.5 -41 1.5s-33.667 1.83301 -53 2.5c-11.333 0 -29.833 -0.666992 -55.5 -2s-38.834 -2 -39.501 -2c-9.33301 0 -14 3.33301 -14 10c0 6 2 9.66699 6 11s13.333 2.66602 28 3.99902s25 6.16602 31 14.499s9 20.5 9 36.5c-0.666992 12.667 -1 22.667 -1 30z
M468.999 211c0 28.667 -4.16602 55.334 -12.499 80.001s-21.833 46.667 -40.5 66c-33.333 34.667 -74 52 -122 52c-22 0 -43.333 -4.33301 -64 -13s-37 -21.667 -49 -39c-7.33301 -8.66699 -12 -18.167 -14 -28.5s-3 -23.833 -3 -40.5v-155c0 -22.667 2 -41.667 6 -57
s12.667 -29 26 -41c10.667 -8.66699 24 -15.667 40 -21s31.667 -8 47 -8c55.333 0 100.666 21 135.999 63c33.333 39.333 50 86.666 50 141.999z" />
    <glyph glyph-name="q" unicode="q" 
d="M477 299l0.00488281 -421.999c-0.666992 -14 -1 -24 -1 -30c0 -16 3 -28.167 9 -36.5s18.333 -13.5 37 -15.5s28 -6.33301 28 -13c0 -7.33301 -4 -11 -12 -11c-11.333 0 -25 0.5 -41 1.5s-33.667 1.83301 -53 2.5c-11.333 0 -29.833 -0.666992 -55.5 -2
s-38.834 -2 -39.501 -2c-9.33301 0 -14 3.33301 -14 10c0 6 2 9.66699 6 11s13.333 2.66602 28 3.99902s25 6.16602 31 14.499s9 20.5 9 36.5c-0.666992 12.667 -1 22.667 -1 30v122c0 4.66699 -0.166992 10 -0.5 16s-2.5 9 -6.5 9c-2.66699 0 -8.83398 -2.5 -18.501 -7.5
s-14.834 -7.83301 -15.501 -8.5c-16 -9.33301 -30.833 -15 -44.5 -17s-34.5 -3 -62.5 -3c-65.333 0 -119.166 22.5 -161.499 67.5s-63.5 102.833 -63.5 173.5c0 62.667 25.167 115.5 75.5 158.5s110.833 64.5 181.5 64.5c17.333 0 33.166 -1.5 47.499 -4.5
s32.166 -7.83301 53.499 -14.5c2.66699 -0.666992 10.667 -5.66699 24 -15s21.666 -14 24.999 -14c6 0 12 5 18 15c13.333 22 22 33 26 33c5.33301 0 8 -3 8 -9l-3 -11c-5.33301 -20.667 -9 -42.167 -11 -64.5s-3 -45.166 -3 -68.499zM408.005 121.001l-0.00292969 195.997
v18c0 10.667 -0.666992 20.834 -2 30.501s-4 17.834 -8 24.501c-7.33301 12.667 -20.166 22.834 -38.499 30.501s-36.166 11.5 -53.499 11.5c-59.333 0 -107 -21.167 -143 -63.5s-54 -93.833 -54 -154.5c0 -53.333 17.833 -99.833 53.5 -139.5s80.5 -59.5 134.5 -59.5
c18 0 37 3.83301 57 11.5s34 18.167 42 31.5c4.66699 8 7.83398 15.5 9.50098 22.5s2.5 20.5 2.5 40.5z" />
    <glyph glyph-name="r" unicode="r" horiz-adv-x="340" 
d="M95 102v187.998v14c0 10.667 -0.833008 20.834 -2.5 30.501s-4.5 16.667 -8.5 21s-13.333 6.5 -28 6.5h-13c-8 0 -12 2.66699 -12 8c0 6 7 11.333 21 16s29.667 12.334 47 23.001s30 20.667 38 30c2 2.66699 4.5 5.5 7.5 8.5s6.5 4.5 10.5 4.5c6 0 9 -5.33301 9 -16v-49
v-13c0 -5.33301 1.66699 -8 5 -8c16 20.667 33.333 38.667 52 54c21.333 17.333 43.333 26 66 26c16.667 0 30.334 -4.16699 41.001 -12.5s16 -20.166 16 -35.499c0 -12 -4 -21.667 -12 -29s-18 -11 -30 -11c-10 0 -19 4 -27 12c-18 17.333 -30.333 26 -37 26
c-10 0 -19.667 -4 -29 -12c-6 -4.66699 -13.667 -13.5 -23 -26.5s-15.333 -26.667 -18 -41s-4 -33.166 -4 -56.499v-158c-0.666992 -14 -1 -24 -1 -30c0 -16 3 -28.167 9 -36.5s18.333 -13.5 37 -15.5s28 -6.33301 28 -13c0 -7.33301 -4 -11 -12 -11
c-11.333 0 -25 0.5 -41 1.5s-33.667 1.83301 -53 2.5c-11.333 0 -29.833 -0.666992 -55.5 -2s-38.834 -2 -39.501 -2c-9.33301 0 -14 3.33301 -14 10c0 6 2 9.66699 6 11s13.333 2.66602 28 3.99902s25 6.16602 31 14.499s9 20.5 9 36.5c-0.666992 12.667 -1 22.667 -1 30z
" />
    <glyph glyph-name="s" unicode="s" horiz-adv-x="400" 
d="M34 54l3.00391 67.002c2 14.667 6.33301 22 13 22c3.33301 0 12.666 -22.833 27.999 -68.5s49.666 -68.5 102.999 -68.5c32 0 59.667 8.33301 83 25c26 18.667 39 43 39 73c0 20 -5.66699 37 -17 51c-14 17.333 -40.333 32.333 -79 45c-48 15.333 -81 28.666 -99 39.999
c-36 22 -54 50.667 -54 86c0 18.667 4.5 35.834 13.5 51.501s22 29.5 39 41.5s35.167 20.5 54.5 25.5s40.666 7.5 63.999 7.5c17.333 0 35.5 -1.5 54.5 -4.5s35.167 -7.16699 48.5 -12.5c3.33301 -2 6.16602 -4.66699 8.49902 -8s3.5 -9 3.5 -17
c-0.666992 -9.33301 -1 -16 -1 -20c0.666992 -8.66699 1 -16.334 1 -23.001c0 -7.33301 -0.666992 -13.5 -2 -18.5s-4.33301 -7.5 -9 -7.5c-1.33301 0 -11.333 15.667 -30 47s-49.334 47 -92.001 47c-22.667 0 -43.667 -6.83301 -63 -20.5s-29 -31.5 -29 -53.5
c0 -31.333 21.333 -56 64 -74l121 -48c43.333 -24 65 -59 65 -105c0 -44.667 -21 -81 -63 -109c-37.333 -24.667 -79.666 -37 -126.999 -37c-19.333 0 -41 2.66699 -65 8s-44.667 12.666 -62 21.999c-8 3.33301 -12.333 9 -13 17s-1 14.333 -1 19z" />
    <glyph glyph-name="t" unicode="t" horiz-adv-x="280" 
d="M138 396l0.00292969 -252.996c0 -34 2.33301 -58.667 7 -74c8.66699 -28.667 26 -43 52 -43c14.667 0 30.334 5.66699 47.001 17l25 18c1.33301 0 3.33301 -1.66699 6 -5c0 -0.666992 0.333008 -1.33398 1 -2.00098c0 -4.66699 -2 -9.5 -6 -14.5s-8.66699 -9.5 -14 -13.5
c-27.333 -25.333 -58.333 -38 -93 -38c-31.333 0 -55.333 10.333 -72 31c-8.66699 11.333 -14.5 24.666 -17.5 39.999s-4.5 32.666 -4.5 51.999v32v257c0 6 -0.5 10.5 -1.5 13.5s-4.83301 4.5 -11.5 4.5h-12c-4.66699 -0.666992 -8.66699 -1 -12 -1c-12.667 0 -19 3 -19 9
c0 2.66699 1.16699 5.16699 3.5 7.5s5.16602 4.83301 8.49902 7.5c23.333 15.333 41.666 29.666 54.999 42.999c16 16 29.333 35.333 40 58c3.33301 6 6.66602 9 9.99902 9c5.33301 0 8 -4 8 -12v-71c0 -8 0.833008 -13.333 2.5 -16s6.16699 -4 13.5 -4h99
c6 0 9 -4.66699 9 -14c0 -11.333 -4.66699 -17 -14 -17c-6.66699 0.666992 -12.334 1 -17.001 1h-56c-8 0.666992 -13.667 1 -17 1c-7.33301 0 -12.5 -1.5 -15.5 -4.5s-4.5 -9.16699 -4.5 -18.5z" />
    <glyph glyph-name="u" unicode="u" 
d="M463 414l-0.000976562 -294.001v-27c0 -14 2.5 -24 7.5 -30s15.833 -9 32.5 -9l13 1c8.66699 0 13 -2.66699 13 -8c0 -4 -3 -7 -9 -9l-12 -4c-33.333 -9.33301 -55 -16.333 -65 -21s-21.667 -12 -35 -22l-11 -6c-3.33301 0 -5 2.66699 -5 8v24
c0.666992 6.66699 1 12.667 1 18c0 15.333 -3 23 -9 23c-20.667 -18 -44.167 -34.167 -70.5 -48.5s-53.833 -21.5 -82.5 -21.5c-49.333 0 -88.666 19.333 -117.999 58c-12 16 -20 34 -24 54s-6 43 -6 69v18v152c0.666992 14.667 1 25.334 1 32.001
c0 16 -2.33301 27.333 -7 34c-6.66699 9.33301 -19.667 14 -39 14c-10 0 -17 1.16699 -21 3.5s-6 5.83301 -6 10.5c0 4 4.33301 6 13 6h112c11.333 0 17 -7 17 -21c-0.666992 -6.66699 -1 -11.667 -1 -15v-216c0 -25.333 1 -47 3 -65s7.33301 -34.167 16 -48.5
s22.334 -25.333 41.001 -33s38 -11.5 58 -11.5c44 0 79.667 15 107 45c6.66699 7.33301 11.167 15.166 13.5 23.499s3.5 18.5 3.5 30.5v20v191c0.666992 14.667 1 25.334 1 32.001c0 16 -2.33301 27.333 -7 34c-6.66699 9.33301 -19.334 14 -38.001 14
c-10 0 -17.167 1.16699 -21.5 3.5s-6.5 5.5 -6.5 9.5c0 4.66699 4.66699 7 14 7h116c8 0 12 -4 12 -12c-0.666992 -6 -1 -10.333 -1 -13z" />
    <glyph glyph-name="v" unicode="v" horiz-adv-x="500" 
d="M263 91l118.002 258c2.66699 6.66699 5.5 14.334 8.5 23.001s4.5 15.334 4.5 20.001c0 9.33301 -3.66699 16.166 -11 20.499s-16.666 6.5 -27.999 6.5c-8.66699 0 -15.334 0.5 -20.001 1.5s-7 4.16699 -7 9.5c0 6 5 9 15 9h147c8.66699 0 13 -2.33301 13 -7
s-2.33301 -7.83398 -7 -9.50098s-13.834 -3.33398 -27.501 -5.00098s-27.834 -13.5 -42.501 -35.5c-4.66699 -6.66699 -14.667 -27 -30 -61l-143 -310c-2 -4.66699 -4 -8.66699 -6 -12c-4 -7.33301 -7.66699 -11 -11 -11c-4 0 -7 3.33301 -9 10l-6 13l-145 350
c-7.33301 18 -12.333 29.333 -15 34c-9.33301 16 -25 24 -47 24c-12.667 0 -19 3.66699 -19 11c0 6 5 9 15 9h181c12.667 0 19 -3.66699 19 -11c0 -6 -6 -9 -18 -9h-10c-10.667 0 -19.5 -2.33301 -26.5 -7s-10.5 -11.667 -10.5 -21c0 -5.33301 2 -13.666 6 -24.999
c2 -4.66699 5.33301 -13 10 -25z" />
    <glyph glyph-name="w" unicode="w" horiz-adv-x="780" 
d="M391 286l-124.997 -280c-1.33301 -4 -3 -8 -5 -12s-5 -6 -9 -6c-3.33301 0 -6 1.83301 -8 5.5s-4 7.83398 -6 12.501l-158 351c-9.33301 22 -16.333 36 -21 42c-10 13.333 -23.333 20 -40 20s-25 3 -25 9c0 7.33301 5.66699 11 17 11h452c10.667 0 16 -3.66699 16 -11
c0 -6 -7.66699 -9 -23 -9c-8.66699 0 -16.667 -2 -24 -6s-11 -10 -11 -18c0 -6 1.66699 -13.333 5 -22c1.33301 -3.33301 4.66602 -10.333 9.99902 -21l118 -258l101 234c4 9.33301 7.83301 19.166 11.5 29.499s5.5 19.833 5.5 28.5c0 22 -11 33 -33 33
c-8 0 -15 0.5 -21 1.5s-9 3.16699 -9 6.5c0 8 5.66699 12 17 12h145c9.33301 0 14 -4 14 -12c0 -2.66699 -4 -4.66699 -12 -6s-13.333 -2 -16 -2c-20.667 -2.66699 -37.334 -13.667 -50.001 -33c-3.33301 -4.66699 -12 -24 -26 -58l-137 -322c-1.33301 -4 -3 -8 -5 -12
s-4.66699 -6 -8 -6c-2.66699 0 -5.33398 2.66699 -8.00098 8l-5 10zM277.003 90l78.999 175c3.33301 7.33301 6.83301 15.5 10.5 24.5s5.5 16.167 5.5 21.5c0 4.66699 -2 11.667 -6 21l-11 24c-12.667 28 -22.667 45 -30 51c-10 8 -28.667 12 -56 12h-73
c-17.333 0 -30 -2.16699 -38 -6.5s-12 -10.833 -12 -19.5c0 -8 2.66699 -19 8 -33c2.66699 -8 7.33398 -18.667 14.001 -32z" />
    <glyph glyph-name="x" unicode="x" horiz-adv-x="520" 
d="M241 193l-65.001 -82c-12.667 -16 -21 -27 -25 -33c-10.667 -16.667 -16 -29.334 -16 -38.001c0 -8 4.16699 -13.333 12.5 -16s17.833 -4 28.5 -4c17.333 0 26 -4.66699 26 -14c0 -6.66699 -5.33301 -10 -16 -10c-9.33301 0 -25.166 0.666992 -47.499 2s-34.5 2 -36.5 2
c-10 0 -25 -0.666992 -45 -2s-35 -2 -45 -2c-8 0 -12 3 -12 9c0 6.66699 3.5 10.834 10.5 12.501s11.833 2.5 14.5 2.5c20.667 0 41.334 8.66699 62.001 26c12 10 28 27.667 48 53l69 86l12 17.5c4 5.66699 6 9.83398 6 12.501c0 3.33301 -3 9 -9 17l-99 129
c-21.333 27.333 -32.333 41.333 -33 42c-12 10.667 -28.667 16 -50 16c-16 0 -24 3 -24 9c0 7.33301 2.33301 11 7 11h216h11c3.33301 -1.33301 5 -4.33301 5 -9c0 -7.33301 -6.33301 -11 -19 -11c-15.333 0 -27 -0.833008 -35 -2.5s-12 -7.16699 -12 -16.5
c0 -6.66699 3.33301 -15 10 -25l17 -22l63 -85l55 69c7.33301 8.66699 14 17.667 20 27c9.33301 14 14 24 14 30c0 8.66699 -3.83301 15 -11.5 19s-16.167 6 -25.5 6c-16.667 0 -25 3.33301 -25 10s4.66699 10 14 10h181c11.333 0 17 -3.66699 17 -11
c0 -2.66699 -2.33301 -4.83398 -7 -6.50098s-11.334 -2.5 -20.001 -2.5c-27.333 0 -50 -6.66699 -68 -20c-10.667 -8 -27.667 -26.333 -51 -55l-51 -62c-4.66699 -5.33301 -9.33398 -11.166 -14.001 -17.499s-7 -11.833 -7 -16.5c0 -4 2.33301 -9.33301 7 -16
c2.66699 -4 6.66699 -9 12 -15l103 -138c8 -10.667 15.333 -20 22 -28c10.667 -12.667 19.334 -21 26.001 -25s17.667 -6 33 -6s23 -4.33301 23 -13c0 -7.33301 -6.33301 -11 -19 -11s-34.667 0.666992 -66 2s-48 2 -50 2c-10 0 -27 -0.666992 -51 -2s-36.667 -2 -38 -2
c-8.66699 0 -13 3.66699 -13 11c0 8.66699 7.33301 13 22 13h13c10 0 18.667 1.16699 26 3.5s11 7.16602 11 14.499c0 6 -3.33301 14 -10 24l-17 22z" />
    <glyph glyph-name="y" unicode="y" horiz-adv-x="500" 
d="M269 80l112 261.003c6 12.667 9 19.334 9 20.001c3.33301 9.33301 5 16.666 5 21.999c0 13.333 -5.33301 22.666 -16 27.999s-23 8 -37 8c-15.333 0 -23 2.33301 -23 7c0 8.66699 4.66699 13 14 13h159c10 0 15 -4.66699 15 -14c0 -2 -2.83301 -3.5 -8.5 -4.5
s-11 -1.66699 -16 -2s-11.667 -2.33301 -20 -6s-15.166 -9.16699 -20.499 -16.5c-8 -10 -18 -27.333 -30 -52c-8 -16 -16.333 -34.333 -25 -55l-201 -474c-5.33301 -17.333 -10.333 -28.333 -15 -33s-16 -7 -34 -7c-18.667 0 -31 1 -37 3
c-12.667 4.66699 -19 14.334 -19 29.001c0 13.333 2 23.166 6 29.499s12.667 9.5 26 9.5h22c10 0 17.833 0.666992 23.5 2s10.834 6 15.501 14c1.33301 2.66699 4.66602 10 9.99902 22l34 79l6 14.5c2 5 3 10.167 3 15.5c0 6 -1.66699 12.833 -5 20.5
s-6.33301 15.167 -9 22.5l-132 312c-11.333 28 -18.333 43.667 -21 47c-10.667 16 -24.667 24 -42 24c-16 0 -24 2.33301 -24 7c0 8.66699 6.33301 13 19 13h193c9.33301 0 14 -4.33301 14 -13c0 -2.66699 -3.33301 -4.5 -10 -5.5s-11.334 -1.5 -14.001 -1.5
c-16.667 0 -29.334 -2.83301 -38.001 -8.5s-13 -12.834 -13 -21.501c0 -6 1.33301 -13 4 -21c0.666992 -2.66699 3.33398 -9.33398 8.00098 -20.001z" />
    <glyph glyph-name="z" unicode="z" horiz-adv-x="460" 
d="M411 403l-258.005 -346.998c-2.66699 -2.66699 -6 -6.83398 -10 -12.501s-6 -9.83398 -6 -12.501c0 -4 5.33301 -6.66699 16 -8h19h87c22 0 41.167 0.833008 57.5 2.5s30.333 5.83398 42 12.501s21.167 15.667 28.5 27c4.66699 8 10.334 20.333 17.001 37
c2 6 3.83301 10.833 5.5 14.5s4.5 5.5 8.5 5.5c2.66699 0 5 -1.5 7 -4.5s3 -8.5 3 -16.5c-0.666992 -9.33301 -1 -15 -1 -17l-2 -49c0.666992 -6 1 -11 1 -15c0 -14 -5.33301 -20.667 -16 -20h-340c-6 -0.666992 -11 -1 -15 -1c-14 0 -21 3.66699 -21 11
c0 2.66699 2.66699 7.66699 8 15l6 8l266 352c2 2.66699 4.5 6.66699 7.5 12s4.5 8.66602 4.5 9.99902c0 4.66699 -5.66699 7 -17 7h-100h-30c-10.667 0 -19.667 -0.5 -27 -1.5s-15.166 -3.33301 -23.499 -7s-17.166 -9.16699 -26.499 -16.5s-17 -15.333 -23 -24
c-3.33301 -5.33301 -5.66602 -8.66602 -6.99902 -9.99902c-3.33301 -4 -6.66602 -6 -9.99902 -6c-6 0 -9 2.66699 -9 8l7 23l26 76c2.66699 8 4.66699 13.333 6 16c4 8 8 12 12 12c6.66699 0 10 -5.33301 10 -16c0 -13.333 5.33301 -22 16 -26c6 -2 17.667 -3 35 -3h244
c12 0 18 -2.33301 18 -7c0 -3.33301 -1.66699 -7.83301 -5 -13.5s-7 -10.834 -11 -15.501z" />
    <glyph glyph-name="braceleft" unicode="{" horiz-adv-x="260" 
d="M158 196v-167.999c0 -31.333 4.66699 -54.666 14 -69.999s27.666 -27.333 54.999 -36c-28 0 -48 1.66699 -60 5s-23.333 9 -34 17c-14 11.333 -23 25 -27 41s-6 35.667 -6 59v168c0 23.333 -1 38.5 -3 45.5s-7 15.167 -15 24.5c-12.667 16.667 -29.667 27 -51 31
c28 7.33301 46.5 18.333 55.5 33s13.5 37.667 13.5 69v149c0 51.333 8.66699 87 26 107s51 30 101 30c-25.333 -8 -43.166 -20.333 -53.499 -37s-15.5 -39.334 -15.5 -68.001v-157c0 -38 -4 -65.333 -12 -82c-10.667 -22.667 -31.667 -37.334 -63 -44.001
c30 -6.66699 50 -19.167 60 -37.5s15 -44.833 15 -79.5z" />
    <glyph glyph-name="bar" unicode="|" 
d="M257 0v701h54v-701h-54z" />
    <glyph glyph-name="braceright" unicode="}" horiz-adv-x="260" 
d="M100 439l-0.000976562 156.999c0 29.333 -4.83301 52.166 -14.5 68.499s-27.5 28.5 -53.5 36.5c50 0 83.5 -9.83301 100.5 -29.5s25.5 -55.5 25.5 -107.5v-149c0 -32.667 4.33301 -56 13 -70s27.334 -24.667 56.001 -32c-20 -4 -37 -14.333 -51 -31
c-8 -10 -13 -19.667 -15 -29s-3 -23 -3 -41v-168c0 -24.667 -1.33301 -42.667 -4 -54c-4.66699 -19.333 -13.667 -34.166 -27 -44.499s-27 -16.833 -41 -19.5s-32 -4 -54 -4c26 8.66699 43.833 21 53.5 37s14.5 39 14.5 69v168c0 34 5.16699 60.333 15.5 79
s30.5 31.334 60.5 38.001c-30.667 6.66699 -51.667 21.334 -63 44.001c-8.66699 17.333 -13 44.666 -13 81.999z" />
    <glyph glyph-name="asciitilde" unicode="~" 
d="M481 372l41.001 -25c-20.667 -29.333 -38 -50 -52 -62c-22 -18.667 -47 -28 -75 -28c-14 0 -27.5 1.83301 -40.5 5.5s-28.833 9.16699 -47.5 16.5l-41 16c-14 4.66699 -27.667 9.66699 -41 15c-16.667 5.33301 -31.334 8 -44.001 8c-21.333 0 -40 -7 -56 -21
c-10 -8.66699 -22.667 -25 -38 -49l-40 27c25.333 38.667 48.333 64.167 69 76.5s43 18.5 67 18.5c23.333 0 60.333 -10.167 111 -30.5s84 -30.5 100 -30.5c14.667 0 28.667 4 42 12s28.333 25 45 51z" />
    <glyph glyph-name="nonbreakingspace" unicode="&#xa0;" horiz-adv-x="500" 
 />
    <glyph glyph-name="sterling" unicode="&#xa3;" horiz-adv-x="320" 
d="M210 514l-0.00195312 -396c0 -52.667 -3 -90.667 -9 -114c-8 -32.667 -26 -66.667 -54 -102c-20 -24.667 -45 -46.667 -75 -66c-34.667 -22.667 -65.667 -34 -93 -34c-18 0 -34.5 4.66699 -49.5 14s-22.5 22.666 -22.5 39.999c0 11.333 4.5 21.166 13.5 29.499
s19.5 12.5 31.5 12.5c10 0 18.5 -2.66699 25.5 -8s13.833 -12.666 20.5 -21.999s11 -15 13 -17c6 -5.33301 12.667 -8 20 -8c12 0 24.333 4.5 37 13.5s23.334 19.5 32.001 31.5c14.667 19.333 24 48 28 86c2 17.333 3 48.333 3 93v447v22c0 24.667 -3 40.334 -9 47.001
c-8 8.66699 -26.667 13 -56 13c-16.667 0 -25 4.33301 -25 13c0 9.33301 5.66699 14 17 14c13.333 0 34.833 -0.666992 64.5 -2s45.5 -2 47.5 -2c12.667 0 34.334 0.666992 65.001 2s47 2 49 2c11.333 0 17 -4.66699 17 -14c0 -5.33301 -2.5 -8.83301 -7.5 -10.5
s-11.167 -2.5 -18.5 -2.5c-28.667 0 -46.667 -4 -54 -12s-11 -24 -11 -48v-22z" />
    <glyph glyph-name="currency" unicode="&#xa4;" horiz-adv-x="500" 
d="M37 125l50 50c-32.667 40 -49 85 -49 135c0 52 16.333 97.333 49 136l-50 49l27 27l49 -49c40 32.667 85.667 49 137 49c24.667 0 49 -4.16699 73 -12.5s45 -20.5 63 -36.5l49 49l27 -27l-49 -49c32 -40 48 -85.667 48 -137s-16 -96 -48 -134l49 -50l-27 -26l-49 49
c-40.667 -33.333 -87 -50 -139 -50c-47.333 0 -92 16.667 -134 50l-49 -49zM250 473c-44.667 0 -82.834 -15.832 -114.501 -47.499s-47.5 -69.834 -47.5 -114.501c0 -44 15.833 -82.167 47.5 -114.5s69.5 -48.5 113.5 -48.5c45.333 0 83.833 15.5 115.5 46.5
s47.5 69.167 47.5 114.5s-15.667 84 -47 116s-69.666 48 -114.999 48z" />
    <glyph glyph-name="brokenbar" unicode="&#xa6;" 
d="M257 0v280h54v-280h-54zM257 421v280h54v-280h-54z" />
    <glyph glyph-name="section" unicode="&#xa7;" horiz-adv-x="360" 
d="M164 85l-53.998 97.0039c-24 44 -41.667 83 -53 117c-13.333 40.667 -20 83 -20 127c0 59.333 15 108.666 45 147.999c33.333 43.333 78.666 65 135.999 65c18 0 33.333 -1.5 46 -4.5s25 -9.16699 37 -18.5c6.66699 -4.66699 12.334 -10.334 17.001 -17.001
s7 -13.667 7 -21c0 -10.667 -3.16699 -19.834 -9.5 -27.501s-14.5 -11.5 -24.5 -11.5c-15.333 0 -35.333 10.333 -60 31s-42 31 -52 31c-12 0 -20.5 -4.33301 -25.5 -13s-7.5 -19.334 -7.5 -32.001c0 -19.333 8 -46.666 24 -81.999
c7.33301 -16.667 20.666 -42.667 39.999 -78l33 -58c28 -48.667 48.333 -91 61 -127c16 -46 24 -92.667 24 -140c0 -62 -12 -113.667 -36 -155c-29.333 -51.333 -73 -77 -131 -77c-26.667 0 -52.334 5.66699 -77.001 17c-31.333 14.667 -47 33.667 -47 57
c0 11.333 4 21.333 12 30s18 13 30 13c15.333 0 40.333 -17 75 -51c16.667 -16 31 -24 43 -24c11.333 0 20.333 3.66699 27 11s10 16.666 10 27.999c0 16 -9.33301 44 -28 84c-11.333 24.667 -25.333 51.667 -42 81zM156.002 201.004l94 -180.002l8 -16
c2.66699 -3.33301 6.33398 -5 11.001 -5c8 0 13 5.5 15 16.5s3 22.833 3 35.5c0 44.667 -6.16699 86.834 -18.5 126.501s-30.5 80.5 -54.5 122.5l-34 60c-10.667 19.333 -22.334 42.333 -35.001 69s-21.667 49.334 -27 68.001c-1.33301 2.66699 -2.33301 5.66699 -3 9
c-2.66699 6 -7 9 -13 9s-10.667 -7.33301 -14 -22s-5 -34 -5 -58c0 -40 7 -80.667 21 -122c10.667 -31.333 28 -69 52 -113z" />
    <glyph glyph-name="dieresis" unicode="&#xa8;" 
d="M143 757c0 29.333 14.333 44.001 43 44.001c12 0 22 -4.66699 30 -14s12 -20 12 -32c0 -12.667 -4 -23.334 -12 -32.001s-18.667 -13 -32 -13c-12 0 -21.833 4.5 -29.5 13.5s-11.5 20.167 -11.5 33.5zM327 757.001c0 29.333 14.333 44.001 43 44.001
c12 0 22 -4.66699 30 -14s12 -20 12 -32c0 -12.667 -4 -23.334 -12 -32.001s-18.667 -13 -32 -13c-12 0 -21.833 4.5 -29.5 13.5s-11.5 20.167 -11.5 33.5zM195 399.002c0 -22.667 2.83789 -36.168 8.50488 -40.501s19.5 -6.5 41.5 -6.5h41c10 0 21.167 0.166992 33.5 0.5
s25.333 1.33301 39 3s23 6.5 28 14.5s9.83301 26.333 14.5 55c2 11.333 6.33301 17 13 17c7.33301 0 11 -3.33301 11 -10l-5 -86l5 -94c0 -12 -3.66699 -18 -11 -18c-6.66699 0 -11 5.66699 -13 17c-4 22.667 -8.83301 38.5 -14.5 47.5s-13.667 14.833 -24 17.5
s-26.333 4.66699 -48 6s-40.834 2 -57.501 2h-12c-22 0 -35.833 -1.66699 -41.5 -5s-8.5 -13 -8.5 -29v-174c0 -42 10.667 -69 32 -81c14 -8 44.333 -12 91 -12c51.333 0 87 4 107 12c30 12 52.667 38 68 78c2 6 4.83301 13.167 8.5 21.5s8.16699 12.5 13.5 12.5
c6.66699 0 10 -3.66699 10 -11c0 -5.33301 -1.33301 -13.333 -4 -24l-15 -106c-0.666992 -4 -4.33398 -6 -11.001 -6h-391c-6.66699 0 -17 -0.666992 -31 -2s-24.333 -2 -31 -2c-11.333 0 -17 5 -17 15c0 4.66699 2.5 7.83398 7.5 9.50098s11.167 2.5 18.5 2.5
c31.333 0 50.666 6 57.999 18c4.66699 8 7 30 7 66v407v21c0 24.667 -3.66699 41 -11 49s-25.333 12 -54 12c-17.333 0 -26 4 -26 12c0 10 5.66699 15 17 15c21.333 0 57.166 -0.666992 107.499 -2s77.166 -2 80.499 -2c30 0 79 0.666992 147 2s104 2 108 2
c10 0 15 -7.33301 15 -22c-0.666992 -7.33301 -1 -12.333 -1 -15v-86v-12c-1.33301 -6 -4.33301 -9 -9 -9c-4 0 -6.83301 1.66699 -8.5 5l-7.5 15l-15 28c-8 16.667 -16 29 -24 37c-10 10 -22.5 17.333 -37.5 22s-30.167 7.5 -45.5 8.5s-37 1.5 -65 1.5
c-12.667 0 -26.334 -0.166992 -41.001 -0.5s-25.667 -1.83301 -33 -4.5s-12.166 -7 -14.499 -13s-3.5 -13 -3.5 -21v-13v-145z" />
    <glyph glyph-name="copyright" unicode="&#xa9;" horiz-adv-x="760" 
d="M381 -12c-87.333 0 -162.167 31.833 -224.5 95.5s-93.5 140.167 -93.5 229.5c0 90 30.833 166.833 92.5 230.5s137.167 95.5 226.5 95.5c90 0 166.5 -31.5 229.5 -94.5s94.5 -140.167 94.5 -231.5s-31.667 -168.333 -95 -231s-140 -94 -230 -94zM386.999 22
c78 0 145 28.667 201 86s84 126 84 206c0 80.667 -28.333 149.334 -85 206.001s-125 85 -205 85c-78 0 -145.167 -28.833 -201.5 -86.5s-84.5 -125.834 -84.5 -204.501c0 -80.667 28.5 -149.5 85.5 -206.5s125.5 -85.5 205.5 -85.5zM523.999 487l0.000976562 -102.998h-28
c0 30 -9.16699 54.167 -27.5 72.5s-42.5 27.5 -72.5 27.5c-42.667 0 -75.667 -16.667 -99 -50c-20.667 -29.333 -31 -66.333 -31 -111c0 -45.333 11.333 -84.333 34 -117c25.333 -36.667 59.666 -55 102.999 -55c27.333 0 52 8.33301 74 25
c4.66699 3.33301 9 7.16602 13 11.499s11 14.5 21 30.5l24 -7c-11.333 -29.333 -32 -52.333 -62 -69s-62 -25 -96 -25c-55.333 0 -100.166 18.5 -134.499 55.5s-51.5 83.833 -51.5 140.5c0 59.333 18 107.666 54 144.999s83.667 56 143 56c20.667 0 42.667 -2.5 66 -7.5
s46.666 -11.5 69.999 -19.5z" />
    <glyph glyph-name="guillemotleft" unicode="&#xab;" horiz-adv-x="260" 
d="M48 255l28.001 39.0039l14 20c7.33301 8.66699 14 13 20 13c10 0 15 -5 15 -15c0 -4.66699 -1.66699 -10 -5 -16c-0.666992 -0.666992 -4.5 -5.83398 -11.5 -15.501s-12.5 -18.167 -16.5 -25.5c-7.33301 -12.667 -11 -22.667 -11 -30c0 -10.667 7.33301 -26.667 22 -48
s22 -36.333 22 -45c0 -10 -4 -15 -12 -15c-6 0 -12 3.33301 -18 10c-6.66699 9.33301 -11.334 15.666 -14.001 18.999l-33 43c-3.33301 3.33301 -6.33301 7 -9 11c-5.33301 7.33301 -8 14.666 -8 21.999c0 6 2.16699 12.167 6.5 18.5s7.83301 11.166 10.5 14.499z
M157.001 255.004l28 39.001l14 20c7.33301 8.66699 14 13 20 13c10 0 15 -4.66699 15 -14c0 -5.33301 -1.66699 -11 -5 -17c-0.666992 -0.666992 -4.5 -5.83398 -11.5 -15.501s-12.5 -18.167 -16.5 -25.5c-7.33301 -12.667 -11 -22.667 -11 -30
c0 -10.667 7.33301 -26.667 22 -48s22 -36.333 22 -45c0 -9.33301 -4 -14 -12 -14c-6 0 -12.167 3.83301 -18.5 11.5l-13.5 16.5l-33 43c-8 10 -12.833 16.667 -14.5 20s-2.5 8 -2.5 14s2.16699 12 6.5 18s7.83301 10.667 10.5 14z" />
    <glyph glyph-name="logicalnot" unicode="&#xac;" 
d="M501 402v-269h-54v215h-389v54h443z" />
    <glyph glyph-name="minus" unicode="&#xad;" horiz-adv-x="380" 
d="M290 544h-220c-5.33301 0 -8 1.33301 -8 4l2 8l5 13c0.666992 3.33301 1.66699 6.83301 3 10.5s5.66602 5.5 12.999 5.5h219c8.66699 0 13 -1.66699 13 -5s-0.666992 -7 -2 -11s-2.66602 -7.66699 -3.99902 -11c-3.33301 -8 -6.33301 -12.333 -9 -13s-6.66699 -1 -12 -1z
" />
    <glyph glyph-name="registered" unicode="&#xae;" horiz-adv-x="760" 
d="M382 -12c-87.333 0 -162.333 31.999 -225 95.999s-94 140 -94 228c0 90.667 30.833 167.834 92.5 231.501s137.167 95.5 226.5 95.5c90 0 166.667 -31.333 230 -94s95 -139 95 -229c0 -92 -31.333 -169.667 -94 -233s-139.667 -95 -231 -95zM382 21.999
c80 0 148.498 28.168 205.498 84.501s85.5 125.166 85.5 206.499s-27.667 150.333 -83 207s-123.666 85 -204.999 85c-80 0 -148 -28.333 -204 -85s-84 -125.667 -84 -207c0 -80 27.833 -148.5 83.5 -205.5s122.834 -85.5 201.501 -85.5zM230.998 500l0.000976562 19.001
h152c26 0 47 -1 63 -3s30.5 -7.16699 43.5 -15.5s23.167 -19.333 30.5 -33s11 -27.834 11 -42.501c0 -27.333 -10.333 -51 -31 -71s-44.334 -30 -71.001 -30c21.333 -4.66699 40.666 -21.667 57.999 -51c6.66699 -11.333 14 -26 22 -44c6 -13.333 11 -23.666 15 -30.999
c6.66699 -13.333 13 -23.5 19 -30.5s16.667 -10.5 32 -10.5v-18h-25h-20c-10.667 0 -19 0.5 -25 1.5s-12.5 4.16699 -19.5 9.5s-14.5 16.333 -22.5 33l-14.5 35l-23.5 57c-13.333 25.333 -37.333 38 -72 38h-16v-106v-13c0 -10.667 1 -19.334 3 -26.001s6.33301 -10 13 -10
l29 -2v-17h-151v17l18 1c17.333 0 26 9 26 27v292c-1.33301 15.333 -10.666 23 -27.999 23zM336.999 334.001l13.998 -0.000976562c38 0 65.333 4.33301 82 13c24 12.667 36 36.334 36 71.001c0 14 -2.16699 26.5 -6.5 37.5s-11.166 20 -20.499 27
s-18.166 11.333 -26.499 13s-19.5 2.5 -33.5 2.5c-20 0 -32.5 -1.83301 -37.5 -5.5s-7.5 -15.167 -7.5 -34.5v-124z" />
    <glyph glyph-name="macron" unicode="&#xaf;" horiz-adv-x="320" 
d="M116 104v409.999v22c0 24.667 -3 40.334 -9 47.001c-8 8.66699 -26.667 13 -56 13c-16.667 0 -25 4.33301 -25 13c0 9.33301 5.66699 14 17 14c13.333 0 34.833 -0.666992 64.5 -2s45.5 -2 47.5 -2c12.667 0 34.334 0.666992 65.001 2s47 2 49 2
c11.333 0 17 -4.66699 17 -14c0 -5.33301 -2.5 -8.83301 -7.5 -10.5s-11.167 -2.5 -18.5 -2.5c-28.667 0 -46.667 -4 -54 -12s-11 -24 -11 -48v-22v-410c0 -36.667 2 -58.334 6 -65.001c7.33301 -12 27 -18 59 -18c8 0 14.333 -0.666992 19 -2s7 -4.66602 7 -9.99902
c0 -8.66699 -5.66699 -13 -17 -13c-13.333 0 -34.833 0.666992 -64.5 2s-45.5 2 -47.5 2c-12.667 -0 -34.334 -0.666992 -65.001 -2s-47 -2 -49 -2c-11.333 0 -17 4.33301 -17 13c0 6 2.16699 9.5 6.5 10.5s10.5 1.5 18.5 1.5c38 0 59 9.33301 63 28
c1.33301 6 2 24.333 2 55zM64 709.999c-12 0 -21.833 4.50098 -29.5 13.501s-11.5 20.167 -11.5 33.5c0 29.333 14.333 44 43 44c12 0 22 -4.66699 30 -14s12 -20 12 -32c0 -12.667 -4 -23.334 -12 -32.001s-18.667 -13 -32 -13zM248 710
c-12 0 -21.833 4.50098 -29.5 13.501s-11.5 20.167 -11.5 33.5c0 29.333 14.333 44 43 44c12 0 22 -4.66699 30 -14s12 -20 12 -32c0 -12.667 -4 -23.334 -12 -32.001s-18.667 -13 -32 -13z" />
    <glyph glyph-name="degree" unicode="&#xb0;" horiz-adv-x="400" 
d="M350 492c0 -41.333 -14.667 -76.666 -44 -105.999s-64.666 -44 -105.999 -44s-76.666 14.667 -105.999 44s-44 64.666 -44 105.999s14.667 76.666 44 105.999s64.666 44 105.999 44s76.666 -14.667 105.999 -44s44 -64.666 44 -105.999zM310 492
c0 30 -10.832 55.833 -32.499 77.5s-47.834 32.5 -78.501 32.5c-30 0 -55.667 -10.667 -77 -32s-32 -47.333 -32 -78s10.667 -56.667 32 -78s47.333 -32 78 -32c30 0 55.833 10.833 77.5 32.5s32.5 47.5 32.5 77.5z" />
    <glyph glyph-name="plusminus" unicode="&#xb1;" 
d="M58 346h195v184h54v-184h194v-54h-194v-185h-54v185h-195v54zM501 0h-443v54h443v-54z" />
    <glyph glyph-name="twosuperior" unicode="&#xb2;" horiz-adv-x="320" 
d="M116 104v409.999v22c0 24.667 -3 40.334 -9 47.001c-8 8.66699 -26.667 13 -56 13c-16.667 0 -25 4.33301 -25 13c0 9.33301 5.66699 14 17 14c13.333 0 34.833 -0.666992 64.5 -2s45.5 -2 47.5 -2c12.667 0 34.334 0.666992 65.001 2s47 2 49 2
c11.333 0 17 -4.66699 17 -14c0 -5.33301 -2.5 -8.83301 -7.5 -10.5s-11.167 -2.5 -18.5 -2.5c-28.667 0 -46.667 -4 -54 -12s-11 -24 -11 -48v-22v-410c0 -36.667 2 -58.334 6 -65.001c7.33301 -12 27 -18 59 -18c8 0 14.333 -0.666992 19 -2s7 -4.66602 7 -9.99902
c0 -8.66699 -5.66699 -13 -17 -13c-13.333 0 -34.833 0.666992 -64.5 2s-45.5 2 -47.5 2c-12.667 -0 -34.334 -0.666992 -65.001 -2s-47 -2 -49 -2c-11.333 0 -17 4.33301 -17 13c0 6 2.16699 9.5 6.5 10.5s10.5 1.5 18.5 1.5c38 0 59 9.33301 63 28
c1.33301 6 2 24.333 2 55z" />
    <glyph glyph-name="threesuperior" unicode="&#xb3;" horiz-adv-x="260" 
d="M172 436l0.000976562 -334c-0.666992 -14 -1 -24 -1 -30c0 -16 3 -28.167 9 -36.5s18.333 -13.5 37 -15.5s28 -6.33301 28 -13c0 -7.33301 -4 -11 -12 -11c-11.333 0 -25 0.5 -41 1.5s-33.667 1.83301 -53 2.5c-11.333 -0 -29.833 -0.666992 -55.5 -2
s-38.834 -2 -39.501 -2c-9.33301 0 -14 3.33301 -14 10c0 6 2 9.66699 6 11s13.333 2.66602 28 3.99902s25 6.16602 31 14.499s9 20.5 9 36.5c-0.666992 12.667 -1 22.667 -1 30v188v14c0 10.667 -0.833008 20.834 -2.5 30.501s-4.5 16.667 -8.5 21s-13.333 6.5 -28 6.5h-13
c-8 0 -12 2.66699 -12 8c0 6 7 11.333 21 16s29.667 12.334 47 23.001s30 20.667 38 30c2 2.66699 4.5 5.5 7.5 8.5s6.5 4.5 10.5 4.5c6 0 9 -5.33301 9 -16zM137.001 539c-13.333 0 -23.833 4.50098 -31.5 13.501s-11.5 20.5 -11.5 34.5s4.16699 25.833 12.5 35.5
s19.166 14.5 32.499 14.5c12.667 0 22.834 -4.83301 30.501 -14.5s11.5 -20.834 11.5 -33.501c0 -14 -3.83301 -25.833 -11.5 -35.5s-18.5 -14.5 -32.5 -14.5z" />
    <glyph glyph-name="mu" unicode="&#xb5;" 
d="M463 414l-0.00195312 -293.998v-27c0 -14 2.5 -24 7.5 -30s15.833 -9 32.5 -9l13 1c8.66699 0 13 -2.66699 13 -8c0 -4 -3 -7 -9 -9l-12 -4c-33.333 -9.33301 -55 -16.333 -65 -21s-21.667 -12 -35 -22l-11 -6c-3.33301 0 -5 2.66699 -5 8v24
c0.666992 6.66699 1 12.667 1 18c0 15.333 -3 23 -9 23c-3.33301 0 -9 -3.33301 -17 -10c-19.333 -16 -29.666 -24.333 -30.999 -25c-16.667 -12 -33.667 -20.833 -51 -26.5s-35.333 -8.5 -54 -8.5c-29.333 0 -55.666 7.33301 -78.999 22c-2 0.666992 -3.33301 -1 -4 -5
s-1 -11 -1 -21c0 -15.333 0.833008 -40.5 2.5 -75.5s2.5 -55.167 2.5 -60.5c0 -25.333 -3 -43.833 -9 -55.5s-14.333 -17.5 -25 -17.5s-19.167 5.66699 -25.5 17s-9.5 30 -9.5 56c0 25.333 4.16699 59.166 12.5 101.499s12.5 68.833 12.5 79.5c0 14.667 -3 26.167 -9 34.5
s-10.167 23.166 -12.5 44.499s-3.5 47.666 -3.5 78.999v152c0.666992 14.667 1 25.334 1 32.001c0 16 -2.33301 27.333 -7 34c-6.66699 9.33301 -19.667 14 -39 14c-10 0 -17 1.16699 -21 3.5s-6 5.83301 -6 10.5c0 4 4.33301 6 13 6h112c11.333 0 17 -7 17 -21
c-0.666992 -6.66699 -1 -11.667 -1 -15v-216c0 -25.333 1 -47 3 -65s7.33301 -34.167 16 -48.5s22.334 -25.333 41.001 -33s38 -11.5 58 -11.5c44 0 79.667 15 107 45c6.66699 7.33301 11.167 15.166 13.5 23.499s3.5 18.5 3.5 30.5v20v191
c0.666992 14.667 1 25.334 1 32.001c0 16 -2.33301 27.333 -7 34c-6.66699 9.33301 -19.334 14 -38.001 14c-10 0 -17.167 1.16699 -21.5 3.5s-6.5 5.5 -6.5 9.5c0 4.66699 4.66699 7 14 7h116c8 0 12 -4 12 -12c-0.666992 -6 -1 -10.333 -1 -13z" />
    <glyph glyph-name="paragraph" unicode="&#xb6;" horiz-adv-x="620" 
d="M483 563l0.00292969 -662v-20c0 -13.333 -1.33301 -23.5 -4 -30.5s-9.33398 -10.5 -20.001 -10.5c-9.33301 0 -16 3.33301 -20 10s-6 19.334 -6 38.001v683h-68v-668v-20c0 -14 -1.33301 -24.667 -4 -32s-9.33398 -11 -20.001 -11c-11.333 0 -18.333 3.66699 -21 11
s-4 17.666 -4 30.999v330c-80 8 -146 28.333 -198 61c-66.667 42 -100 98.667 -100 170c0 28 5 53.333 15 76s25.5 41.834 46.5 57.501s45.167 26.5 72.5 32.5s56.666 9 87.999 9h308c13.333 0 23.333 -1.66699 30 -5s10 -11.333 10 -24c0 -10.667 -3 -17.834 -9 -21.501
s-14.333 -5.5 -25 -5.5c-8 0 -14 0.333008 -18 1h-53zM316.003 572l-30 -0.000976562c-55.333 0 -98.333 -8.33301 -129 -25c-40 -22 -60 -58.333 -60 -109c0 -34.667 8 -63.667 24 -87s40.333 -43.666 73 -60.999c21.333 -12 42 -21.5 62 -28.5s40 -10.5 60 -10.5v321z" />
    <glyph glyph-name="periodcentered" unicode="&#xb7;" horiz-adv-x="260" 
d="M131 260c-14 0 -24.999 4.66699 -32.999 14s-12 21 -12 35c0 14.667 4.16699 26.5 12.5 35.5s19.833 13.5 34.5 13.5c14 0 24.167 -4.66699 30.5 -14s9.5 -21 9.5 -35c0 -15.333 -3.33301 -27.333 -10 -36s-17.334 -13 -32.001 -13z" />
    <glyph glyph-name="periodcentered" unicode="&#x2219;" horiz-adv-x="260" 
d="M131 260c-14 0 -24.999 4.66699 -32.999 14s-12 21 -12 35c0 14.667 4.16699 26.5 12.5 35.5s19.833 13.5 34.5 13.5c14 0 24.167 -4.66699 30.5 -14s9.5 -21 9.5 -35c0 -15.333 -3.33301 -27.333 -10 -36s-17.334 -13 -32.001 -13z" />
    <glyph glyph-name="cedilla" unicode="&#xb8;" horiz-adv-x="500" 
d="M113 573c0 29.333 14.333 44.001 43 44.001c12 0 22 -4.66699 30 -14s12 -20 12 -32c0 -12.667 -4 -23.334 -12 -32.001s-18.667 -13 -32 -13c-12 0 -21.833 4.5 -29.5 13.5s-11.5 20.167 -11.5 33.5zM297 573.001c0 29.333 14.333 44.001 43 44.001
c12 0 22 -4.66699 30 -14s12 -20 12 -32c0 -12.667 -4 -23.334 -12 -32.001s-18.667 -13 -32 -13c-12 0 -21.833 4.5 -29.5 13.5s-11.5 20.167 -11.5 33.5zM150 272.002c-18 0 -29.332 -1.33398 -33.999 -4.00098s-7 -11.667 -7 -27c0 -58 17 -106.667 51 -146
c36.667 -42 84.334 -63 143.001 -63c32 0 60.667 6.66699 86 20l62 45c5.33301 0 8 -2.66699 8 -8c0 -4.66699 -5.66699 -12.667 -17 -24c-8.66699 -8.66699 -16 -15.667 -22 -21c-23.333 -20 -47.5 -34.333 -72.5 -43s-53.5 -13 -85.5 -13
c-64.667 0 -118.834 22.5 -162.501 67.5s-65.5 99.167 -65.5 162.5c0 35.333 5.5 66.333 16.5 93s29.5 51.334 55.5 74.001c50.667 44.667 110.667 67 180 67c29.333 0 56.166 -4.83301 80.499 -14.5s45.5 -25.5 63.5 -47.5c23.333 -29.333 35 -63 35 -101
c0 -11.333 -4 -17 -12 -17h-303zM232.001 296.001h13c25.333 0 45.166 0.5 59.499 1.5s28.333 3 42 6s23.5 7.5 29.5 13.5s9 15 9 27c0 10 -2.33301 20.167 -7 30.5s-11 19.833 -19 28.5c-10.667 11.333 -23.5 19.333 -38.5 24s-31.167 7 -48.5 7
c-26.667 0 -51.167 -5.66699 -73.5 -17s-41.166 -28 -56.499 -50c-5.33301 -6.66699 -10.833 -16 -16.5 -28s-8.5 -22 -8.5 -30c0 -6.66699 3 -10.5 9 -11.5s14.333 -1.5 25 -1.5h81z" />
    <glyph glyph-name="onesuperior" unicode="&#xb9;" horiz-adv-x="340" 
d="M167 357c-42 0 -78.333 13.668 -109 41.001s-46 61.666 -46 102.999c0 42 15 75.5 45 100.5s66.667 37.5 110 37.5c42.667 0 79 -12.5 109 -37.5s45 -58.5 45 -100.5s-15 -76.5 -45 -103.5s-66.333 -40.5 -109 -40.5zM169 375.001c29.333 0 53.334 12.499 72.001 37.499
s28 53.167 28 84.5c0 32.667 -8.66699 61 -26 85c-19.333 26.667 -45 40 -77 40c-30.667 0 -55.334 -11.667 -74.001 -35s-28 -50.666 -28 -81.999c0 -32.667 9 -61.667 27 -87c20.667 -28.667 46.667 -43 78 -43zM315.001 309v-31h-302v31h302z" />
    <glyph glyph-name="guillemotright" unicode="&#xbb;" horiz-adv-x="260" 
d="M218 189l-33.0029 -43c-7.33301 -10.667 -11.666 -16.667 -12.999 -18c-6 -7.33301 -12.333 -11 -19 -11c-8 0 -12 5 -12 15c0 8 7.33301 22.667 22 44s22 37.666 22 48.999c0 7.33301 -3.33301 17 -10 29c-3.33301 6 -9.33301 15 -18 27
c-5.33301 7.33301 -8.66602 12 -9.99902 14c-4 6.66699 -6 12.334 -6 17.001c0 10 5 15 15 15c6.66699 0 13.334 -4 20.001 -12c1.33301 -1.33301 6.33301 -8.33301 15 -21l28 -39l10.5 -16.5c3.66699 -5.66699 5.5 -11.167 5.5 -16.5c0 -6 -1.16699 -11 -3.5 -15
s-6.83301 -10 -13.5 -18zM108.997 189l-33.002 -42.999c-7.33301 -10.667 -11.666 -16.667 -12.999 -18c-6 -7.33301 -12.333 -11 -19 -11c-8 0 -12 5 -12 15c0 8 7.33301 22.667 22 44s22 37.666 22 48.999c0 7.33301 -3.33301 17 -10 29c-3.33301 6 -9.33301 15 -18 27
c-4 5.33301 -7.66699 11 -11 17s-5 11 -5 15c0 9.33301 5 14 15 14c6.66699 0 13.334 -4 20.001 -12c1.33301 -1.33301 6.33301 -8.33301 15 -21l28 -39c4 -6 8.33301 -12 13 -18c2 -4 3 -9 3 -15s-1.16699 -11 -3.5 -15s-6.83301 -10 -13.5 -18z" />
    <glyph glyph-name="onequarter" unicode="&#xbc;" horiz-adv-x="220" 
d="M156 436v-453.002c0 -29.333 -1.66699 -53.666 -5 -72.999s-11.333 -38 -24 -56c-9.33301 -14 -23.333 -29.667 -42 -47c-16 -14.667 -33 -28 -51 -40l-13 -9c-4.66699 -3.33301 -9 -5 -13 -5c-4.66699 0 -7 2.33301 -7 7c0 5.33301 3.33301 10.666 10 15.999
c28.667 22.667 48.5 44.167 59.5 64.5s16.5 47.5 16.5 81.5v368v14c0 10.667 -0.833008 20.834 -2.5 30.501s-4.5 16.667 -8.5 21s-13.333 6.5 -28 6.5h-13c-8 0 -12 2.66699 -12 8c0 6 7 11.333 21 16s29.667 12.334 47 23.001s30 20.667 38 30c2 2.66699 4.5 5.5 7.5 8.5
s6.5 4.5 10.5 4.5c6 0 9 -5.33301 9 -16zM118 538.998c-12 0 -21.5 4.83203 -28.5 14.499s-10.5 20.834 -10.5 33.501c0 14 3.83301 25.833 11.5 35.5s18.167 14.5 31.5 14.5s23.833 -4.5 31.5 -13.5s11.5 -20.5 11.5 -34.5c0 -14.667 -4.33301 -26.667 -13 -36
s-20 -14 -34 -14z" />
    <glyph glyph-name="onehalf" unicode="&#xbd;" horiz-adv-x="480" 
d="M249 286l-51.002 21.999c-46 20 -79.333 39.667 -100 59c-30 28 -45 62.333 -45 103c0 50.667 19.167 91.5 57.5 122.5s83.5 46.5 135.5 46.5c22 0 45.167 -1.83301 69.5 -5.5s45.833 -9.16699 64.5 -16.5c8.66699 -3.33301 13.834 -7.5 15.501 -12.5
s2.5 -13.167 2.5 -24.5l4 -78c0 -8 -3.66699 -12 -11 -12c-4.66699 0 -8.33398 3.33301 -11.001 10s-4.33398 11 -5.00098 13c-12 36.667 -26.667 63 -44 79c-20 18 -48.667 27 -86 27c-35.333 0 -65.666 -9.16699 -90.999 -27.5s-38 -44.833 -38 -79.5
c0 -36.667 21 -68.667 63 -96c14.667 -9.33301 52 -27 112 -53c20.667 -9.33301 38.334 -18.333 53.001 -27c20 -11.333 35.333 -23 46 -35c14.667 -16.667 26.334 -35.167 35.001 -55.5s13 -41.5 13 -63.5c0 -27.333 -6.33301 -53.333 -19 -78s-29.834 -46 -51.501 -64
s-46 -31.167 -73 -39.5s-55.833 -12.5 -86.5 -12.5c-25.333 0 -51.666 3.5 -78.999 10.5s-51.333 16.5 -72 28.5c-6 4 -9.83301 9.16699 -11.5 15.5s-2.5 14.833 -2.5 25.5v15v37c0 12 0.666992 23.333 2 34s3.33301 17.667 6 21s6 5 10 5c6 0 9.66699 -3.66699 11 -11
s2.33301 -14.666 3 -21.999c5.33301 -44 20 -78.333 44 -103s58.333 -37 103 -37c40 0 74.833 12 104.5 36s44.5 55.333 44.5 94c0 37.333 -11.667 68.333 -35 93c-18.667 20 -47.667 38.667 -87 56z" />
    <glyph glyph-name="threequarters" unicode="&#xbe;" horiz-adv-x="400" 
d="M34 54l3.00391 67.002c2 14.667 6.33301 22 13 22c3.33301 0 12.666 -22.833 27.999 -68.5s49.666 -68.5 102.999 -68.5c32 0 59.667 8.33301 83 25c26 18.667 39 43 39 73c0 20 -5.66699 37 -17 51c-14 17.333 -40.333 32.333 -79 45c-48 15.333 -81 28.666 -99 39.999
c-36 22 -54 50.667 -54 86c0 18.667 4.5 35.834 13.5 51.501s22 29.5 39 41.5s35.167 20.5 54.5 25.5s40.666 7.5 63.999 7.5c17.333 0 35.5 -1.5 54.5 -4.5s35.167 -7.16699 48.5 -12.5c3.33301 -2 6.16602 -4.66699 8.49902 -8s3.5 -9 3.5 -17
c-0.666992 -9.33301 -1 -16 -1 -20c0.666992 -8.66699 1 -16.334 1 -23.001c0 -7.33301 -0.666992 -13.5 -2 -18.5s-4.33301 -7.5 -9 -7.5c-1.33301 0 -11.333 15.667 -30 47s-49.334 47 -92.001 47c-22.667 0 -43.667 -6.83301 -63 -20.5s-29 -31.5 -29 -53.5
c0 -31.333 21.333 -56 64 -74l121 -48c43.333 -24 65 -59 65 -105c0 -44.667 -21 -81 -63 -109c-37.333 -24.667 -79.666 -37 -126.999 -37c-19.333 0 -41 2.66699 -65 8s-44.667 12.666 -62 21.999c-8 3.33301 -12.333 9 -13 17s-1 14.333 -1 19z" />
    <glyph glyph-name="questiondown" unicode="&#xbf;" horiz-adv-x="260" 
d="M172 436l0.000976562 -334c-0.666992 -14 -1 -24 -1 -30c0 -16 3 -28.167 9 -36.5s18.333 -13.5 37 -15.5s28 -6.33301 28 -13c0 -7.33301 -4 -11 -12 -11c-11.333 0 -25 0.5 -41 1.5s-33.667 1.83301 -53 2.5c-11.333 -0 -29.833 -0.666992 -55.5 -2
s-38.834 -2 -39.501 -2c-9.33301 0 -14 3.33301 -14 10c0 6 2 9.66699 6 11s13.333 2.66602 28 3.99902s25 6.16602 31 14.499s9 20.5 9 36.5c-0.666992 12.667 -1 22.667 -1 30v188v14c0 10.667 -0.833008 20.834 -2.5 30.501s-4.5 16.667 -8.5 21s-13.333 6.5 -28 6.5h-13
c-8 0 -12 2.66699 -12 8c0 6 7 11.333 21 16s29.667 12.334 47 23.001s30 20.667 38 30c2 2.66699 4.5 5.5 7.5 8.5s6.5 4.5 10.5 4.5c6 0 9 -5.33301 9 -16zM34.001 526c-12 0 -21.833 4.50098 -29.5 13.501s-11.5 20.167 -11.5 33.5c0 29.333 14.333 44 43 44
c12 0 22 -4.66699 30 -14s12 -20 12 -32c0 -12.667 -4 -23.334 -12 -32.001s-18.667 -13 -32 -13zM218.001 526.001c-12 0 -21.833 4.50098 -29.5 13.501s-11.5 20.167 -11.5 33.5c0 29.333 14.333 44 43 44c12 0 22 -4.66699 30 -14s12 -20 12 -32
c0 -12.667 -4 -23.334 -12 -32.001s-18.667 -13 -32 -13z" />
    <glyph glyph-name="Agrave" unicode="&#xc0;" horiz-adv-x="640" 
d="M139 112c-4 -10.667 -7.33301 -20.5029 -10 -29.5029s-4 -17.5 -4 -25.5c0 -14 8.33301 -24 25 -30c11.333 -4 25.333 -6 42 -6c8 0 14.333 -0.666992 19 -2s7 -5 7 -11c0 -4.66699 -2.33301 -7.83398 -7 -9.50098s-10.334 -2.5 -17.001 -2.5
c-9.33301 0 -25.166 0.666992 -47.499 2s-34.5 2 -36.5 2c-9.33301 0 -25.333 -0.666992 -48 -2s-34.667 -2 -36 -2c-7.33301 -0.666992 -13 -1 -17 -1c-12.667 0 -19 4 -19 12c0 6 2.66699 9.83301 8 11.5s12 2.5 20 2.5c12.667 0 22.5 0.833008 29.5 2.5
s13.667 5.83398 20 12.501s13.5 19.334 21.5 38.001c6 12.667 11.667 26.667 17 42l193 501c0.666992 3.33301 2.16699 7.83301 4.5 13.5s6.5 8.5 12.5 8.5c5.33301 0 10 -6.33301 14 -19l202 -502c14.667 -35.333 24 -56.333 28 -63c14.667 -22.667 32.667 -34 54 -34
c19.333 0 29 -5 29 -15c0 -6.66699 -5 -10 -15 -10c-14.667 0 -36.667 0.666992 -66 2s-51.333 2 -66 2c-12 0 -32.833 -0.666992 -62.5 -2s-45.834 -2 -48.501 -2c-10.667 0 -16 3.33301 -16 10s2.83301 10.834 8.5 12.501s12.5 2.5 20.5 2.5c20 0 33.667 1 41 3
c15.333 4.66699 23 13.667 23 27c0 5.33301 -1 11.333 -3 18s-5.66699 17 -11 31l-32 76c-10 24 -15.333 36.667 -16 38c-5.33301 8.66699 -20.666 13 -45.999 13h-136c-18.667 0 -30 -2 -34 -6c-0.666992 -1.33301 -5.66699 -12.666 -15 -33.999zM202 274.997l-3 -11.999
c0 -4.66699 7 -7 21 -7c8.66699 0.666992 13.667 1 15 1h115h12c11.333 0 17 2.66699 17 8l-7 22l-68 170c-3.33301 9.33301 -6.33301 16.666 -9 21.999s-5 8 -7 8c-3.33301 0 -7 -4.33301 -11 -13c-3.33301 -10 -5.33301 -15.667 -6 -17z" />
    <glyph glyph-name="Agrave" unicode="&#x410;" horiz-adv-x="640" 
d="M139 112c-4 -10.667 -7.33301 -20.5029 -10 -29.5029s-4 -17.5 -4 -25.5c0 -14 8.33301 -24 25 -30c11.333 -4 25.333 -6 42 -6c8 0 14.333 -0.666992 19 -2s7 -5 7 -11c0 -4.66699 -2.33301 -7.83398 -7 -9.50098s-10.334 -2.5 -17.001 -2.5
c-9.33301 0 -25.166 0.666992 -47.499 2s-34.5 2 -36.5 2c-9.33301 0 -25.333 -0.666992 -48 -2s-34.667 -2 -36 -2c-7.33301 -0.666992 -13 -1 -17 -1c-12.667 0 -19 4 -19 12c0 6 2.66699 9.83301 8 11.5s12 2.5 20 2.5c12.667 0 22.5 0.833008 29.5 2.5
s13.667 5.83398 20 12.501s13.5 19.334 21.5 38.001c6 12.667 11.667 26.667 17 42l193 501c0.666992 3.33301 2.16699 7.83301 4.5 13.5s6.5 8.5 12.5 8.5c5.33301 0 10 -6.33301 14 -19l202 -502c14.667 -35.333 24 -56.333 28 -63c14.667 -22.667 32.667 -34 54 -34
c19.333 0 29 -5 29 -15c0 -6.66699 -5 -10 -15 -10c-14.667 0 -36.667 0.666992 -66 2s-51.333 2 -66 2c-12 0 -32.833 -0.666992 -62.5 -2s-45.834 -2 -48.501 -2c-10.667 0 -16 3.33301 -16 10s2.83301 10.834 8.5 12.501s12.5 2.5 20.5 2.5c20 0 33.667 1 41 3
c15.333 4.66699 23 13.667 23 27c0 5.33301 -1 11.333 -3 18s-5.66699 17 -11 31l-32 76c-10 24 -15.333 36.667 -16 38c-5.33301 8.66699 -20.666 13 -45.999 13h-136c-18.667 0 -30 -2 -34 -6c-0.666992 -1.33301 -5.66699 -12.666 -15 -33.999zM202 274.997l-3 -11.999
c0 -4.66699 7 -7 21 -7c8.66699 0.666992 13.667 1 15 1h115h12c11.333 0 17 2.66699 17 8l-7 22l-68 170c-3.33301 9.33301 -6.33301 16.666 -9 21.999s-5 8 -7 8c-3.33301 0 -7 -4.33301 -11 -13c-3.33301 -10 -5.33301 -15.667 -6 -17z" />
    <glyph glyph-name="Aacute" unicode="&#xc1;" horiz-adv-x="640" 
d="M259 596c-30.667 0 -49.1699 -4.66992 -55.5029 -14.0029s-9.5 -31.666 -9.5 -66.999v-132c0 -26 0.5 -40.667 1.5 -44s5.16699 -4.33301 12.5 -3l68 9c24.667 3.33301 54.334 5 89.001 5c64 0 116.667 -14.833 158 -44.5s62 -71.167 62 -124.5
c0 -33.333 -7 -63.166 -21 -89.499s-33 -46.833 -57 -61.5c-20 -12 -40.667 -20.667 -62 -26s-43.666 -8 -66.999 -8l-229 4c-12 0 -29.667 -0.666992 -53 -2s-41 -2 -53 -2c-11.333 0 -17 4.66699 -17 14c0 5.33301 2.5 8.83301 7.5 10.5s10.833 2.5 17.5 2.5
c37.333 0 58 9.33301 62 28c1.33301 6.66699 2 24.667 2 54v410v22c0 25.333 -3 41.333 -9 48c-8 8.66699 -26.667 13 -56 13c-16.667 0 -25 4 -25 12c0 8.66699 5.66699 13 17 13c12.667 0 34.167 -0.666992 64.5 -2s46.833 -2 49.5 -2h112l192 4
c10.667 0 22.334 0.5 35.001 1.5s21 1.5 25 1.5l16 1c4 0 6.66699 -3 8 -9s2 -9.66699 2 -11c-0.666992 -8.66699 -1 -14 -1 -16l-6 -122c0 -11.333 -4 -17 -12 -17c-4.66699 0 -7.66699 1.33301 -9 4s-2 6 -2 10c-6 26 -11.167 46.667 -15.5 62s-8.83301 26 -13.5 32
c-10.667 12.667 -22.667 21.834 -36 27.501s-28.333 8.5 -45 8.5h-147zM193.997 103.997c0 -30 7.66602 -51.667 22.999 -65s37 -20 65 -20c34 0 65 2.83301 93 8.5s49.333 15.167 64 28.5c20 17.333 34.5 34.5 43.5 51.5s13.5 41.833 13.5 74.5
c0 42.667 -14.167 77 -42.5 103s-68.166 39 -119.499 39c-46 0 -78.667 -2.66699 -98 -8c-28 -8 -42 -23.333 -42 -46v-166z" />
    <glyph glyph-name="Aacute" unicode="&#x411;" horiz-adv-x="640" 
d="M259 596c-30.667 0 -49.1699 -4.66992 -55.5029 -14.0029s-9.5 -31.666 -9.5 -66.999v-132c0 -26 0.5 -40.667 1.5 -44s5.16699 -4.33301 12.5 -3l68 9c24.667 3.33301 54.334 5 89.001 5c64 0 116.667 -14.833 158 -44.5s62 -71.167 62 -124.5
c0 -33.333 -7 -63.166 -21 -89.499s-33 -46.833 -57 -61.5c-20 -12 -40.667 -20.667 -62 -26s-43.666 -8 -66.999 -8l-229 4c-12 0 -29.667 -0.666992 -53 -2s-41 -2 -53 -2c-11.333 0 -17 4.66699 -17 14c0 5.33301 2.5 8.83301 7.5 10.5s10.833 2.5 17.5 2.5
c37.333 0 58 9.33301 62 28c1.33301 6.66699 2 24.667 2 54v410v22c0 25.333 -3 41.333 -9 48c-8 8.66699 -26.667 13 -56 13c-16.667 0 -25 4 -25 12c0 8.66699 5.66699 13 17 13c12.667 0 34.167 -0.666992 64.5 -2s46.833 -2 49.5 -2h112l192 4
c10.667 0 22.334 0.5 35.001 1.5s21 1.5 25 1.5l16 1c4 0 6.66699 -3 8 -9s2 -9.66699 2 -11c-0.666992 -8.66699 -1 -14 -1 -16l-6 -122c0 -11.333 -4 -17 -12 -17c-4.66699 0 -7.66699 1.33301 -9 4s-2 6 -2 10c-6 26 -11.167 46.667 -15.5 62s-8.83301 26 -13.5 32
c-10.667 12.667 -22.667 21.834 -36 27.501s-28.333 8.5 -45 8.5h-147zM193.997 103.997c0 -30 7.66602 -51.667 22.999 -65s37 -20 65 -20c34 0 65 2.83301 93 8.5s49.333 15.167 64 28.5c20 17.333 34.5 34.5 43.5 51.5s13.5 41.833 13.5 74.5
c0 42.667 -14.167 77 -42.5 103s-68.166 39 -119.499 39c-46 0 -78.667 -2.66699 -98 -8c-28 -8 -42 -23.333 -42 -46v-166z" />
    <glyph glyph-name="Acircumflex" unicode="&#xc2;" horiz-adv-x="640" 
d="M129 518l0.00292969 24.998c0 18.667 -2.33301 32.334 -7 41.001c-6.66699 12 -19.334 18 -38.001 18c-7.33301 0 -16.333 -1.33301 -27 -4s-17.667 -4 -21 -4c-7.33301 0 -11 3 -11 9c0 6.66699 5.16699 11.834 15.5 15.501s20.5 6.5 30.5 8.5
c26 4.66699 55.167 7.83398 87.5 9.50098s69.166 2.5 110.499 2.5c43.333 0 80.666 -1.33301 111.999 -4s60.5 -9.83398 87.5 -21.501s48.5 -27.5 64.5 -47.5c18.667 -23.333 28 -49 28 -77c0 -36.667 -14.667 -67.667 -44 -93c-24.667 -21.333 -56.334 -36 -95.001 -44
c48.667 -6 89.667 -24 123 -54c37.333 -33.333 56 -74.333 56 -123c0 -28.667 -6.83301 -55.167 -20.5 -79.5s-32.167 -44.333 -55.5 -60s-48.166 -26.167 -74.499 -31.5s-55.833 -8 -88.5 -8c-28 0 -74.5 0.666992 -139.5 2s-99.833 2 -104.5 2
c-6.66699 -0 -17 -0.666992 -31 -2s-24.667 -2 -32 -2c-11.333 0 -17 5 -17 15c0 6 3.5 9.16699 10.5 9.5s11.833 0.5 14.5 0.5c32 0 51.667 6.33301 59 19c4.66699 8 7 30.333 7 67v411zM208.003 403.998c0 -22 2.50195 -35.5029 7.50195 -40.5029s18.833 -7.5 41.5 -7.5
h54c26 0 49 2.33301 69 7s37.667 14.334 53 29.001c24.667 22.667 37 53.334 37 92.001c0 46.667 -17.333 81.667 -52 105c-30.667 20.667 -70 31 -118 31c-26.667 0 -45.334 -1.16699 -56.001 -3.5s-19.334 -7.16602 -26.001 -14.499c-4 -4 -6.66699 -10 -8 -18
s-2 -16.333 -2 -25v-14v-141zM208.005 128.995c0 -28 0.665039 -45.666 1.99805 -52.999c4 -20.667 13 -35.334 27 -44.001c6 -4 17.833 -7.5 35.5 -10.5s37.834 -4.5 60.501 -4.5c28 0 52.167 2.66699 72.5 8s38.833 15.5 55.5 30.5s29.334 32.667 38.001 53
s13 41.5 13 63.5c0 62 -25.667 107 -77 135c-21.333 12.667 -44.333 20.667 -69 24s-54.667 5 -90 5h-19c-6 0 -11.667 0.333008 -17 1c-13.333 0 -22 -2.66699 -26 -8s-6 -18.333 -6 -39v-161z" />
    <glyph glyph-name="Acircumflex" unicode="&#x412;" horiz-adv-x="640" 
d="M129 518l0.00292969 24.998c0 18.667 -2.33301 32.334 -7 41.001c-6.66699 12 -19.334 18 -38.001 18c-7.33301 0 -16.333 -1.33301 -27 -4s-17.667 -4 -21 -4c-7.33301 0 -11 3 -11 9c0 6.66699 5.16699 11.834 15.5 15.501s20.5 6.5 30.5 8.5
c26 4.66699 55.167 7.83398 87.5 9.50098s69.166 2.5 110.499 2.5c43.333 0 80.666 -1.33301 111.999 -4s60.5 -9.83398 87.5 -21.501s48.5 -27.5 64.5 -47.5c18.667 -23.333 28 -49 28 -77c0 -36.667 -14.667 -67.667 -44 -93c-24.667 -21.333 -56.334 -36 -95.001 -44
c48.667 -6 89.667 -24 123 -54c37.333 -33.333 56 -74.333 56 -123c0 -28.667 -6.83301 -55.167 -20.5 -79.5s-32.167 -44.333 -55.5 -60s-48.166 -26.167 -74.499 -31.5s-55.833 -8 -88.5 -8c-28 0 -74.5 0.666992 -139.5 2s-99.833 2 -104.5 2
c-6.66699 -0 -17 -0.666992 -31 -2s-24.667 -2 -32 -2c-11.333 0 -17 5 -17 15c0 6 3.5 9.16699 10.5 9.5s11.833 0.5 14.5 0.5c32 0 51.667 6.33301 59 19c4.66699 8 7 30.333 7 67v411zM208.003 403.998c0 -22 2.50195 -35.5029 7.50195 -40.5029s18.833 -7.5 41.5 -7.5
h54c26 0 49 2.33301 69 7s37.667 14.334 53 29.001c24.667 22.667 37 53.334 37 92.001c0 46.667 -17.333 81.667 -52 105c-30.667 20.667 -70 31 -118 31c-26.667 0 -45.334 -1.16699 -56.001 -3.5s-19.334 -7.16602 -26.001 -14.499c-4 -4 -6.66699 -10 -8 -18
s-2 -16.333 -2 -25v-14v-141zM208.005 128.995c0 -28 0.665039 -45.666 1.99805 -52.999c4 -20.667 13 -35.334 27 -44.001c6 -4 17.833 -7.5 35.5 -10.5s37.834 -4.5 60.501 -4.5c28 0 52.167 2.66699 72.5 8s38.833 15.5 55.5 30.5s29.334 32.667 38.001 53
s13 41.5 13 63.5c0 62 -25.667 107 -77 135c-21.333 12.667 -44.333 20.667 -69 24s-54.667 5 -90 5h-19c-6 0 -11.667 0.333008 -17 1c-13.333 0 -22 -2.66699 -26 -8s-6 -18.333 -6 -39v-161z" />
    <glyph glyph-name="Atilde" unicode="&#xc3;" horiz-adv-x="520" 
d="M116 516l0.00195312 20.9971c0 23.333 -3.66699 39 -11 47s-25.333 12 -54 12c-17.333 0 -26 4.66699 -26 14c0 8.66699 5.66699 13 17 13c10.667 0 28.5 -0.666992 53.5 -2s38.5 -2 40.5 -2c40 0 105.5 0.666992 196.5 2s139.833 2 146.5 2c10.667 0 16 -7.66699 16 -23
v-12v-70c0.666992 -6 1 -11.333 1 -16c0 -15.333 -3.66699 -23 -11 -23c-4 0 -7.33301 2 -10 6s-4.66699 9 -6 15c-12 42.667 -33.333 70.334 -64 83.001c-21.333 8.66699 -58.666 13 -111.999 13c-14.667 0 -30.334 -0.166992 -47.001 -0.5s-29.334 -2.5 -38.001 -6.5
c-4.66699 -2 -8 -6.66699 -10 -14s-3 -14.666 -3 -21.999v-12v-437c0 -31.333 0.666992 -50 2 -56c4 -18 25 -27 63 -27c8 0 14.333 -0.666992 19 -2s7 -4.66602 7 -9.99902c0 -8.66699 -5.66699 -13 -17 -13c-13.333 0 -34.833 0.666992 -64.5 2s-45.5 2 -47.5 2
c-12.667 -0 -34.334 -0.666992 -65.001 -2s-47 -2 -49 -2c-11.333 0 -17 4.33301 -17 13c0 6 2.16699 9.5 6.5 10.5s10.5 1.5 18.5 1.5c38 0 59 9.33301 63 28c1.33301 6 2 24.333 2 55v412z" />
    <glyph glyph-name="Atilde" unicode="&#x413;" horiz-adv-x="520" 
d="M116 516l0.00195312 20.9971c0 23.333 -3.66699 39 -11 47s-25.333 12 -54 12c-17.333 0 -26 4.66699 -26 14c0 8.66699 5.66699 13 17 13c10.667 0 28.5 -0.666992 53.5 -2s38.5 -2 40.5 -2c40 0 105.5 0.666992 196.5 2s139.833 2 146.5 2c10.667 0 16 -7.66699 16 -23
v-12v-70c0.666992 -6 1 -11.333 1 -16c0 -15.333 -3.66699 -23 -11 -23c-4 0 -7.33301 2 -10 6s-4.66699 9 -6 15c-12 42.667 -33.333 70.334 -64 83.001c-21.333 8.66699 -58.666 13 -111.999 13c-14.667 0 -30.334 -0.166992 -47.001 -0.5s-29.334 -2.5 -38.001 -6.5
c-4.66699 -2 -8 -6.66699 -10 -14s-3 -14.666 -3 -21.999v-12v-437c0 -31.333 0.666992 -50 2 -56c4 -18 25 -27 63 -27c8 0 14.333 -0.666992 19 -2s7 -4.66602 7 -9.99902c0 -8.66699 -5.66699 -13 -17 -13c-13.333 0 -34.833 0.666992 -64.5 2s-45.5 2 -47.5 2
c-12.667 -0 -34.334 -0.666992 -65.001 -2s-47 -2 -49 -2c-11.333 0 -17 4.33301 -17 13c0 6 2.16699 9.5 6.5 10.5s10.5 1.5 18.5 1.5c38 0 59 9.33301 63 28c1.33301 6 2 24.333 2 55v412z" />
    <glyph glyph-name="Adieresis" unicode="&#xc4;" horiz-adv-x="640" 
d="M93 23c18.667 18.667 35.0029 47.999 49.0029 87.999s21 84.333 21 133v270v22c0 24.667 -3 40.334 -9 47.001c-8 8.66699 -26.667 13 -56 13c-16.667 0 -25 4.33301 -25 13c0 9.33301 5.66699 14 17 14c13.333 0 34.833 -0.666992 64.5 -2s45.5 -2 47.5 -2h301
c10.667 0 28.5 0.666992 53.5 2s38.5 2 40.5 2c11.333 0 17 -4.33301 17 -13c0 -9.33301 -8.66699 -14 -26 -14c-32 0 -50.833 -4.83301 -56.5 -14.5s-8.5 -32.167 -8.5 -67.5v-410c0 -31.333 1.5 -51.833 4.5 -61.5s13.167 -16.167 30.5 -19.5h45c6.66699 0 10 -5 10 -15
c-0.666992 -6.66699 -1 -11 -1 -13l-6 -122c0 -11.333 -4 -17 -12 -17c-4.66699 0 -7.66699 1.33301 -9 4s-2 6 -2 10c-6 26 -11.167 46.667 -15.5 62s-8.83301 26 -13.5 32c-10.667 12.667 -22.667 21.834 -36 27.501s-28.333 8.5 -45 8.5h-285
c-42.667 0 -77.334 -10.667 -104.001 -32c-20.667 -16.667 -44.667 -47.667 -72 -93c-2.66699 -4.66699 -5.83398 -9.83398 -9.50098 -15.501s-7.83398 -8.5 -12.501 -8.5c-6.66699 0 -10 4 -10 12c0 2 1 6 3 12s3 10 3 12l39 122c2.66699 9.33301 7.66699 14 15 14h53z
M411.003 22.999c15.333 2.66699 24.667 9.16504 28 19.498s5 30.833 5 61.5v437c0 18 -3.5 31.667 -10.5 41s-17.5 14 -31.5 14h-139c-32.667 0 -53 -5.66699 -61 -17c-5.33301 -8 -8 -29.667 -8 -65v-270c0 -53.333 -6 -97.166 -18 -131.499s-29.667 -64.166 -53 -89.499
h288z" />
    <glyph glyph-name="Adieresis" unicode="&#x414;" horiz-adv-x="640" 
d="M93 23c18.667 18.667 35.0029 47.999 49.0029 87.999s21 84.333 21 133v270v22c0 24.667 -3 40.334 -9 47.001c-8 8.66699 -26.667 13 -56 13c-16.667 0 -25 4.33301 -25 13c0 9.33301 5.66699 14 17 14c13.333 0 34.833 -0.666992 64.5 -2s45.5 -2 47.5 -2h301
c10.667 0 28.5 0.666992 53.5 2s38.5 2 40.5 2c11.333 0 17 -4.33301 17 -13c0 -9.33301 -8.66699 -14 -26 -14c-32 0 -50.833 -4.83301 -56.5 -14.5s-8.5 -32.167 -8.5 -67.5v-410c0 -31.333 1.5 -51.833 4.5 -61.5s13.167 -16.167 30.5 -19.5h45c6.66699 0 10 -5 10 -15
c-0.666992 -6.66699 -1 -11 -1 -13l-6 -122c0 -11.333 -4 -17 -12 -17c-4.66699 0 -7.66699 1.33301 -9 4s-2 6 -2 10c-6 26 -11.167 46.667 -15.5 62s-8.83301 26 -13.5 32c-10.667 12.667 -22.667 21.834 -36 27.501s-28.333 8.5 -45 8.5h-285
c-42.667 0 -77.334 -10.667 -104.001 -32c-20.667 -16.667 -44.667 -47.667 -72 -93c-2.66699 -4.66699 -5.83398 -9.83398 -9.50098 -15.501s-7.83398 -8.5 -12.501 -8.5c-6.66699 0 -10 4 -10 12c0 2 1 6 3 12s3 10 3 12l39 122c2.66699 9.33301 7.66699 14 15 14h53z
M411.003 22.999c15.333 2.66699 24.667 9.16504 28 19.498s5 30.833 5 61.5v437c0 18 -3.5 31.667 -10.5 41s-17.5 14 -31.5 14h-139c-32.667 0 -53 -5.66699 -61 -17c-5.33301 -8 -8 -29.667 -8 -65v-270c0 -53.333 -6 -97.166 -18 -131.499s-29.667 -64.166 -53 -89.499
h288z" />
    <glyph glyph-name="Aring" unicode="&#xc5;" 
d="M195 399c0 -22.667 2.83789 -36.168 8.50488 -40.501s19.5 -6.5 41.5 -6.5h41c10 0 21.167 0.166992 33.5 0.5s25.333 1.33301 39 3s23 6.5 28 14.5s9.83301 26.333 14.5 55c2 11.333 6.33301 17 13 17c7.33301 0 11 -3.33301 11 -10l-5 -86l5 -94
c0 -12 -3.66699 -18 -11 -18c-6.66699 0 -11 5.66699 -13 17c-4 22.667 -8.83301 38.5 -14.5 47.5s-13.667 14.833 -24 17.5s-26.333 4.66699 -48 6s-40.834 2 -57.501 2h-12c-22 0 -35.833 -1.66699 -41.5 -5s-8.5 -13 -8.5 -29v-174c0 -42 10.667 -69 32 -81
c14 -8 44.333 -12 91 -12c51.333 0 87 4 107 12c30 12 52.667 38 68 78c2 6 4.83301 13.167 8.5 21.5s8.16699 12.5 13.5 12.5c6.66699 0 10 -3.66699 10 -11c0 -5.33301 -1.33301 -13.333 -4 -24l-15 -106c-0.666992 -4 -4.33398 -6 -11.001 -6h-391
c-6.66699 0 -17 -0.666992 -31 -2s-24.333 -2 -31 -2c-11.333 0 -17 5 -17 15c0 4.66699 2.5 7.83398 7.5 9.50098s11.167 2.5 18.5 2.5c31.333 0 50.666 6 57.999 18c4.66699 8 7 30 7 66v407v21c0 24.667 -3.66699 41 -11 49s-25.333 12 -54 12c-17.333 0 -26 4 -26 12
c0 10 5.66699 15 17 15c21.333 0 57.166 -0.666992 107.499 -2s77.166 -2 80.499 -2c30 0 79 0.666992 147 2s104 2 108 2c10 0 15 -7.33301 15 -22c-0.666992 -7.33301 -1 -12.333 -1 -15v-86v-12c-1.33301 -6 -4.33301 -9 -9 -9c-4 0 -6.83301 1.66699 -8.5 5l-7.5 15
l-15 28c-8 16.667 -16 29 -24 37c-10 10 -22.5 17.333 -37.5 22s-30.167 7.5 -45.5 8.5s-37 1.5 -65 1.5c-12.667 0 -26.334 -0.166992 -41.001 -0.5s-25.667 -1.83301 -33 -4.5s-12.166 -7 -14.499 -13s-3.5 -13 -3.5 -21v-13v-145z" />
    <glyph glyph-name="Aring" unicode="&#x415;" 
d="M195 399c0 -22.667 2.83789 -36.168 8.50488 -40.501s19.5 -6.5 41.5 -6.5h41c10 0 21.167 0.166992 33.5 0.5s25.333 1.33301 39 3s23 6.5 28 14.5s9.83301 26.333 14.5 55c2 11.333 6.33301 17 13 17c7.33301 0 11 -3.33301 11 -10l-5 -86l5 -94
c0 -12 -3.66699 -18 -11 -18c-6.66699 0 -11 5.66699 -13 17c-4 22.667 -8.83301 38.5 -14.5 47.5s-13.667 14.833 -24 17.5s-26.333 4.66699 -48 6s-40.834 2 -57.501 2h-12c-22 0 -35.833 -1.66699 -41.5 -5s-8.5 -13 -8.5 -29v-174c0 -42 10.667 -69 32 -81
c14 -8 44.333 -12 91 -12c51.333 0 87 4 107 12c30 12 52.667 38 68 78c2 6 4.83301 13.167 8.5 21.5s8.16699 12.5 13.5 12.5c6.66699 0 10 -3.66699 10 -11c0 -5.33301 -1.33301 -13.333 -4 -24l-15 -106c-0.666992 -4 -4.33398 -6 -11.001 -6h-391
c-6.66699 0 -17 -0.666992 -31 -2s-24.333 -2 -31 -2c-11.333 0 -17 5 -17 15c0 4.66699 2.5 7.83398 7.5 9.50098s11.167 2.5 18.5 2.5c31.333 0 50.666 6 57.999 18c4.66699 8 7 30 7 66v407v21c0 24.667 -3.66699 41 -11 49s-25.333 12 -54 12c-17.333 0 -26 4 -26 12
c0 10 5.66699 15 17 15c21.333 0 57.166 -0.666992 107.499 -2s77.166 -2 80.499 -2c30 0 79 0.666992 147 2s104 2 108 2c10 0 15 -7.33301 15 -22c-0.666992 -7.33301 -1 -12.333 -1 -15v-86v-12c-1.33301 -6 -4.33301 -9 -9 -9c-4 0 -6.83301 1.66699 -8.5 5l-7.5 15
l-15 28c-8 16.667 -16 29 -24 37c-10 10 -22.5 17.333 -37.5 22s-30.167 7.5 -45.5 8.5s-37 1.5 -65 1.5c-12.667 0 -26.334 -0.166992 -41.001 -0.5s-25.667 -1.83301 -33 -4.5s-12.166 -7 -14.499 -13s-3.5 -13 -3.5 -21v-13v-145z" />
    <glyph glyph-name="AE" unicode="&#xc6;" horiz-adv-x="920" 
d="M393 303c-5.33301 6.66699 -9.66699 9.99805 -13 9.99805c-0.666992 -0.666992 -1.33398 -1 -2.00098 -1c-4.66699 -2.66699 -9 -6.66699 -13 -12l-145 -199c-5.33301 -6.66699 -12 -16.667 -20 -30s-12 -22.333 -12 -27c0 -11.333 4.5 -18.333 13.5 -21
s20.833 -4 35.5 -4c8.66699 0 15.5 -0.666992 20.5 -2s7.5 -4.66602 7.5 -9.99902c0 -7.33301 -7 -11 -21 -11c-12 0 -32.167 0.666992 -60.5 2s-43.833 2 -46.5 2c-14 0 -34.333 -0.666992 -61 -2s-47 -2 -61 -2c-12.667 0 -19 4.33301 -19 13c0 8 7.66699 12 23 12
c12.667 0 21.834 1.16699 27.501 3.5s14 8.83301 25 19.5s22.5 23.667 34.5 39l32 42l164 227c4.66699 6 8.33398 11 11.001 15c5.33301 8 8 12.667 8 14c0 2.66699 -2.83301 7 -8.5 13l-16.5 18l-92 108c-14.667 15.333 -27.334 27.666 -38.001 36.999
c-15.333 13.333 -29.666 23 -42.999 29c-6.66699 2.66699 -15.334 5 -26.001 7s-24.667 3 -42 3c-9.33301 0 -16.666 0.666992 -21.999 2s-8 5.33301 -8 12c0 8.66699 5 13 15 13c11.333 0 30.166 -0.666992 56.499 -2s40.5 -2 42.5 -2c13.333 0 34.833 0.666992 64.5 2
s45.5 2 47.5 2c11.333 0 17 -4.66699 17 -14c0 -6.66699 -2.66699 -10.5 -8 -11.5s-12.666 -1.5 -21.999 -1.5c-12.667 0 -21.167 -1.83301 -25.5 -5.5s-6.5 -9.16699 -6.5 -16.5c0 -6.66699 6 -18 18 -34l26 -31l153 -189l9 -7c0.666992 -0.666992 1.33398 -1 2.00098 -1
c4 0 6 5.33301 6 16v186v22c0 24.667 -3 40.334 -9 47.001c-8 8.66699 -26.667 13 -56 13c-16.667 0 -25 4.33301 -25 13c0 9.33301 5.66699 14 17 14c13.333 0 34.833 -0.666992 64.5 -2s45.5 -2 47.5 -2c12.667 0 34.334 0.666992 65.001 2s47 2 49 2
c11.333 0 17 -4.66699 17 -14c0 -5.33301 -2.5 -8.83301 -7.5 -10.5s-11.167 -2.5 -18.5 -2.5c-28.667 0 -46.667 -4 -54 -12s-11 -24 -11 -48v-22v-186c0 -10.667 2 -16 6 -16c2 0.666992 4 1.66699 6 3s3.66699 3 5 5l153 189l25 30c12.667 16.667 19 28.334 19 35.001
c0 8.66699 -3 14.5 -9 17.5s-13.667 4.5 -23 4.5h-18c-8 2 -12 6.33301 -12 13c0 9.33301 5.66699 14 17 14c13.333 0 34.833 -0.666992 64.5 -2s45.5 -2 47.5 -2c11.333 0 28 0.666992 50 2s38.333 2 49 2c10 0 15 -4.33301 15 -13c0 -6 -3.16699 -9.83301 -9.5 -11.5
s-13.166 -2.5 -20.499 -2.5c-16.667 0 -29.334 -0.5 -38.001 -1.5s-18.667 -3.83301 -30 -8.5c-16.667 -7.33301 -34.334 -19.666 -53.001 -36.999l-28 -29l-92 -108c-6.66699 -7.33301 -11.667 -12.666 -15 -15.999c-6.66699 -7.33301 -10 -12.333 -10 -15
c0 -0.666992 2.66699 -5 8 -13s9 -13.333 11 -16l164 -227l32 -41c14 -18 25.667 -31.5 35 -40.5s17.5 -15 24.5 -18s16.167 -4.5 27.5 -4.5c7.33301 0 13 -0.5 17 -1.5s6 -4.5 6 -10.5c0 -8.66699 -6.33301 -13 -19 -13c-14 0 -34.333 0.666992 -61 2s-47 2 -61 2
c-12 0 -32.5 -0.666992 -61.5 -2s-44.167 -2 -45.5 -2c-14 0 -21 3.66699 -21 11c0 6 2.33301 9.5 7 10.5s11.667 1.5 21 1.5c16 0 26.333 0.666992 31 2c12 3.33301 18 11 18 23c0 6 -4 15.667 -12 29c-5.33301 9.33301 -12 18.666 -20 27.999l-145 199
c-6.66699 8.66699 -11.667 13 -15 13s-7.83301 -3.5 -13.5 -10.5s-11.5 -14.667 -17.5 -23s-9 -15.833 -9 -22.5v-153c0 -36.667 2 -58.334 6 -65.001c7.33301 -12 27 -18 59 -18c8 0 14.333 -0.666992 19 -2s7 -4.66602 7 -9.99902c0 -8.66699 -5.66699 -13 -17 -13
c-13.333 0 -34.833 0.666992 -64.5 2s-45.5 2 -47.5 2c-12.667 0 -34.334 -0.666992 -65.001 -2s-47 -2 -49 -2c-11.333 0 -17 4.33301 -17 13c0 6 2.16699 9.5 6.5 10.5s10.5 1.5 18.5 1.5c38 0 59 9.33301 63 28c1.33301 6 2 24.333 2 55v153
c0 7.33301 -3.33301 15.666 -10 24.999c-0.666992 0.666992 -6.33398 7.66699 -17.001 21z" />
    <glyph glyph-name="AE" unicode="&#x416;" horiz-adv-x="920" 
d="M393 303c-5.33301 6.66699 -9.66699 9.99805 -13 9.99805c-0.666992 -0.666992 -1.33398 -1 -2.00098 -1c-4.66699 -2.66699 -9 -6.66699 -13 -12l-145 -199c-5.33301 -6.66699 -12 -16.667 -20 -30s-12 -22.333 -12 -27c0 -11.333 4.5 -18.333 13.5 -21
s20.833 -4 35.5 -4c8.66699 0 15.5 -0.666992 20.5 -2s7.5 -4.66602 7.5 -9.99902c0 -7.33301 -7 -11 -21 -11c-12 0 -32.167 0.666992 -60.5 2s-43.833 2 -46.5 2c-14 0 -34.333 -0.666992 -61 -2s-47 -2 -61 -2c-12.667 0 -19 4.33301 -19 13c0 8 7.66699 12 23 12
c12.667 0 21.834 1.16699 27.501 3.5s14 8.83301 25 19.5s22.5 23.667 34.5 39l32 42l164 227c4.66699 6 8.33398 11 11.001 15c5.33301 8 8 12.667 8 14c0 2.66699 -2.83301 7 -8.5 13l-16.5 18l-92 108c-14.667 15.333 -27.334 27.666 -38.001 36.999
c-15.333 13.333 -29.666 23 -42.999 29c-6.66699 2.66699 -15.334 5 -26.001 7s-24.667 3 -42 3c-9.33301 0 -16.666 0.666992 -21.999 2s-8 5.33301 -8 12c0 8.66699 5 13 15 13c11.333 0 30.166 -0.666992 56.499 -2s40.5 -2 42.5 -2c13.333 0 34.833 0.666992 64.5 2
s45.5 2 47.5 2c11.333 0 17 -4.66699 17 -14c0 -6.66699 -2.66699 -10.5 -8 -11.5s-12.666 -1.5 -21.999 -1.5c-12.667 0 -21.167 -1.83301 -25.5 -5.5s-6.5 -9.16699 -6.5 -16.5c0 -6.66699 6 -18 18 -34l26 -31l153 -189l9 -7c0.666992 -0.666992 1.33398 -1 2.00098 -1
c4 0 6 5.33301 6 16v186v22c0 24.667 -3 40.334 -9 47.001c-8 8.66699 -26.667 13 -56 13c-16.667 0 -25 4.33301 -25 13c0 9.33301 5.66699 14 17 14c13.333 0 34.833 -0.666992 64.5 -2s45.5 -2 47.5 -2c12.667 0 34.334 0.666992 65.001 2s47 2 49 2
c11.333 0 17 -4.66699 17 -14c0 -5.33301 -2.5 -8.83301 -7.5 -10.5s-11.167 -2.5 -18.5 -2.5c-28.667 0 -46.667 -4 -54 -12s-11 -24 -11 -48v-22v-186c0 -10.667 2 -16 6 -16c2 0.666992 4 1.66699 6 3s3.66699 3 5 5l153 189l25 30c12.667 16.667 19 28.334 19 35.001
c0 8.66699 -3 14.5 -9 17.5s-13.667 4.5 -23 4.5h-18c-8 2 -12 6.33301 -12 13c0 9.33301 5.66699 14 17 14c13.333 0 34.833 -0.666992 64.5 -2s45.5 -2 47.5 -2c11.333 0 28 0.666992 50 2s38.333 2 49 2c10 0 15 -4.33301 15 -13c0 -6 -3.16699 -9.83301 -9.5 -11.5
s-13.166 -2.5 -20.499 -2.5c-16.667 0 -29.334 -0.5 -38.001 -1.5s-18.667 -3.83301 -30 -8.5c-16.667 -7.33301 -34.334 -19.666 -53.001 -36.999l-28 -29l-92 -108c-6.66699 -7.33301 -11.667 -12.666 -15 -15.999c-6.66699 -7.33301 -10 -12.333 -10 -15
c0 -0.666992 2.66699 -5 8 -13s9 -13.333 11 -16l164 -227l32 -41c14 -18 25.667 -31.5 35 -40.5s17.5 -15 24.5 -18s16.167 -4.5 27.5 -4.5c7.33301 0 13 -0.5 17 -1.5s6 -4.5 6 -10.5c0 -8.66699 -6.33301 -13 -19 -13c-14 0 -34.333 0.666992 -61 2s-47 2 -61 2
c-12 0 -32.5 -0.666992 -61.5 -2s-44.167 -2 -45.5 -2c-14 0 -21 3.66699 -21 11c0 6 2.33301 9.5 7 10.5s11.667 1.5 21 1.5c16 0 26.333 0.666992 31 2c12 3.33301 18 11 18 23c0 6 -4 15.667 -12 29c-5.33301 9.33301 -12 18.666 -20 27.999l-145 199
c-6.66699 8.66699 -11.667 13 -15 13s-7.83301 -3.5 -13.5 -10.5s-11.5 -14.667 -17.5 -23s-9 -15.833 -9 -22.5v-153c0 -36.667 2 -58.334 6 -65.001c7.33301 -12 27 -18 59 -18c8 0 14.333 -0.666992 19 -2s7 -4.66602 7 -9.99902c0 -8.66699 -5.66699 -13 -17 -13
c-13.333 0 -34.833 0.666992 -64.5 2s-45.5 2 -47.5 2c-12.667 0 -34.334 -0.666992 -65.001 -2s-47 -2 -49 -2c-11.333 0 -17 4.33301 -17 13c0 6 2.16699 9.5 6.5 10.5s10.5 1.5 18.5 1.5c38 0 59 9.33301 63 28c1.33301 6 2 24.333 2 55v153
c0 7.33301 -3.33301 15.666 -10 24.999c-0.666992 0.666992 -6.33398 7.66699 -17.001 21z" />
    <glyph glyph-name="Ccedilla" unicode="&#xc7;" 
d="M242 612c-50.667 0 -91.0029 -13.3311 -121.003 -39.998l-68 -89c-7.33301 0 -11 4.33301 -11 13l7 65c0 16.667 1.33301 28.167 4 34.5s11.667 12.166 27 17.499s41 11 77 17s71.667 9 107 9c58 0 107.667 -11 149 -33c52 -28 78 -68.667 78 -122
c0 -36.667 -14.667 -68.334 -44 -95.001c-25.333 -22.667 -57 -38 -95 -46c48 -6 87.333 -22.667 118 -50c34 -30.667 51 -70 51 -118c0 -28.667 -6.83301 -55.167 -20.5 -79.5s-32.167 -44.333 -55.5 -60s-49.666 -27.5 -78.999 -35.5s-66.333 -12 -111 -12
c-68 0 -131.667 14 -191 42c-14.667 7.33301 -23.667 13.5 -27 18.5s-5 14.833 -5 29.5l-5 81c0 8.66699 3.66699 13 11 13c21.333 -41.333 47.333 -77.333 78 -108c34 -33.333 76.333 -50 127 -50c27.333 0 51.333 2.66699 72 8c28 7.33301 50.167 18.833 66.5 34.5
s28.833 33.5 37.5 53.5s13 40.667 13 62c0 62 -25.667 107 -77 135c-11.333 6.66699 -26.166 11.167 -44.499 13.5s-37.166 3.5 -56.499 3.5h-13l-115 -4c-10 0 -15 6.33301 -15 19c0 10.667 5 16 15 16l113 -1c53.333 0 93.5 11.167 120.5 33.5s40.5 54.5 40.5 96.5
c0 43.333 -14.833 75.5 -44.5 96.5s-67.5 31.5 -113.5 31.5z" />
    <glyph glyph-name="Ccedilla" unicode="&#x417;" 
d="M242 612c-50.667 0 -91.0029 -13.3311 -121.003 -39.998l-68 -89c-7.33301 0 -11 4.33301 -11 13l7 65c0 16.667 1.33301 28.167 4 34.5s11.667 12.166 27 17.499s41 11 77 17s71.667 9 107 9c58 0 107.667 -11 149 -33c52 -28 78 -68.667 78 -122
c0 -36.667 -14.667 -68.334 -44 -95.001c-25.333 -22.667 -57 -38 -95 -46c48 -6 87.333 -22.667 118 -50c34 -30.667 51 -70 51 -118c0 -28.667 -6.83301 -55.167 -20.5 -79.5s-32.167 -44.333 -55.5 -60s-49.666 -27.5 -78.999 -35.5s-66.333 -12 -111 -12
c-68 0 -131.667 14 -191 42c-14.667 7.33301 -23.667 13.5 -27 18.5s-5 14.833 -5 29.5l-5 81c0 8.66699 3.66699 13 11 13c21.333 -41.333 47.333 -77.333 78 -108c34 -33.333 76.333 -50 127 -50c27.333 0 51.333 2.66699 72 8c28 7.33301 50.167 18.833 66.5 34.5
s28.833 33.5 37.5 53.5s13 40.667 13 62c0 62 -25.667 107 -77 135c-11.333 6.66699 -26.166 11.167 -44.499 13.5s-37.166 3.5 -56.499 3.5h-13l-115 -4c-10 0 -15 6.33301 -15 19c0 10.667 5 16 15 16l113 -1c53.333 0 93.5 11.167 120.5 33.5s40.5 54.5 40.5 96.5
c0 43.333 -14.833 75.5 -44.5 96.5s-67.5 31.5 -113.5 31.5z" />
    <glyph glyph-name="Egrave" unicode="&#xc8;" horiz-adv-x="740" 
d="M194 107c0 -37.333 2 -59.6699 6 -67.0029c7.33301 -12.667 27 -19 59 -19c8 0 14.333 -0.666992 19 -2s7 -4.66602 7 -9.99902c0 -8.66699 -5.66699 -13 -17 -13c-13.333 0 -34.833 0.666992 -64.5 2s-45.5 2 -47.5 2c-12.667 0 -34.334 -0.666992 -65.001 -2
s-47 -2 -49 -2c-11.333 0 -17 4.33301 -17 13c0 6 2.16699 9.5 6.5 10.5s10.5 1.5 18.5 1.5c38 0 59 9.33301 63 28c1.33301 6 2 24.333 2 55v410v22c0 24.667 -3 40.334 -9 47.001c-8 8.66699 -26.667 13 -56 13c-16.667 0 -25 4.33301 -25 13c0 9.33301 5.66699 14 17 14
c13.333 0 34.833 -0.666992 64.5 -2s45.5 -2 47.5 -2c12.667 0 34.334 0.666992 65.001 2s47 2 49 2c11.333 0 17 -4.66699 17 -14c0 -5.33301 -2.5 -8.83301 -7.5 -10.5s-11.167 -2.5 -18.5 -2.5c-28.667 0 -46.667 -4 -54 -12s-11 -24 -11 -48v-22v-288
c0 -40.667 2.33301 -61 7 -61c4 0 13.333 8 28 24l315 325v22c0 24.667 -3 40.334 -9 47.001c-8 8.66699 -26.667 13 -56 13c-16.667 0 -25 4.33301 -25 13c0 9.33301 5.66699 14 17 14c13.333 0 34.833 -0.666992 64.5 -2s45.5 -2 47.5 -2
c12.667 0 34.334 0.666992 65.001 2s47 2 49 2c11.333 0 17 -4.66699 17 -14c0 -5.33301 -2.5 -8.83301 -7.5 -10.5s-11.167 -2.5 -18.5 -2.5c-28.667 0 -46.667 -4 -54 -12s-11 -24 -11 -48v-22v-410c0 -36.667 2 -58.334 6 -65.001c7.33301 -12 27 -18 59 -18
c8 0 14.333 -0.666992 19 -2s7 -4.66602 7 -9.99902c0 -8.66699 -5.66699 -13 -17 -13c-13.333 0 -34.833 0.666992 -64.5 2s-45.5 2 -47.5 2c-12.667 -0 -34.334 -0.666992 -65.001 -2s-47 -2 -49 -2c-11.333 0 -17 4.33301 -17 13c0 6 2.16699 9.5 6.5 10.5
s10.5 1.5 18.5 1.5c38 0 59 9.33301 63 28c1.33301 6 2 24.333 2 55v293c0 41.333 -2.33301 62 -7 62c-2 0 -5.33301 -2.33301 -10 -7l-18 -18z" />
    <glyph glyph-name="Egrave" unicode="&#x418;" horiz-adv-x="740" 
d="M194 107c0 -37.333 2 -59.6699 6 -67.0029c7.33301 -12.667 27 -19 59 -19c8 0 14.333 -0.666992 19 -2s7 -4.66602 7 -9.99902c0 -8.66699 -5.66699 -13 -17 -13c-13.333 0 -34.833 0.666992 -64.5 2s-45.5 2 -47.5 2c-12.667 0 -34.334 -0.666992 -65.001 -2
s-47 -2 -49 -2c-11.333 0 -17 4.33301 -17 13c0 6 2.16699 9.5 6.5 10.5s10.5 1.5 18.5 1.5c38 0 59 9.33301 63 28c1.33301 6 2 24.333 2 55v410v22c0 24.667 -3 40.334 -9 47.001c-8 8.66699 -26.667 13 -56 13c-16.667 0 -25 4.33301 -25 13c0 9.33301 5.66699 14 17 14
c13.333 0 34.833 -0.666992 64.5 -2s45.5 -2 47.5 -2c12.667 0 34.334 0.666992 65.001 2s47 2 49 2c11.333 0 17 -4.66699 17 -14c0 -5.33301 -2.5 -8.83301 -7.5 -10.5s-11.167 -2.5 -18.5 -2.5c-28.667 0 -46.667 -4 -54 -12s-11 -24 -11 -48v-22v-288
c0 -40.667 2.33301 -61 7 -61c4 0 13.333 8 28 24l315 325v22c0 24.667 -3 40.334 -9 47.001c-8 8.66699 -26.667 13 -56 13c-16.667 0 -25 4.33301 -25 13c0 9.33301 5.66699 14 17 14c13.333 0 34.833 -0.666992 64.5 -2s45.5 -2 47.5 -2
c12.667 0 34.334 0.666992 65.001 2s47 2 49 2c11.333 0 17 -4.66699 17 -14c0 -5.33301 -2.5 -8.83301 -7.5 -10.5s-11.167 -2.5 -18.5 -2.5c-28.667 0 -46.667 -4 -54 -12s-11 -24 -11 -48v-22v-410c0 -36.667 2 -58.334 6 -65.001c7.33301 -12 27 -18 59 -18
c8 0 14.333 -0.666992 19 -2s7 -4.66602 7 -9.99902c0 -8.66699 -5.66699 -13 -17 -13c-13.333 0 -34.833 0.666992 -64.5 2s-45.5 2 -47.5 2c-12.667 -0 -34.334 -0.666992 -65.001 -2s-47 -2 -49 -2c-11.333 0 -17 4.33301 -17 13c0 6 2.16699 9.5 6.5 10.5
s10.5 1.5 18.5 1.5c38 0 59 9.33301 63 28c1.33301 6 2 24.333 2 55v293c0 41.333 -2.33301 62 -7 62c-2 0 -5.33301 -2.33301 -10 -7l-18 -18z" />
    <glyph glyph-name="Eacute" unicode="&#xc9;" horiz-adv-x="740" 
d="M194 107c0 -37.333 2 -59.6699 6 -67.0029c7.33301 -12.667 27 -19 59 -19c8 0 14.333 -0.666992 19 -2s7 -4.66602 7 -9.99902c0 -8.66699 -5.66699 -13 -17 -13c-13.333 0 -34.833 0.666992 -64.5 2s-45.5 2 -47.5 2c-12.667 0 -34.334 -0.666992 -65.001 -2
s-47 -2 -49 -2c-11.333 0 -17 4.33301 -17 13c0 6 2.16699 9.5 6.5 10.5s10.5 1.5 18.5 1.5c38 0 59 9.33301 63 28c1.33301 6 2 24.333 2 55v410v22c0 24.667 -3 40.334 -9 47.001c-8 8.66699 -26.667 13 -56 13c-16.667 0 -25 4.33301 -25 13c0 9.33301 5.66699 14 17 14
c13.333 0 34.833 -0.666992 64.5 -2s45.5 -2 47.5 -2c12.667 0 34.334 0.666992 65.001 2s47 2 49 2c11.333 0 17 -4.66699 17 -14c0 -5.33301 -2.5 -8.83301 -7.5 -10.5s-11.167 -2.5 -18.5 -2.5c-28.667 0 -46.667 -4 -54 -12s-11 -24 -11 -48v-22v-288
c0 -40.667 2.33301 -61 7 -61c4 0 13.333 8 28 24l315 325v22c0 24.667 -3 40.334 -9 47.001c-8 8.66699 -26.667 13 -56 13c-16.667 0 -25 4.33301 -25 13c0 9.33301 5.66699 14 17 14c13.333 0 34.833 -0.666992 64.5 -2s45.5 -2 47.5 -2
c12.667 0 34.334 0.666992 65.001 2s47 2 49 2c11.333 0 17 -4.66699 17 -14c0 -5.33301 -2.5 -8.83301 -7.5 -10.5s-11.167 -2.5 -18.5 -2.5c-28.667 0 -46.667 -4 -54 -12s-11 -24 -11 -48v-22v-410c0 -36.667 2 -58.334 6 -65.001c7.33301 -12 27 -18 59 -18
c8 0 14.333 -0.666992 19 -2s7 -4.66602 7 -9.99902c0 -8.66699 -5.66699 -13 -17 -13c-13.333 0 -34.833 0.666992 -64.5 2s-45.5 2 -47.5 2c-12.667 -0 -34.334 -0.666992 -65.001 -2s-47 -2 -49 -2c-11.333 0 -17 4.33301 -17 13c0 6 2.16699 9.5 6.5 10.5
s10.5 1.5 18.5 1.5c38 0 59 9.33301 63 28c1.33301 6 2 24.333 2 55v293c0 41.333 -2.33301 62 -7 62c-2 0 -5.33301 -2.33301 -10 -7l-18 -18zM508 752.996c0 -8.66699 -2.33398 -17.668 -7.00098 -27.001s-11 -18.333 -19 -27c-14 -15.333 -31.167 -27 -51.5 -35
s-41.5 -12 -63.5 -12c-40 0 -73.667 11.333 -101 34c-9.33301 8 -18.666 18.667 -27.999 32s-14 25.333 -14 36c0 13.333 6 20 18 20c2.66699 0 15.334 -13 38.001 -39s54 -39 94 -39c16 0 32.667 4.33301 50 13s30.666 19.667 39.999 33
c7.33301 10.667 11.333 16.334 12 17.001c6 6.66699 12 10 18 10c9.33301 0 14 -5.33301 14 -16z" />
    <glyph glyph-name="Eacute" unicode="&#x419;" horiz-adv-x="740" 
d="M194 107c0 -37.333 2 -59.6699 6 -67.0029c7.33301 -12.667 27 -19 59 -19c8 0 14.333 -0.666992 19 -2s7 -4.66602 7 -9.99902c0 -8.66699 -5.66699 -13 -17 -13c-13.333 0 -34.833 0.666992 -64.5 2s-45.5 2 -47.5 2c-12.667 0 -34.334 -0.666992 -65.001 -2
s-47 -2 -49 -2c-11.333 0 -17 4.33301 -17 13c0 6 2.16699 9.5 6.5 10.5s10.5 1.5 18.5 1.5c38 0 59 9.33301 63 28c1.33301 6 2 24.333 2 55v410v22c0 24.667 -3 40.334 -9 47.001c-8 8.66699 -26.667 13 -56 13c-16.667 0 -25 4.33301 -25 13c0 9.33301 5.66699 14 17 14
c13.333 0 34.833 -0.666992 64.5 -2s45.5 -2 47.5 -2c12.667 0 34.334 0.666992 65.001 2s47 2 49 2c11.333 0 17 -4.66699 17 -14c0 -5.33301 -2.5 -8.83301 -7.5 -10.5s-11.167 -2.5 -18.5 -2.5c-28.667 0 -46.667 -4 -54 -12s-11 -24 -11 -48v-22v-288
c0 -40.667 2.33301 -61 7 -61c4 0 13.333 8 28 24l315 325v22c0 24.667 -3 40.334 -9 47.001c-8 8.66699 -26.667 13 -56 13c-16.667 0 -25 4.33301 -25 13c0 9.33301 5.66699 14 17 14c13.333 0 34.833 -0.666992 64.5 -2s45.5 -2 47.5 -2
c12.667 0 34.334 0.666992 65.001 2s47 2 49 2c11.333 0 17 -4.66699 17 -14c0 -5.33301 -2.5 -8.83301 -7.5 -10.5s-11.167 -2.5 -18.5 -2.5c-28.667 0 -46.667 -4 -54 -12s-11 -24 -11 -48v-22v-410c0 -36.667 2 -58.334 6 -65.001c7.33301 -12 27 -18 59 -18
c8 0 14.333 -0.666992 19 -2s7 -4.66602 7 -9.99902c0 -8.66699 -5.66699 -13 -17 -13c-13.333 0 -34.833 0.666992 -64.5 2s-45.5 2 -47.5 2c-12.667 -0 -34.334 -0.666992 -65.001 -2s-47 -2 -49 -2c-11.333 0 -17 4.33301 -17 13c0 6 2.16699 9.5 6.5 10.5
s10.5 1.5 18.5 1.5c38 0 59 9.33301 63 28c1.33301 6 2 24.333 2 55v293c0 41.333 -2.33301 62 -7 62c-2 0 -5.33301 -2.33301 -10 -7l-18 -18zM508 752.996c0 -8.66699 -2.33398 -17.668 -7.00098 -27.001s-11 -18.333 -19 -27c-14 -15.333 -31.167 -27 -51.5 -35
s-41.5 -12 -63.5 -12c-40 0 -73.667 11.333 -101 34c-9.33301 8 -18.666 18.667 -27.999 32s-14 25.333 -14 36c0 13.333 6 20 18 20c2.66699 0 15.334 -13 38.001 -39s54 -39 94 -39c16 0 32.667 4.33301 50 13s30.666 19.667 39.999 33
c7.33301 10.667 11.333 16.334 12 17.001c6 6.66699 12 10 18 10c9.33301 0 14 -5.33301 14 -16z" />
    <glyph glyph-name="Ecircumflex" unicode="&#xca;" horiz-adv-x="660" 
d="M116 514l-0.000976562 21.998c0 24.667 -3 40.334 -9 47.001c-8 8.66699 -26.667 13 -56 13c-16.667 0 -25 4.33301 -25 13c0 9.33301 5.66699 14 17 14c13.333 0 34.833 -0.666992 64.5 -2s45.5 -2 47.5 -2c12.667 0 34.334 0.666992 65.001 2s47 2 49 2
c11.333 0 17 -4.66699 17 -14c0 -5.33301 -2.5 -8.83301 -7.5 -10.5s-11.167 -2.5 -18.5 -2.5c-28.667 0 -46.667 -4 -54 -12s-11 -24 -11 -48v-22v-186c0 -10.667 2 -16 6 -16s7.66699 2.66699 11 8l188 189l28 30c14 16.667 21 28.334 21 35.001
c0 8.66699 -3 14.5 -9 17.5s-13.667 4.5 -23 4.5h-18c-8 2 -12 6.33301 -12 13c0 9.33301 5.66699 14 17 14c13.333 0 34.833 -0.666992 64.5 -2s45.5 -2 47.5 -2c11.333 0 28 0.666992 50 2s38.333 2 49 2c10 0 15 -4.33301 15 -13c0 -6 -3.16699 -9.83301 -9.5 -11.5
s-13.166 -2.5 -20.499 -2.5c-16.667 0 -29.334 -0.5 -38.001 -1.5s-19 -4.16699 -31 -9.5s-26.167 -14.333 -42.5 -27s-30.5 -25.334 -42.5 -38.001l-107 -108c-6 -5.33301 -11 -10 -15 -14c-6.66699 -7.33301 -10 -13 -10 -17c0 -2.66699 2.66699 -7.66699 8 -15
c1.33301 -2 5 -6.66699 11 -14l180 -227c15.333 -20 26.666 -34 33.999 -42c14.667 -17.333 27 -30.333 37 -39c17.333 -15.333 35.333 -23 54 -23c8 0 14.333 -0.666992 19 -2s7 -4.66602 7 -9.99902c0 -8.66699 -7.33301 -13 -22 -13c-14 0 -37.5 0.666992 -70.5 2
s-50.833 2 -53.5 2c-12 -0 -32.5 -0.666992 -61.5 -2s-44.167 -2 -45.5 -2c-14 0 -21 3.66699 -21 11c0 6 2.33301 9.5 7 10.5s11.667 1.5 21 1.5c16.667 0 27.334 0.666992 32.001 2c13.333 4 20 11.667 20 23c0 7.33301 -4.33301 17.333 -13 30
c-2 2.66699 -9.33301 11.667 -22 27l-156 199c-3.33301 4 -6.66602 8.33301 -9.99902 13c-6 6.66699 -10.667 10 -14 10s-8.66602 -3.66699 -15.999 -11l-15.5 -15c-5.66699 -5.33301 -11.834 -11.5 -18.501 -18.5s-10 -14.167 -10 -21.5v-153
c0 -36.667 2 -58.334 6 -65.001c7.33301 -12 27 -18 59 -18c8 0 14.333 -0.666992 19 -2s7 -4.66602 7 -9.99902c0 -8.66699 -5.66699 -13 -17 -13c-13.333 0 -34.833 0.666992 -64.5 2s-45.5 2 -47.5 2c-12.667 -0 -34.334 -0.666992 -65.001 -2s-47 -2 -49 -2
c-11.333 0 -17 4.33301 -17 13c0 6 2.16699 9.5 6.5 10.5s10.5 1.5 18.5 1.5c38 0 59 9.33301 63 28c1.33301 6 2 24.333 2 55v410z" />
    <glyph glyph-name="Ecircumflex" unicode="&#x41a;" horiz-adv-x="660" 
d="M116 514l-0.000976562 21.998c0 24.667 -3 40.334 -9 47.001c-8 8.66699 -26.667 13 -56 13c-16.667 0 -25 4.33301 -25 13c0 9.33301 5.66699 14 17 14c13.333 0 34.833 -0.666992 64.5 -2s45.5 -2 47.5 -2c12.667 0 34.334 0.666992 65.001 2s47 2 49 2
c11.333 0 17 -4.66699 17 -14c0 -5.33301 -2.5 -8.83301 -7.5 -10.5s-11.167 -2.5 -18.5 -2.5c-28.667 0 -46.667 -4 -54 -12s-11 -24 -11 -48v-22v-186c0 -10.667 2 -16 6 -16s7.66699 2.66699 11 8l188 189l28 30c14 16.667 21 28.334 21 35.001
c0 8.66699 -3 14.5 -9 17.5s-13.667 4.5 -23 4.5h-18c-8 2 -12 6.33301 -12 13c0 9.33301 5.66699 14 17 14c13.333 0 34.833 -0.666992 64.5 -2s45.5 -2 47.5 -2c11.333 0 28 0.666992 50 2s38.333 2 49 2c10 0 15 -4.33301 15 -13c0 -6 -3.16699 -9.83301 -9.5 -11.5
s-13.166 -2.5 -20.499 -2.5c-16.667 0 -29.334 -0.5 -38.001 -1.5s-19 -4.16699 -31 -9.5s-26.167 -14.333 -42.5 -27s-30.5 -25.334 -42.5 -38.001l-107 -108c-6 -5.33301 -11 -10 -15 -14c-6.66699 -7.33301 -10 -13 -10 -17c0 -2.66699 2.66699 -7.66699 8 -15
c1.33301 -2 5 -6.66699 11 -14l180 -227c15.333 -20 26.666 -34 33.999 -42c14.667 -17.333 27 -30.333 37 -39c17.333 -15.333 35.333 -23 54 -23c8 0 14.333 -0.666992 19 -2s7 -4.66602 7 -9.99902c0 -8.66699 -7.33301 -13 -22 -13c-14 0 -37.5 0.666992 -70.5 2
s-50.833 2 -53.5 2c-12 -0 -32.5 -0.666992 -61.5 -2s-44.167 -2 -45.5 -2c-14 0 -21 3.66699 -21 11c0 6 2.33301 9.5 7 10.5s11.667 1.5 21 1.5c16.667 0 27.334 0.666992 32.001 2c13.333 4 20 11.667 20 23c0 7.33301 -4.33301 17.333 -13 30
c-2 2.66699 -9.33301 11.667 -22 27l-156 199c-3.33301 4 -6.66602 8.33301 -9.99902 13c-6 6.66699 -10.667 10 -14 10s-8.66602 -3.66699 -15.999 -11l-15.5 -15c-5.66699 -5.33301 -11.834 -11.5 -18.501 -18.5s-10 -14.167 -10 -21.5v-153
c0 -36.667 2 -58.334 6 -65.001c7.33301 -12 27 -18 59 -18c8 0 14.333 -0.666992 19 -2s7 -4.66602 7 -9.99902c0 -8.66699 -5.66699 -13 -17 -13c-13.333 0 -34.833 0.666992 -64.5 2s-45.5 2 -47.5 2c-12.667 -0 -34.334 -0.666992 -65.001 -2s-47 -2 -49 -2
c-11.333 0 -17 4.33301 -17 13c0 6 2.16699 9.5 6.5 10.5s10.5 1.5 18.5 1.5c38 0 59 9.33301 63 28c1.33301 6 2 24.333 2 55v410z" />
    <glyph glyph-name="Edieresis" unicode="&#xcb;" horiz-adv-x="640" 
d="M263 596c-32.667 0 -52.999 -5.66309 -60.999 -16.9961c-5.33301 -8 -8 -29.667 -8 -65v-270c0 -90 -19.333 -159.333 -58 -208c-30.667 -38.667 -67 -58 -109 -58c-18 0 -34.5 4.66699 -49.5 14s-22.5 22.666 -22.5 39.999c0 11.333 4.5 21.166 13.5 29.499
s19.5 12.5 31.5 12.5c10 0 18.5 -2.66699 25.5 -8s13.5 -12.333 19.5 -21s11.5 -15.167 16.5 -19.5s10.833 -6.5 17.5 -6.5c7.33301 0 15.666 4.66699 24.999 14s17 19.666 23 30.999c11.333 20.667 19.333 39.667 24 57c8 30 12 70.667 12 122v271v22
c0 24.667 -3 40.334 -9 47.001c-8 8.66699 -26.667 13 -56 13c-16.667 0 -25 4.33301 -25 13c0 9.33301 5.66699 14 17 14c13.333 0 34.833 -0.666992 64.5 -2s45.5 -2 47.5 -2h301c10.667 0 28.5 0.666992 53.5 2s38.5 2 40.5 2c11.333 0 17 -4.33301 17 -13
c0 -9.33301 -8.66699 -14 -26 -14c-32 0 -50.833 -4.5 -56.5 -13.5s-8.5 -31.167 -8.5 -66.5v-412c0 -36.667 2 -58.334 6 -65.001c7.33301 -12 27 -18 59 -18c16.667 0 25 -4 25 -12c0 -8.66699 -5.66699 -13 -17 -13c-12.667 0 -34.167 0.666992 -64.5 2
s-46.833 2 -49.5 2c-13.333 0 -34.833 -0.666992 -64.5 -2s-45.5 -2 -47.5 -2c-11.333 0 -17 4.33301 -17 13c0 6 2.16699 9.5 6.5 10.5s10.833 1.5 19.5 1.5c32 0 51.333 5.33301 58 16c4.66699 7.33301 7 29.666 7 66.999v437c0 18 -3.5 31.667 -10.5 41
s-17.5 14 -31.5 14h-139z" />
    <glyph glyph-name="Edieresis" unicode="&#x41b;" horiz-adv-x="640" 
d="M263 596c-32.667 0 -52.999 -5.66309 -60.999 -16.9961c-5.33301 -8 -8 -29.667 -8 -65v-270c0 -90 -19.333 -159.333 -58 -208c-30.667 -38.667 -67 -58 -109 -58c-18 0 -34.5 4.66699 -49.5 14s-22.5 22.666 -22.5 39.999c0 11.333 4.5 21.166 13.5 29.499
s19.5 12.5 31.5 12.5c10 0 18.5 -2.66699 25.5 -8s13.5 -12.333 19.5 -21s11.5 -15.167 16.5 -19.5s10.833 -6.5 17.5 -6.5c7.33301 0 15.666 4.66699 24.999 14s17 19.666 23 30.999c11.333 20.667 19.333 39.667 24 57c8 30 12 70.667 12 122v271v22
c0 24.667 -3 40.334 -9 47.001c-8 8.66699 -26.667 13 -56 13c-16.667 0 -25 4.33301 -25 13c0 9.33301 5.66699 14 17 14c13.333 0 34.833 -0.666992 64.5 -2s45.5 -2 47.5 -2h301c10.667 0 28.5 0.666992 53.5 2s38.5 2 40.5 2c11.333 0 17 -4.33301 17 -13
c0 -9.33301 -8.66699 -14 -26 -14c-32 0 -50.833 -4.5 -56.5 -13.5s-8.5 -31.167 -8.5 -66.5v-412c0 -36.667 2 -58.334 6 -65.001c7.33301 -12 27 -18 59 -18c16.667 0 25 -4 25 -12c0 -8.66699 -5.66699 -13 -17 -13c-12.667 0 -34.167 0.666992 -64.5 2
s-46.833 2 -49.5 2c-13.333 0 -34.833 -0.666992 -64.5 -2s-45.5 -2 -47.5 -2c-11.333 0 -17 4.33301 -17 13c0 6 2.16699 9.5 6.5 10.5s10.833 1.5 19.5 1.5c32 0 51.333 5.33301 58 16c4.66699 7.33301 7 29.666 7 66.999v437c0 18 -3.5 31.667 -10.5 41
s-17.5 14 -31.5 14h-139z" />
    <glyph glyph-name="Igrave" unicode="&#xcc;" horiz-adv-x="800" 
d="M401 138l205.999 472c4 8.66699 13 13 27 13h111c6 0.666992 10.667 1 14 1c10 0 15 -4 15 -12c0 -5.33301 -1.66699 -9.33301 -5 -12s-9.66602 -4 -18.999 -4h-17c-10.667 0 -17 -0.333008 -19 -1s-4.66699 -3 -8 -7s-5.66602 -10.167 -6.99902 -18.5
s-2 -16.833 -2 -25.5c0.666992 -13.333 1 -22.333 1 -27v-413c0 -25.333 0.5 -41.833 1.5 -49.5s4 -14.334 9 -20.001s10.5 -9.33398 16.5 -11.001s13.667 -2.5 23 -2.5h19c8 -1.33301 12 -5.66602 12 -12.999c0 -8 -6.33301 -12 -19 -12
c-11.333 0 -29.833 0.666992 -55.5 2s-39.167 2 -40.5 2c-14 0 -37 -0.666992 -69 -2s-48.667 -2 -50 -2c-12.667 0 -19 4 -19 12c0 6.66699 2.66699 10.5 8 11.5s13 1.5 23 1.5c9.33301 0 18 1.16699 26 3.5s15.333 6.16602 22 11.499s10.667 13.333 12 24
s2 25.334 2 44.001v453h-7l-222 -520c-2.66699 -6 -4.33398 -9.66699 -5.00098 -11c-2.66699 -4.66699 -6 -7 -10 -7c-6.66699 0 -11.667 6.33301 -15 19l-197 507h-7l-29 -412c0 -42 2 -68.333 6 -79c8 -22 28 -33 60 -33c10 0 17.667 -0.666992 23 -2s8 -5 8 -11
c0 -8 -7.33301 -12 -22 -12c-10 0 -25 0.666992 -45 2s-35 2 -45 2s-27 -0.666992 -51 -2s-36.667 -2 -38 -2c-10.667 0 -16 4 -16 12c0 5.33301 2.5 8.83301 7.5 10.5s11.167 2.5 18.5 2.5c26 0 43.333 6.33301 52 19c6.66699 10 10 28.667 10 56l31 443
c0 26.667 -2 42.334 -6 47.001c-6 6.66699 -22 10 -48 10c-6.66699 0 -12.334 1 -17.001 3s-7 6.33301 -7 13c0 8 5 12 15 12c6.66699 -0.666992 11.334 -1 14.001 -1h116c8.66699 0 14.667 -2.66699 18 -8l8 -21z" />
    <glyph glyph-name="Igrave" unicode="&#x41c;" horiz-adv-x="800" 
d="M401 138l205.999 472c4 8.66699 13 13 27 13h111c6 0.666992 10.667 1 14 1c10 0 15 -4 15 -12c0 -5.33301 -1.66699 -9.33301 -5 -12s-9.66602 -4 -18.999 -4h-17c-10.667 0 -17 -0.333008 -19 -1s-4.66699 -3 -8 -7s-5.66602 -10.167 -6.99902 -18.5
s-2 -16.833 -2 -25.5c0.666992 -13.333 1 -22.333 1 -27v-413c0 -25.333 0.5 -41.833 1.5 -49.5s4 -14.334 9 -20.001s10.5 -9.33398 16.5 -11.001s13.667 -2.5 23 -2.5h19c8 -1.33301 12 -5.66602 12 -12.999c0 -8 -6.33301 -12 -19 -12
c-11.333 0 -29.833 0.666992 -55.5 2s-39.167 2 -40.5 2c-14 0 -37 -0.666992 -69 -2s-48.667 -2 -50 -2c-12.667 0 -19 4 -19 12c0 6.66699 2.66699 10.5 8 11.5s13 1.5 23 1.5c9.33301 0 18 1.16699 26 3.5s15.333 6.16602 22 11.499s10.667 13.333 12 24
s2 25.334 2 44.001v453h-7l-222 -520c-2.66699 -6 -4.33398 -9.66699 -5.00098 -11c-2.66699 -4.66699 -6 -7 -10 -7c-6.66699 0 -11.667 6.33301 -15 19l-197 507h-7l-29 -412c0 -42 2 -68.333 6 -79c8 -22 28 -33 60 -33c10 0 17.667 -0.666992 23 -2s8 -5 8 -11
c0 -8 -7.33301 -12 -22 -12c-10 0 -25 0.666992 -45 2s-35 2 -45 2s-27 -0.666992 -51 -2s-36.667 -2 -38 -2c-10.667 0 -16 4 -16 12c0 5.33301 2.5 8.83301 7.5 10.5s11.167 2.5 18.5 2.5c26 0 43.333 6.33301 52 19c6.66699 10 10 28.667 10 56l31 443
c0 26.667 -2 42.334 -6 47.001c-6 6.66699 -22 10 -48 10c-6.66699 0 -12.334 1 -17.001 3s-7 6.33301 -7 13c0 8 5 12 15 12c6.66699 -0.666992 11.334 -1 14.001 -1h116c8.66699 0 14.667 -2.66699 18 -8l8 -21z" />
    <glyph glyph-name="Iacute" unicode="&#xcd;" horiz-adv-x="740" 
d="M194 104c0 -36.667 2 -58.3359 6 -65.0029c7.33301 -12 27 -18 59 -18c8 0 14.333 -0.666992 19 -2s7 -4.66602 7 -9.99902c0 -8.66699 -5.66699 -13 -17 -13c-13.333 0 -34.833 0.666992 -64.5 2s-45.5 2 -47.5 2c-12.667 0 -34.334 -0.666992 -65.001 -2s-47 -2 -49 -2
c-11.333 0 -17 4.33301 -17 13c0 6 2.16699 9.5 6.5 10.5s10.5 1.5 18.5 1.5c38 0 59 9.33301 63 28c1.33301 6 2 24.333 2 55v410v22c0 24.667 -3 40.334 -9 47.001c-8 8.66699 -26.667 13 -56 13c-16.667 0 -25 4.33301 -25 13c0 9.33301 5.66699 14 17 14
c13.333 0 34.833 -0.666992 64.5 -2s45.5 -2 47.5 -2c12.667 0 34.334 0.666992 65.001 2s47 2 49 2c11.333 0 17 -4.66699 17 -14c0 -5.33301 -2.5 -8.83301 -7.5 -10.5s-11.167 -2.5 -18.5 -2.5c-28.667 0 -46.667 -4 -54 -12s-11 -24 -11 -48v-22v-129
c0 -18.667 1.16699 -29.5 3.5 -32.5s12.833 -4.5 31.5 -4.5h280c16.667 0 26.667 1.66699 30 5s5 14 5 32v129v22c0 24.667 -3 40.334 -9 47.001c-8 8.66699 -26.667 13 -56 13c-16.667 0 -25 4.33301 -25 13c0 9.33301 5.66699 14 17 14c13.333 0 34.833 -0.666992 64.5 -2
s45.5 -2 47.5 -2c12.667 0 34.334 0.666992 65.001 2s47 2 49 2c11.333 0 17 -4.66699 17 -14c0 -5.33301 -2.5 -8.83301 -7.5 -10.5s-11.167 -2.5 -18.5 -2.5c-28.667 0 -46.667 -4 -54 -12s-11 -24 -11 -48v-22v-410c0 -36.667 2 -58.334 6 -65.001
c7.33301 -12 27 -18 59 -18c8 0 14.333 -0.666992 19 -2s7 -4.66602 7 -9.99902c0 -8.66699 -5.66699 -13 -17 -13c-13.333 0 -34.833 0.666992 -64.5 2s-45.5 2 -47.5 2c-12.667 -0 -34.334 -0.666992 -65.001 -2s-47 -2 -49 -2c-11.333 0 -17 4.33301 -17 13
c0 6 2.16699 9.5 6.5 10.5s10.5 1.5 18.5 1.5c38 0 59 9.33301 63 28c1.33301 6 2 24.333 2 55v179c0 18.667 -1.5 29.5 -4.5 32.5s-13.167 4.5 -30.5 4.5h-281c-17.333 0 -27.333 -1.66699 -30 -5s-4 -14 -4 -32v-179z" />
    <glyph glyph-name="Iacute" unicode="&#x41d;" horiz-adv-x="740" 
d="M194 104c0 -36.667 2 -58.3359 6 -65.0029c7.33301 -12 27 -18 59 -18c8 0 14.333 -0.666992 19 -2s7 -4.66602 7 -9.99902c0 -8.66699 -5.66699 -13 -17 -13c-13.333 0 -34.833 0.666992 -64.5 2s-45.5 2 -47.5 2c-12.667 0 -34.334 -0.666992 -65.001 -2s-47 -2 -49 -2
c-11.333 0 -17 4.33301 -17 13c0 6 2.16699 9.5 6.5 10.5s10.5 1.5 18.5 1.5c38 0 59 9.33301 63 28c1.33301 6 2 24.333 2 55v410v22c0 24.667 -3 40.334 -9 47.001c-8 8.66699 -26.667 13 -56 13c-16.667 0 -25 4.33301 -25 13c0 9.33301 5.66699 14 17 14
c13.333 0 34.833 -0.666992 64.5 -2s45.5 -2 47.5 -2c12.667 0 34.334 0.666992 65.001 2s47 2 49 2c11.333 0 17 -4.66699 17 -14c0 -5.33301 -2.5 -8.83301 -7.5 -10.5s-11.167 -2.5 -18.5 -2.5c-28.667 0 -46.667 -4 -54 -12s-11 -24 -11 -48v-22v-129
c0 -18.667 1.16699 -29.5 3.5 -32.5s12.833 -4.5 31.5 -4.5h280c16.667 0 26.667 1.66699 30 5s5 14 5 32v129v22c0 24.667 -3 40.334 -9 47.001c-8 8.66699 -26.667 13 -56 13c-16.667 0 -25 4.33301 -25 13c0 9.33301 5.66699 14 17 14c13.333 0 34.833 -0.666992 64.5 -2
s45.5 -2 47.5 -2c12.667 0 34.334 0.666992 65.001 2s47 2 49 2c11.333 0 17 -4.66699 17 -14c0 -5.33301 -2.5 -8.83301 -7.5 -10.5s-11.167 -2.5 -18.5 -2.5c-28.667 0 -46.667 -4 -54 -12s-11 -24 -11 -48v-22v-410c0 -36.667 2 -58.334 6 -65.001
c7.33301 -12 27 -18 59 -18c8 0 14.333 -0.666992 19 -2s7 -4.66602 7 -9.99902c0 -8.66699 -5.66699 -13 -17 -13c-13.333 0 -34.833 0.666992 -64.5 2s-45.5 2 -47.5 2c-12.667 -0 -34.334 -0.666992 -65.001 -2s-47 -2 -49 -2c-11.333 0 -17 4.33301 -17 13
c0 6 2.16699 9.5 6.5 10.5s10.5 1.5 18.5 1.5c38 0 59 9.33301 63 28c1.33301 6 2 24.333 2 55v179c0 18.667 -1.5 29.5 -4.5 32.5s-13.167 4.5 -30.5 4.5h-281c-17.333 0 -27.333 -1.66699 -30 -5s-4 -14 -4 -32v-179z" />
    <glyph glyph-name="Icircumflex" unicode="&#xce;" horiz-adv-x="780" 
d="M390 639c96.667 0 178.832 -30.5 246.499 -91.5s101.5 -138.833 101.5 -233.5s-33.667 -172.667 -101 -234s-149.666 -92 -246.999 -92c-92 0 -172.667 31.333 -242 94c-71.333 64.667 -107 142 -107 232c0 89.333 35.167 165.833 105.5 229.5s151.5 95.5 243.5 95.5z
M580.998 521c-24.667 29.333 -53.001 51.832 -85.001 67.499s-66.667 23.5 -104 23.5c-39.333 0 -76.166 -8 -110.499 -24s-63 -38.5 -86 -67.5s-39.5 -60.833 -49.5 -95.5s-15 -71.667 -15 -111c0 -40 5.16699 -77.833 15.5 -113.5s27.5 -67.667 51.5 -96
s52.833 -50.166 86.5 -65.499s69.5 -23 107.5 -23c37.333 0 72.833 8.5 106.5 25.5s62 40 85 69s39.333 60.5 49 94.5s14.5 70.333 14.5 109c0 40.667 -5 78 -15 112s-27 65.667 -51 95z" />
    <glyph glyph-name="Icircumflex" unicode="&#x41e;" horiz-adv-x="780" 
d="M390 639c96.667 0 178.832 -30.5 246.499 -91.5s101.5 -138.833 101.5 -233.5s-33.667 -172.667 -101 -234s-149.666 -92 -246.999 -92c-92 0 -172.667 31.333 -242 94c-71.333 64.667 -107 142 -107 232c0 89.333 35.167 165.833 105.5 229.5s151.5 95.5 243.5 95.5z
M580.998 521c-24.667 29.333 -53.001 51.832 -85.001 67.499s-66.667 23.5 -104 23.5c-39.333 0 -76.166 -8 -110.499 -24s-63 -38.5 -86 -67.5s-39.5 -60.833 -49.5 -95.5s-15 -71.667 -15 -111c0 -40 5.16699 -77.833 15.5 -113.5s27.5 -67.667 51.5 -96
s52.833 -50.166 86.5 -65.499s69.5 -23 107.5 -23c37.333 0 72.833 8.5 106.5 25.5s62 40 85 69s39.333 60.5 49 94.5s14.5 70.333 14.5 109c0 40.667 -5 78 -15 112s-27 65.667 -51 95z" />
    <glyph glyph-name="Idieresis" unicode="&#xcf;" horiz-adv-x="740" 
d="M194 104c0 -36.667 2.00195 -58.335 6.00195 -65.002c7.33301 -12 27 -18 59 -18c8 0 14.333 -0.666992 19 -2s7 -4.66602 7 -9.99902c0 -8.66699 -5.66699 -13 -17 -13c-13.333 0 -34.833 0.666992 -64.5 2s-45.5 2 -47.5 2c-12.667 0 -34.334 -0.666992 -65.001 -2
s-47 -2 -49 -2c-11.333 0 -17 4.33301 -17 13c0 6 2.16699 9.5 6.5 10.5s10.5 1.5 18.5 1.5c38 0 59 9.33301 63 28c1.33301 6 2 24.333 2 55v410v22c0 24.667 -3 40.334 -9 47.001c-8 8.66699 -26.667 13 -56 13c-16.667 0 -25 4.33301 -25 13c0 9.33301 5.66699 14 17 14
l187 -4h280l188 4c11.333 0 17 -4.66699 17 -14c0 -5.33301 -2.5 -8.83301 -7.5 -10.5s-11.167 -2.5 -18.5 -2.5c-28.667 0 -46.667 -4 -54 -12s-11 -24 -11 -48v-22v-410c0 -36.667 2 -58.334 6 -65.001c7.33301 -12 27 -18 59 -18c8 0 14.333 -0.666992 19 -2
s7 -4.66602 7 -9.99902c0 -8.66699 -5.66699 -13 -17 -13c-13.333 0 -34.833 0.666992 -64.5 2s-45.5 2 -47.5 2c-12.667 -0 -34.334 -0.666992 -65.001 -2s-47 -2 -49 -2c-11.333 0 -17 4.33301 -17 13c0 6 2.16699 9.5 6.5 10.5s10.5 1.5 18.5 1.5c38 0 59 9.33301 63 28
c1.33301 6 2 24.333 2 55v450c0 18.667 -1.5 29.5 -4.5 32.5s-13.167 4.5 -30.5 4.5h-277c-18 0 -28.833 -1.83301 -32.5 -5.5s-5.5 -14.167 -5.5 -31.5v-450z" />
    <glyph glyph-name="Idieresis" unicode="&#x41f;" horiz-adv-x="740" 
d="M194 104c0 -36.667 2.00195 -58.335 6.00195 -65.002c7.33301 -12 27 -18 59 -18c8 0 14.333 -0.666992 19 -2s7 -4.66602 7 -9.99902c0 -8.66699 -5.66699 -13 -17 -13c-13.333 0 -34.833 0.666992 -64.5 2s-45.5 2 -47.5 2c-12.667 0 -34.334 -0.666992 -65.001 -2
s-47 -2 -49 -2c-11.333 0 -17 4.33301 -17 13c0 6 2.16699 9.5 6.5 10.5s10.5 1.5 18.5 1.5c38 0 59 9.33301 63 28c1.33301 6 2 24.333 2 55v410v22c0 24.667 -3 40.334 -9 47.001c-8 8.66699 -26.667 13 -56 13c-16.667 0 -25 4.33301 -25 13c0 9.33301 5.66699 14 17 14
l187 -4h280l188 4c11.333 0 17 -4.66699 17 -14c0 -5.33301 -2.5 -8.83301 -7.5 -10.5s-11.167 -2.5 -18.5 -2.5c-28.667 0 -46.667 -4 -54 -12s-11 -24 -11 -48v-22v-410c0 -36.667 2 -58.334 6 -65.001c7.33301 -12 27 -18 59 -18c8 0 14.333 -0.666992 19 -2
s7 -4.66602 7 -9.99902c0 -8.66699 -5.66699 -13 -17 -13c-13.333 0 -34.833 0.666992 -64.5 2s-45.5 2 -47.5 2c-12.667 -0 -34.334 -0.666992 -65.001 -2s-47 -2 -49 -2c-11.333 0 -17 4.33301 -17 13c0 6 2.16699 9.5 6.5 10.5s10.5 1.5 18.5 1.5c38 0 59 9.33301 63 28
c1.33301 6 2 24.333 2 55v450c0 18.667 -1.5 29.5 -4.5 32.5s-13.167 4.5 -30.5 4.5h-277c-18 0 -28.833 -1.83301 -32.5 -5.5s-5.5 -14.167 -5.5 -31.5v-450z" />
    <glyph glyph-name="Eth" unicode="&#xd0;" 
d="M114 514l-0.00195312 22c0 24.667 -3 40.334 -9 47.001c-8 8.66699 -26.333 13 -55 13c-16.667 0 -25 4.33301 -25 13c0 9.33301 5.66699 14 17 14c12 0 29.667 -0.666992 53 -2s41 -2 53 -2c18.667 0 49.334 0.666992 92.001 2s65 2 67 2
c28.667 0 53.334 -2.33301 74.001 -7s41.334 -14 62.001 -28s37.667 -33.5 51 -58.5s20 -50.833 20 -77.5c0 -52.667 -19 -96.334 -57 -131.001s-83.667 -52 -137 -52c-12.667 0 -26.334 2.33301 -41.001 7l-48 16l-12 3.5c-3.33301 1 -6.66602 1.5 -9.99902 1.5
c-8.66699 0 -13.5 -3.33301 -14.5 -10s-1.5 -12.667 -1.5 -18v-165c0 -36.667 2 -58.334 6 -65.001c7.33301 -12 27 -18 59 -18c8 0 14.333 -0.666992 19 -2s7 -4.66602 7 -9.99902c0 -8.66699 -5.66699 -13 -17 -13c-13.333 0 -34.833 0.666992 -64.5 2s-45.5 2 -47.5 2
c-12.667 -0 -34.334 -0.666992 -65.001 -2s-47 -2 -49 -2c-11.333 0 -17 4.33301 -17 13c0 6 2.16699 9.5 6.5 10.5s10.5 1.5 18.5 1.5c38 0 59 9.33301 63 28c1.33301 6 2 24.333 2 55v410zM192.998 371c-0.666992 -8.66699 -1 -15.3359 -1 -20.0029
c0 -7.33301 1.16699 -13.666 3.5 -18.999s7.33301 -10.333 15 -15s20 -9 37 -13s30.833 -6 41.5 -6c40.667 0 74.5 14.833 101.5 44.5s40.5 64.834 40.5 105.501c0 24.667 -4.16699 47.334 -12.5 68.001s-21.5 38.667 -39.5 54c-14 12.667 -30.667 21.667 -50 27
s-40.666 8 -63.999 8c-32.667 0 -52.834 -5.66699 -60.501 -17s-11.5 -34.333 -11.5 -69v-148z" />
    <glyph glyph-name="Eth" unicode="&#x420;" 
d="M114 514l-0.00195312 22c0 24.667 -3 40.334 -9 47.001c-8 8.66699 -26.333 13 -55 13c-16.667 0 -25 4.33301 -25 13c0 9.33301 5.66699 14 17 14c12 0 29.667 -0.666992 53 -2s41 -2 53 -2c18.667 0 49.334 0.666992 92.001 2s65 2 67 2
c28.667 0 53.334 -2.33301 74.001 -7s41.334 -14 62.001 -28s37.667 -33.5 51 -58.5s20 -50.833 20 -77.5c0 -52.667 -19 -96.334 -57 -131.001s-83.667 -52 -137 -52c-12.667 0 -26.334 2.33301 -41.001 7l-48 16l-12 3.5c-3.33301 1 -6.66602 1.5 -9.99902 1.5
c-8.66699 0 -13.5 -3.33301 -14.5 -10s-1.5 -12.667 -1.5 -18v-165c0 -36.667 2 -58.334 6 -65.001c7.33301 -12 27 -18 59 -18c8 0 14.333 -0.666992 19 -2s7 -4.66602 7 -9.99902c0 -8.66699 -5.66699 -13 -17 -13c-13.333 0 -34.833 0.666992 -64.5 2s-45.5 2 -47.5 2
c-12.667 -0 -34.334 -0.666992 -65.001 -2s-47 -2 -49 -2c-11.333 0 -17 4.33301 -17 13c0 6 2.16699 9.5 6.5 10.5s10.5 1.5 18.5 1.5c38 0 59 9.33301 63 28c1.33301 6 2 24.333 2 55v410zM192.998 371c-0.666992 -8.66699 -1 -15.3359 -1 -20.0029
c0 -7.33301 1.16699 -13.666 3.5 -18.999s7.33301 -10.333 15 -15s20 -9 37 -13s30.833 -6 41.5 -6c40.667 0 74.5 14.833 101.5 44.5s40.5 64.834 40.5 105.501c0 24.667 -4.16699 47.334 -12.5 68.001s-21.5 38.667 -39.5 54c-14 12.667 -30.667 21.667 -50 27
s-40.666 8 -63.999 8c-32.667 0 -52.834 -5.66699 -60.501 -17s-11.5 -34.333 -11.5 -69v-148z" />
    <glyph glyph-name="Ntilde" unicode="&#xd1;" horiz-adv-x="620" 
d="M578 496c0 -8.66699 -3.66797 -13.002 -11.001 -13.002c-16.667 33.333 -39 62.333 -67 87c-30.667 27.333 -71.334 41 -122.001 41c-79.333 0 -142 -30 -188 -90c-42 -54.667 -63 -122.667 -63 -204c0 -73.333 20.667 -138.666 62 -195.999
c24.667 -34 52.5 -60.167 83.5 -78.5s66.167 -27.5 105.5 -27.5c50 0 90.667 16.333 122 49l72 108c8.66699 0 12.334 -4.33301 11.001 -13l-5 -81c0 -16 -1.33301 -26 -4 -30s-12 -10 -28 -18c-59.333 -28 -119.666 -42 -180.999 -42
c-90.667 0 -167.834 32.167 -231.501 96.5s-95.5 141.5 -95.5 231.5c0 90.667 34.5 167.167 103.5 229.5s150.167 93.5 243.5 93.5c21.333 0 47.833 -2.66699 79.5 -8s57.834 -11.666 78.501 -18.999c14 -4.66699 22.333 -13 25 -25c0 -1.33301 1 -10 3 -26z" />
    <glyph glyph-name="Ntilde" unicode="&#x421;" horiz-adv-x="620" 
d="M578 496c0 -8.66699 -3.66797 -13.002 -11.001 -13.002c-16.667 33.333 -39 62.333 -67 87c-30.667 27.333 -71.334 41 -122.001 41c-79.333 0 -142 -30 -188 -90c-42 -54.667 -63 -122.667 -63 -204c0 -73.333 20.667 -138.666 62 -195.999
c24.667 -34 52.5 -60.167 83.5 -78.5s66.167 -27.5 105.5 -27.5c50 0 90.667 16.333 122 49l72 108c8.66699 0 12.334 -4.33301 11.001 -13l-5 -81c0 -16 -1.33301 -26 -4 -30s-12 -10 -28 -18c-59.333 -28 -119.666 -42 -180.999 -42
c-90.667 0 -167.834 32.167 -231.501 96.5s-95.5 141.5 -95.5 231.5c0 90.667 34.5 167.167 103.5 229.5s150.167 93.5 243.5 93.5c21.333 0 47.833 -2.66699 79.5 -8s57.834 -11.666 78.501 -18.999c14 -4.66699 22.333 -13 25 -25c0 -1.33301 1 -10 3 -26z" />
    <glyph glyph-name="Ograve" unicode="&#xd2;" horiz-adv-x="580" 
d="M331 104c0 -36.667 2.00684 -58.334 6.00684 -65.001c7.33301 -12 27 -18 59 -18c8 0 14.333 -0.666992 19 -2s7 -4.66602 7 -9.99902c0 -8.66699 -5.66699 -13 -17 -13c-13.333 0 -34.833 0.666992 -64.5 2s-45.5 2 -47.5 2c-12.667 -0 -34.334 -0.666992 -65.001 -2
s-47 -2 -49 -2c-11.333 0 -17 4.33301 -17 13c0 6 2.16699 9.5 6.5 10.5s10.5 1.5 18.5 1.5c38 0 59 9.33301 63 28c1.33301 6 2 24.333 2 55v459c0 12.667 -1.5 20.834 -4.5 24.501s-9.16699 5.5 -18.5 5.5c-8.66699 -0.666992 -15.667 -1 -21 -1
c-48.667 0 -84.334 -5.16699 -107.001 -15.5s-45.667 -34.833 -69 -73.5c-2.66699 -4.66699 -5.83398 -9.83398 -9.50098 -15.501s-7.83398 -8.5 -12.501 -8.5c-6.66699 0 -10 4 -10 12c0 6 2 14 6 24l39 130c2.66699 9.33301 7 14 13 14s9 -3.66699 9 -11
c1.33301 -10.667 3.66602 -17.5 6.99902 -20.5s8.16602 -5.16699 14.499 -6.5s12.166 -2 17.499 -2h19h363h19c12 0 21.167 1.33301 27.5 4s11.333 9.33398 15 20.001s8.5 16 14.5 16c4 0 6.66699 -3 8 -9s2 -9.66699 2 -11c-0.666992 -8.66699 -1 -14 -1 -16l-6 -122
c0 -11.333 -4 -17 -12 -17c-4 0 -7.83301 5.16699 -11.5 15.5s-7.16699 21.166 -10.5 32.499c-5.33301 14 -11.333 25.333 -18 34c-10 12 -20.667 19.333 -32 22s-27.666 4 -48.999 4h-58c-22.667 0 -35.834 -1.83301 -39.501 -5.5s-5.5 -18.167 -5.5 -43.5v-439z" />
    <glyph glyph-name="Ograve" unicode="&#x422;" horiz-adv-x="580" 
d="M331 104c0 -36.667 2.00684 -58.334 6.00684 -65.001c7.33301 -12 27 -18 59 -18c8 0 14.333 -0.666992 19 -2s7 -4.66602 7 -9.99902c0 -8.66699 -5.66699 -13 -17 -13c-13.333 0 -34.833 0.666992 -64.5 2s-45.5 2 -47.5 2c-12.667 -0 -34.334 -0.666992 -65.001 -2
s-47 -2 -49 -2c-11.333 0 -17 4.33301 -17 13c0 6 2.16699 9.5 6.5 10.5s10.5 1.5 18.5 1.5c38 0 59 9.33301 63 28c1.33301 6 2 24.333 2 55v459c0 12.667 -1.5 20.834 -4.5 24.501s-9.16699 5.5 -18.5 5.5c-8.66699 -0.666992 -15.667 -1 -21 -1
c-48.667 0 -84.334 -5.16699 -107.001 -15.5s-45.667 -34.833 -69 -73.5c-2.66699 -4.66699 -5.83398 -9.83398 -9.50098 -15.501s-7.83398 -8.5 -12.501 -8.5c-6.66699 0 -10 4 -10 12c0 6 2 14 6 24l39 130c2.66699 9.33301 7 14 13 14s9 -3.66699 9 -11
c1.33301 -10.667 3.66602 -17.5 6.99902 -20.5s8.16602 -5.16699 14.499 -6.5s12.166 -2 17.499 -2h19h363h19c12 0 21.167 1.33301 27.5 4s11.333 9.33398 15 20.001s8.5 16 14.5 16c4 0 6.66699 -3 8 -9s2 -9.66699 2 -11c-0.666992 -8.66699 -1 -14 -1 -16l-6 -122
c0 -11.333 -4 -17 -12 -17c-4 0 -7.83301 5.16699 -11.5 15.5s-7.16699 21.166 -10.5 32.499c-5.33301 14 -11.333 25.333 -18 34c-10 12 -20.667 19.333 -32 22s-27.666 4 -48.999 4h-58c-22.667 0 -35.834 -1.83301 -39.501 -5.5s-5.5 -18.167 -5.5 -43.5v-439z" />
    <glyph glyph-name="Oacute" unicode="&#xd3;" horiz-adv-x="660" 
d="M344 135l-225.997 381.001c-20.667 34 -32.667 53 -36 57c-14 15.333 -34 23 -60 23c-18.667 0 -28 4.33301 -28 13c0 9.33301 6.66699 14 20 14c10 0 25 -0.666992 45 -2s35 -2 45 -2c15.333 0 38.333 0.666992 69 2s53.667 2 69 2c12 0 18 -4 18 -12
c0 -6.66699 -2.5 -10.834 -7.5 -12.501s-11.5 -2.5 -19.5 -2.5c-16.667 0 -29 -0.833008 -37 -2.5s-12 -7.5 -12 -17.5c0 -6 1.66699 -13.167 5 -21.5s7.33301 -17.166 12 -26.499l179 -311l127 295c5.33301 12.667 9 22.334 11 29.001c4.66699 14 7 24 7 30
c0 10 -4.16699 16.667 -12.5 20s-18.5 5 -30.5 5h-13c-10 0 -17.167 0.5 -21.5 1.5s-6.5 3.83301 -6.5 8.5c0 5.33301 2.5 9.5 7.5 12.5s10.167 4.5 15.5 4.5c10 0 25.333 -0.666992 46 -2s36 -2 46 -2s25 0.666992 45 2s35.333 2 46 2c14 0 21 -5 21 -15
c0 -6 -2.66699 -9.5 -8 -10.5s-12.333 -1.5 -21 -1.5c-30 0 -55.333 -16.667 -76 -50c-6.66699 -10.667 -15.667 -28.334 -27 -53.001l-191 -411c-18.667 -41.333 -41.334 -70 -68.001 -86c-20 -12 -44.667 -18 -74 -18c-18 0 -34.5 4.66699 -49.5 14
s-22.5 22.666 -22.5 39.999c0 11.333 4.5 21.166 13.5 29.499s19.5 12.5 31.5 12.5c10 0 18.5 -2.66699 25.5 -8s13.5 -12.666 19.5 -21.999s10.333 -15 13 -17c6 -5.33301 12.333 -8 19 -8c9.33301 0 19.666 5 30.999 15s19.666 20.333 24.999 31z" />
    <glyph glyph-name="Oacute" unicode="&#x423;" horiz-adv-x="660" 
d="M344 135l-225.997 381.001c-20.667 34 -32.667 53 -36 57c-14 15.333 -34 23 -60 23c-18.667 0 -28 4.33301 -28 13c0 9.33301 6.66699 14 20 14c10 0 25 -0.666992 45 -2s35 -2 45 -2c15.333 0 38.333 0.666992 69 2s53.667 2 69 2c12 0 18 -4 18 -12
c0 -6.66699 -2.5 -10.834 -7.5 -12.501s-11.5 -2.5 -19.5 -2.5c-16.667 0 -29 -0.833008 -37 -2.5s-12 -7.5 -12 -17.5c0 -6 1.66699 -13.167 5 -21.5s7.33301 -17.166 12 -26.499l179 -311l127 295c5.33301 12.667 9 22.334 11 29.001c4.66699 14 7 24 7 30
c0 10 -4.16699 16.667 -12.5 20s-18.5 5 -30.5 5h-13c-10 0 -17.167 0.5 -21.5 1.5s-6.5 3.83301 -6.5 8.5c0 5.33301 2.5 9.5 7.5 12.5s10.167 4.5 15.5 4.5c10 0 25.333 -0.666992 46 -2s36 -2 46 -2s25 0.666992 45 2s35.333 2 46 2c14 0 21 -5 21 -15
c0 -6 -2.66699 -9.5 -8 -10.5s-12.333 -1.5 -21 -1.5c-30 0 -55.333 -16.667 -76 -50c-6.66699 -10.667 -15.667 -28.334 -27 -53.001l-191 -411c-18.667 -41.333 -41.334 -70 -68.001 -86c-20 -12 -44.667 -18 -74 -18c-18 0 -34.5 4.66699 -49.5 14
s-22.5 22.666 -22.5 39.999c0 11.333 4.5 21.166 13.5 29.499s19.5 12.5 31.5 12.5c10 0 18.5 -2.66699 25.5 -8s13.5 -12.666 19.5 -21.999s10.333 -15 13 -17c6 -5.33301 12.333 -8 19 -8c9.33301 0 19.666 5 30.999 15s19.666 20.333 24.999 31z" />
    <glyph glyph-name="Ocircumflex" unicode="&#xd4;" horiz-adv-x="840" 
d="M460 533c100.667 0 180.334 -17.002 239.001 -51.002c66 -38 99 -95.333 99 -172c0 -76 -33 -133.667 -99 -173c-58.667 -34.667 -138.334 -52 -239.001 -52c0 -26.667 2.33301 -43 7 -49c7.33301 -10 26.333 -15 57 -15c8 0 14.333 -0.666992 19 -2
s7 -4.66602 7 -9.99902c0 -8.66699 -5.66699 -13 -17 -13c-13.333 0 -34.833 0.666992 -64.5 2s-45.5 2 -47.5 2c-12.667 0 -34.334 -0.666992 -65.001 -2s-47 -2 -49 -2c-11.333 0 -17 4.33301 -17 13c0 6 2.16699 9.5 6.5 10.5s10.5 1.5 18.5 1.5
c30.667 0 49.667 4.66699 57 14c5.33301 6.66699 8 23.334 8 50.001c-96.667 0 -175 17.333 -235 52c-68.667 39.333 -103 97 -103 173c0 75.333 34 132.333 102 171c60 34 138.667 51 236 51c0 26.667 -2.33301 43 -7 49c-8 10 -27.333 15 -58 15
c-16.667 0 -25 4.33301 -25 13c0 9.33301 5.66699 14 17 14c13.333 0 34.833 -0.666992 64.5 -2s45.5 -2 47.5 -2c12.667 0 34.334 0.666992 65.001 2s47 2 49 2c11.333 0 17 -4.66699 17 -14c0 -5.33301 -2.5 -8.83301 -7.5 -10.5s-11.167 -2.5 -18.5 -2.5
c-30.667 0 -49.667 -4.66699 -57 -14c-4.66699 -6 -7 -22.333 -7 -49zM460 104.998c71.333 0 129.666 18.999 174.999 56.999s68 87.333 68 148c0 58.667 -22.667 107.334 -68 146.001s-103.666 58 -174.999 58v-409zM380 513.997c-71.333 0 -129.666 -19 -174.999 -57
s-68 -87 -68 -147c0 -59.333 22.667 -108.333 68 -147s103.666 -58 174.999 -58v409z" />
    <glyph glyph-name="Ocircumflex" unicode="&#x424;" horiz-adv-x="840" 
d="M460 533c100.667 0 180.334 -17.002 239.001 -51.002c66 -38 99 -95.333 99 -172c0 -76 -33 -133.667 -99 -173c-58.667 -34.667 -138.334 -52 -239.001 -52c0 -26.667 2.33301 -43 7 -49c7.33301 -10 26.333 -15 57 -15c8 0 14.333 -0.666992 19 -2
s7 -4.66602 7 -9.99902c0 -8.66699 -5.66699 -13 -17 -13c-13.333 0 -34.833 0.666992 -64.5 2s-45.5 2 -47.5 2c-12.667 0 -34.334 -0.666992 -65.001 -2s-47 -2 -49 -2c-11.333 0 -17 4.33301 -17 13c0 6 2.16699 9.5 6.5 10.5s10.5 1.5 18.5 1.5
c30.667 0 49.667 4.66699 57 14c5.33301 6.66699 8 23.334 8 50.001c-96.667 0 -175 17.333 -235 52c-68.667 39.333 -103 97 -103 173c0 75.333 34 132.333 102 171c60 34 138.667 51 236 51c0 26.667 -2.33301 43 -7 49c-8 10 -27.333 15 -58 15
c-16.667 0 -25 4.33301 -25 13c0 9.33301 5.66699 14 17 14c13.333 0 34.833 -0.666992 64.5 -2s45.5 -2 47.5 -2c12.667 0 34.334 0.666992 65.001 2s47 2 49 2c11.333 0 17 -4.66699 17 -14c0 -5.33301 -2.5 -8.83301 -7.5 -10.5s-11.167 -2.5 -18.5 -2.5
c-30.667 0 -49.667 -4.66699 -57 -14c-4.66699 -6 -7 -22.333 -7 -49zM460 104.998c71.333 0 129.666 18.999 174.999 56.999s68 87.333 68 148c0 58.667 -22.667 107.334 -68 146.001s-103.666 58 -174.999 58v-409zM380 513.997c-71.333 0 -129.666 -19 -174.999 -57
s-68 -87 -68 -147c0 -59.333 22.667 -108.333 68 -147s103.666 -58 174.999 -58v409z" />
    <glyph glyph-name="Otilde" unicode="&#xd5;" horiz-adv-x="640" 
d="M188 115c-7.33301 -10 -15.0049 -21.665 -23.0049 -34.998c-10.667 -18 -16 -30.333 -16 -37c0 -8 3.16699 -13.667 9.5 -17s14.5 -5 24.5 -5h21c12 0 21 -0.833008 27 -2.5s9 -5.83398 9 -12.501s-8 -10 -24 -10c-11.333 0 -30.666 0.666992 -57.999 2s-41.333 2 -42 2
c-12 0 -31.5 -0.666992 -58.5 -2s-41.833 -2 -44.5 -2h-13c-4 1.33301 -6 4.66602 -6 9.99902c0 7.33301 3.33301 11.666 10 12.999s11.334 2 14.001 2h13c9.33301 0 16.333 0.333008 21 1s10.667 3 18 7c13.333 7.33301 32 25.666 56 54.999c12 14.667 21.667 27 29 37
l114 151c2.66699 3.33301 6.16699 8.33301 10.5 15s6.5 12 6.5 16c0 6 -2.5 12.667 -7.5 20s-8.83301 12.666 -11.5 15.999l-118 161l-33 44c-15.333 19.333 -27 32 -35 38s-15.667 9.83301 -23 11.5s-17.333 2.5 -30 2.5c-10 0 -18 0.666992 -24 2s-9 5.33301 -9 12
c0 8.66699 7 13 21 13c11.333 0 29.833 -0.666992 55.5 -2s39.167 -2 40.5 -2c18 0 47.5 0.666992 88.5 2s62.833 2 65.5 2c10 0 15 -4.33301 15 -13c0 -6 -2.66699 -9.83301 -8 -11.5s-11.666 -2.5 -18.999 -2.5h-18c-12 0 -21.667 -1.16699 -29 -3.5
s-11 -8.16602 -11 -17.499c0 -5.33301 2.66699 -12 8 -20c2.66699 -4 7.33398 -10.333 14.001 -19l122 -168l102 139c8.66699 12 15.667 22.333 21 31c8.66699 14.667 13 26.667 13 36c0 10.667 -4.16699 17 -12.5 19s-19.833 3 -34.5 3c-10 0 -17.833 0.666992 -23.5 2
s-8.5 5.33301 -8.5 12c0 8.66699 7 13 21 13s38.167 -0.666992 72.5 -2s52.833 -2 55.5 -2c10.667 0 27.5 0.666992 50.5 2s35.5 2 37.5 2c10.667 0 16 -5.33301 16 -16c0 -5.33301 -2.33301 -8.5 -7 -9.5s-11 -1.5 -19 -1.5c-15.333 0 -29.166 -1.5 -41.499 -4.5
s-24.166 -8.16699 -35.499 -15.5c-14.667 -10 -33.667 -28.667 -57 -56c-18.667 -22 -36 -43.667 -52 -65l-57 -78c-5.33301 -6.66699 -9 -11.667 -11 -15c-4.66699 -7.33301 -7 -13.333 -7 -18c0 -5.33301 2.33301 -11.166 7 -17.499l10 -13.5l183 -252
c11.333 -15.333 21 -25.833 29 -31.5s19.333 -8.5 34 -8.5c7.33301 0 13.5 -1 18.5 -3s7.5 -6 7.5 -12c0 -4.66699 -1 -7.5 -3 -8.5s-8.33301 -1.5 -19 -1.5c-14 0 -37.5 0.666992 -70.5 2s-50.833 2 -53.5 2c-11.333 0 -29.833 -0.666992 -55.5 -2s-39.167 -2 -40.5 -2
c-13.333 0 -20 3.66699 -20 11c0 9.33301 8.66699 14 26 14c8.66699 -0.666992 15.667 -1 21 -1c11.333 0 20.166 1.33301 26.499 4s9.5 8.33398 9.5 17.001c0 6.66699 -3.66699 15.667 -11 27c-4 6.66699 -10 14.667 -18 24l-135 188z" />
    <glyph glyph-name="Otilde" unicode="&#x425;" horiz-adv-x="640" 
d="M188 115c-7.33301 -10 -15.0049 -21.665 -23.0049 -34.998c-10.667 -18 -16 -30.333 -16 -37c0 -8 3.16699 -13.667 9.5 -17s14.5 -5 24.5 -5h21c12 0 21 -0.833008 27 -2.5s9 -5.83398 9 -12.501s-8 -10 -24 -10c-11.333 0 -30.666 0.666992 -57.999 2s-41.333 2 -42 2
c-12 0 -31.5 -0.666992 -58.5 -2s-41.833 -2 -44.5 -2h-13c-4 1.33301 -6 4.66602 -6 9.99902c0 7.33301 3.33301 11.666 10 12.999s11.334 2 14.001 2h13c9.33301 0 16.333 0.333008 21 1s10.667 3 18 7c13.333 7.33301 32 25.666 56 54.999c12 14.667 21.667 27 29 37
l114 151c2.66699 3.33301 6.16699 8.33301 10.5 15s6.5 12 6.5 16c0 6 -2.5 12.667 -7.5 20s-8.83301 12.666 -11.5 15.999l-118 161l-33 44c-15.333 19.333 -27 32 -35 38s-15.667 9.83301 -23 11.5s-17.333 2.5 -30 2.5c-10 0 -18 0.666992 -24 2s-9 5.33301 -9 12
c0 8.66699 7 13 21 13c11.333 0 29.833 -0.666992 55.5 -2s39.167 -2 40.5 -2c18 0 47.5 0.666992 88.5 2s62.833 2 65.5 2c10 0 15 -4.33301 15 -13c0 -6 -2.66699 -9.83301 -8 -11.5s-11.666 -2.5 -18.999 -2.5h-18c-12 0 -21.667 -1.16699 -29 -3.5
s-11 -8.16602 -11 -17.499c0 -5.33301 2.66699 -12 8 -20c2.66699 -4 7.33398 -10.333 14.001 -19l122 -168l102 139c8.66699 12 15.667 22.333 21 31c8.66699 14.667 13 26.667 13 36c0 10.667 -4.16699 17 -12.5 19s-19.833 3 -34.5 3c-10 0 -17.833 0.666992 -23.5 2
s-8.5 5.33301 -8.5 12c0 8.66699 7 13 21 13s38.167 -0.666992 72.5 -2s52.833 -2 55.5 -2c10.667 0 27.5 0.666992 50.5 2s35.5 2 37.5 2c10.667 0 16 -5.33301 16 -16c0 -5.33301 -2.33301 -8.5 -7 -9.5s-11 -1.5 -19 -1.5c-15.333 0 -29.166 -1.5 -41.499 -4.5
s-24.166 -8.16699 -35.499 -15.5c-14.667 -10 -33.667 -28.667 -57 -56c-18.667 -22 -36 -43.667 -52 -65l-57 -78c-5.33301 -6.66699 -9 -11.667 -11 -15c-4.66699 -7.33301 -7 -13.333 -7 -18c0 -5.33301 2.33301 -11.166 7 -17.499l10 -13.5l183 -252
c11.333 -15.333 21 -25.833 29 -31.5s19.333 -8.5 34 -8.5c7.33301 0 13.5 -1 18.5 -3s7.5 -6 7.5 -12c0 -4.66699 -1 -7.5 -3 -8.5s-8.33301 -1.5 -19 -1.5c-14 0 -37.5 0.666992 -70.5 2s-50.833 2 -53.5 2c-11.333 0 -29.833 -0.666992 -55.5 -2s-39.167 -2 -40.5 -2
c-13.333 0 -20 3.66699 -20 11c0 9.33301 8.66699 14 26 14c8.66699 -0.666992 15.667 -1 21 -1c11.333 0 20.166 1.33301 26.499 4s9.5 8.33398 9.5 17.001c0 6.66699 -3.66699 15.667 -11 27c-4 6.66699 -10 14.667 -18 24l-135 188z" />
    <glyph glyph-name="Odieresis" unicode="&#xd6;" horiz-adv-x="740" 
d="M509 0l-279.999 -0.000976562l-187 -4c-11.333 0 -17 4.66699 -17 14c0 5.33301 2.5 8.83301 7.5 10.5s10.833 2.5 17.5 2.5c38 0 59 9.33301 63 28c1.33301 6 2 24 2 54v410v22c0 25.333 -3 41.333 -9 48c-8 8.66699 -26.667 13 -56 13c-16.667 0 -25 4 -25 12
c0 8.66699 5.66699 13 17 13c12.667 0 34.167 -0.666992 64.5 -2s46.833 -2 49.5 -2c13.333 0 34.833 0.666992 64.5 2s45.5 2 47.5 2c11.333 0 17 -4.33301 17 -13c0 -6 -2.16699 -9.5 -6.5 -10.5s-10.833 -1.5 -19.5 -1.5c-32 0 -50.833 -4.83301 -56.5 -14.5
s-8.5 -32.5 -8.5 -68.5v-411c0 -37.333 1.66699 -59.333 5 -66s14.333 -10 33 -10h277c12.667 0 21 3 25 9c6.66699 10 10 32.333 10 67v411v22c0 25.333 -3 41.333 -9 48c-8 8.66699 -26.667 13 -56 13c-16.667 0 -25 4 -25 12c0 8.66699 5.66699 13 17 13
c12.667 0 34.167 -0.666992 64.5 -2s46.833 -2 49.5 -2c13.333 0 34.833 0.666992 64.5 2s45.5 2 47.5 2c11.333 0 17 -4.33301 17 -13c0 -6 -2.16699 -9.5 -6.5 -10.5s-10.833 -1.5 -19.5 -1.5c-32 0 -50.833 -4.83301 -56.5 -14.5s-8.5 -32.5 -8.5 -68.5v-410
c0 -32 0.333008 -49.667 1 -53c4 -19.333 25.333 -29 64 -29c8 0 14.333 -0.666992 19 -2s7 -5 7 -11l-6 -145c0 -11.333 -4 -17 -12 -17c-4 0 -7.66699 4.66699 -11 14c-6 26 -11.167 46.667 -15.5 62s-8.83301 26 -13.5 32c-14 16.667 -27.333 27.334 -40 32.001
c-20.667 8 -56.334 12 -107.001 12z" />
    <glyph glyph-name="Odieresis" unicode="&#x426;" horiz-adv-x="740" 
d="M509 0l-279.999 -0.000976562l-187 -4c-11.333 0 -17 4.66699 -17 14c0 5.33301 2.5 8.83301 7.5 10.5s10.833 2.5 17.5 2.5c38 0 59 9.33301 63 28c1.33301 6 2 24 2 54v410v22c0 25.333 -3 41.333 -9 48c-8 8.66699 -26.667 13 -56 13c-16.667 0 -25 4 -25 12
c0 8.66699 5.66699 13 17 13c12.667 0 34.167 -0.666992 64.5 -2s46.833 -2 49.5 -2c13.333 0 34.833 0.666992 64.5 2s45.5 2 47.5 2c11.333 0 17 -4.33301 17 -13c0 -6 -2.16699 -9.5 -6.5 -10.5s-10.833 -1.5 -19.5 -1.5c-32 0 -50.833 -4.83301 -56.5 -14.5
s-8.5 -32.5 -8.5 -68.5v-411c0 -37.333 1.66699 -59.333 5 -66s14.333 -10 33 -10h277c12.667 0 21 3 25 9c6.66699 10 10 32.333 10 67v411v22c0 25.333 -3 41.333 -9 48c-8 8.66699 -26.667 13 -56 13c-16.667 0 -25 4 -25 12c0 8.66699 5.66699 13 17 13
c12.667 0 34.167 -0.666992 64.5 -2s46.833 -2 49.5 -2c13.333 0 34.833 0.666992 64.5 2s45.5 2 47.5 2c11.333 0 17 -4.33301 17 -13c0 -6 -2.16699 -9.5 -6.5 -10.5s-10.833 -1.5 -19.5 -1.5c-32 0 -50.833 -4.83301 -56.5 -14.5s-8.5 -32.5 -8.5 -68.5v-410
c0 -32 0.333008 -49.667 1 -53c4 -19.333 25.333 -29 64 -29c8 0 14.333 -0.666992 19 -2s7 -5 7 -11l-6 -145c0 -11.333 -4 -17 -12 -17c-4 0 -7.66699 4.66699 -11 14c-6 26 -11.167 46.667 -15.5 62s-8.83301 26 -13.5 32c-14 16.667 -27.333 27.334 -40 32.001
c-20.667 8 -56.334 12 -107.001 12z" />
    <glyph glyph-name="multiply" unicode="&#xd7;" horiz-adv-x="720" 
d="M95 514v21c0 25.333 -3 41.333 -9 48c-8 8.66699 -26.667 13 -56 13c-16.667 0 -25 4.33301 -25 13c0 9.33301 5.66699 14 17 14c13.333 0 34.833 -0.666992 64.5 -2s45.5 -2 47.5 -2c12.667 0 34.334 0.666992 65.001 2s47 2 49 2c11.333 0 17 -4.66699 17 -14
c0 -5.33301 -2.5 -8.83301 -7.5 -10.5s-11.167 -2.5 -18.5 -2.5c-28.667 0 -46.667 -4 -54 -12s-11 -24 -11 -48v-22v-129c0 -31.333 15.333 -55.333 46 -72c26.667 -14.667 59 -22 97 -22c28 0 63.667 7.33301 107 22c14.667 4.66699 34.334 12.334 59.001 23.001l32 18
c6 5.33301 9 15.666 9 30.999v129v22c0 24.667 -3 40.334 -9 47.001c-8 8.66699 -26.667 13 -56 13c-16.667 0 -25 4.33301 -25 13c0 9.33301 5.66699 14 17 14c13.333 0 34.833 -0.666992 64.5 -2s45.5 -2 47.5 -2c12.667 0 34.334 0.666992 65.001 2s47 2 49 2
c11.333 0 17 -4.66699 17 -14c0 -5.33301 -2.5 -8.83301 -7.5 -10.5s-11.167 -2.5 -18.5 -2.5c-28.667 0 -46.667 -4 -54 -12s-11 -24 -11 -48v-22v-410c0 -36.667 2 -58.334 6 -65.001c7.33301 -12 27 -18 59 -18c8 0 14.333 -0.666992 19 -2s7 -4.66602 7 -9.99902
c0 -8.66699 -5.66699 -13 -17 -13c-13.333 0 -34.833 0.666992 -64.5 2s-45.5 2 -47.5 2c-12.667 0 -34.334 -0.666992 -65.001 -2s-47 -2 -49 -2c-11.333 0 -17 4.33301 -17 13c0 6 2.16699 9.5 6.5 10.5s10.5 1.5 18.5 1.5c38 0 59 9.33301 63 28c1.33301 6 2 24.333 2 55
v179c0 29.333 -3 44 -9 44c-4.66699 0 -14.334 -5.66699 -29.001 -17c-28.667 -14.667 -51.334 -25.334 -68.001 -32.001c-51.333 -21.333 -91.666 -32 -120.999 -32c-58.667 0 -105.334 10 -140.001 30c-41.333 24 -62 60.333 -62 109v129z" />
    <glyph glyph-name="multiply" unicode="&#x427;" horiz-adv-x="720" 
d="M95 514v21c0 25.333 -3 41.333 -9 48c-8 8.66699 -26.667 13 -56 13c-16.667 0 -25 4.33301 -25 13c0 9.33301 5.66699 14 17 14c13.333 0 34.833 -0.666992 64.5 -2s45.5 -2 47.5 -2c12.667 0 34.334 0.666992 65.001 2s47 2 49 2c11.333 0 17 -4.66699 17 -14
c0 -5.33301 -2.5 -8.83301 -7.5 -10.5s-11.167 -2.5 -18.5 -2.5c-28.667 0 -46.667 -4 -54 -12s-11 -24 -11 -48v-22v-129c0 -31.333 15.333 -55.333 46 -72c26.667 -14.667 59 -22 97 -22c28 0 63.667 7.33301 107 22c14.667 4.66699 34.334 12.334 59.001 23.001l32 18
c6 5.33301 9 15.666 9 30.999v129v22c0 24.667 -3 40.334 -9 47.001c-8 8.66699 -26.667 13 -56 13c-16.667 0 -25 4.33301 -25 13c0 9.33301 5.66699 14 17 14c13.333 0 34.833 -0.666992 64.5 -2s45.5 -2 47.5 -2c12.667 0 34.334 0.666992 65.001 2s47 2 49 2
c11.333 0 17 -4.66699 17 -14c0 -5.33301 -2.5 -8.83301 -7.5 -10.5s-11.167 -2.5 -18.5 -2.5c-28.667 0 -46.667 -4 -54 -12s-11 -24 -11 -48v-22v-410c0 -36.667 2 -58.334 6 -65.001c7.33301 -12 27 -18 59 -18c8 0 14.333 -0.666992 19 -2s7 -4.66602 7 -9.99902
c0 -8.66699 -5.66699 -13 -17 -13c-13.333 0 -34.833 0.666992 -64.5 2s-45.5 2 -47.5 2c-12.667 0 -34.334 -0.666992 -65.001 -2s-47 -2 -49 -2c-11.333 0 -17 4.33301 -17 13c0 6 2.16699 9.5 6.5 10.5s10.5 1.5 18.5 1.5c38 0 59 9.33301 63 28c1.33301 6 2 24.333 2 55
v179c0 29.333 -3 44 -9 44c-4.66699 0 -14.334 -5.66699 -29.001 -17c-28.667 -14.667 -51.334 -25.334 -68.001 -32.001c-51.333 -21.333 -91.666 -32 -120.999 -32c-58.667 0 -105.334 10 -140.001 30c-41.333 24 -62 60.333 -62 109v129z" />
    <glyph glyph-name="Oslash" unicode="&#xd8;" horiz-adv-x="920" 
d="M385 28c17.333 0 27.499 3.33203 30.499 9.99902s4.5 28.667 4.5 66v410v22c0 24.667 -3 40.334 -9 47.001c-8 8.66699 -26.667 13 -56 13c-16.667 0 -25 4.33301 -25 13c0 9.33301 5.66699 14 17 14c13.333 0 34.833 -0.666992 64.5 -2s45.5 -2 47.5 -2
c12.667 0 34.334 0.666992 65.001 2s47 2 49 2c11.333 0 17 -4.66699 17 -14c0 -5.33301 -2.5 -8.83301 -7.5 -10.5s-11.167 -2.5 -18.5 -2.5c-28.667 0 -46.667 -4 -54 -12s-11 -24 -11 -48v-22v-410c0 -38 1.5 -60.167 4.5 -66.5s13.167 -9.5 30.5 -9.5h157
c17.333 0 27.5 3.33301 30.5 10s4.5 28.667 4.5 66v411v22c0 25.333 -3 41.333 -9 48c-8 8.66699 -26.667 13 -56 13c-16.667 0 -25 4 -25 12c0 8.66699 5.66699 13 17 13c12.667 0 34.167 -0.666992 64.5 -2s46.833 -2 49.5 -2c13.333 0 34.833 0.666992 64.5 2
s45.5 2 47.5 2c11.333 0 17 -4.33301 17 -13c0 -6 -2.16699 -9.5 -6.5 -10.5s-10.833 -1.5 -19.5 -1.5c-32 0 -50.833 -4.83301 -56.5 -14.5s-8.5 -32.5 -8.5 -68.5v-410c0 -32 0.333008 -49.667 1 -53c4 -19.333 25.333 -29 64 -29c8 0 14.333 -0.666992 19 -2s7 -5 7 -11
c0 -9.33301 -5.66699 -14 -17 -14l-188 4h-462l-187 -4c-11.333 0 -17 4.66699 -17 14c0 5.33301 2.5 8.83301 7.5 10.5s10.833 2.5 17.5 2.5c38 0 59 9.33301 63 28c1.33301 6 2 24 2 54v410v22c0 25.333 -3 41.333 -9 48c-8 8.66699 -26.667 13 -56 13
c-16.667 0 -25 4 -25 12c0 8.66699 5.66699 13 17 13c12.667 0 34.167 -0.666992 64.5 -2s46.833 -2 49.5 -2c13.333 0 34.833 0.666992 64.5 2s45.5 2 47.5 2c11.333 0 17 -4.33301 17 -13c0 -6 -2.16699 -9.5 -6.5 -10.5s-10.833 -1.5 -19.5 -1.5
c-32 0 -50.833 -4.83301 -56.5 -14.5s-8.5 -32.5 -8.5 -68.5v-411c0 -37.333 1.66699 -59.333 5 -66s14.333 -10 33 -10h153z" />
    <glyph glyph-name="Oslash" unicode="&#x428;" horiz-adv-x="920" 
d="M385 28c17.333 0 27.499 3.33203 30.499 9.99902s4.5 28.667 4.5 66v410v22c0 24.667 -3 40.334 -9 47.001c-8 8.66699 -26.667 13 -56 13c-16.667 0 -25 4.33301 -25 13c0 9.33301 5.66699 14 17 14c13.333 0 34.833 -0.666992 64.5 -2s45.5 -2 47.5 -2
c12.667 0 34.334 0.666992 65.001 2s47 2 49 2c11.333 0 17 -4.66699 17 -14c0 -5.33301 -2.5 -8.83301 -7.5 -10.5s-11.167 -2.5 -18.5 -2.5c-28.667 0 -46.667 -4 -54 -12s-11 -24 -11 -48v-22v-410c0 -38 1.5 -60.167 4.5 -66.5s13.167 -9.5 30.5 -9.5h157
c17.333 0 27.5 3.33301 30.5 10s4.5 28.667 4.5 66v411v22c0 25.333 -3 41.333 -9 48c-8 8.66699 -26.667 13 -56 13c-16.667 0 -25 4 -25 12c0 8.66699 5.66699 13 17 13c12.667 0 34.167 -0.666992 64.5 -2s46.833 -2 49.5 -2c13.333 0 34.833 0.666992 64.5 2
s45.5 2 47.5 2c11.333 0 17 -4.33301 17 -13c0 -6 -2.16699 -9.5 -6.5 -10.5s-10.833 -1.5 -19.5 -1.5c-32 0 -50.833 -4.83301 -56.5 -14.5s-8.5 -32.5 -8.5 -68.5v-410c0 -32 0.333008 -49.667 1 -53c4 -19.333 25.333 -29 64 -29c8 0 14.333 -0.666992 19 -2s7 -5 7 -11
c0 -9.33301 -5.66699 -14 -17 -14l-188 4h-462l-187 -4c-11.333 0 -17 4.66699 -17 14c0 5.33301 2.5 8.83301 7.5 10.5s10.833 2.5 17.5 2.5c38 0 59 9.33301 63 28c1.33301 6 2 24 2 54v410v22c0 25.333 -3 41.333 -9 48c-8 8.66699 -26.667 13 -56 13
c-16.667 0 -25 4 -25 12c0 8.66699 5.66699 13 17 13c12.667 0 34.167 -0.666992 64.5 -2s46.833 -2 49.5 -2c13.333 0 34.833 0.666992 64.5 2s45.5 2 47.5 2c11.333 0 17 -4.33301 17 -13c0 -6 -2.16699 -9.5 -6.5 -10.5s-10.833 -1.5 -19.5 -1.5
c-32 0 -50.833 -4.83301 -56.5 -14.5s-8.5 -32.5 -8.5 -68.5v-411c0 -37.333 1.66699 -59.333 5 -66s14.333 -10 33 -10h153z" />
    <glyph glyph-name="Ugrave" unicode="&#xd9;" horiz-adv-x="920" 
d="M691 0l-462 -0.00195312l-187 -4c-11.333 0 -17 4.66699 -17 14c0 5.33301 2.5 8.83301 7.5 10.5s10.833 2.5 17.5 2.5c38 0 59 9.33301 63 28c1.33301 6 2 24 2 54v410v22c0 25.333 -3 41.333 -9 48c-8 8.66699 -26.667 13 -56 13c-16.667 0 -25 4 -25 12
c0 8.66699 5.66699 13 17 13c12.667 0 34.167 -0.666992 64.5 -2s46.833 -2 49.5 -2c13.333 0 34.833 0.666992 64.5 2s45.5 2 47.5 2c11.333 0 17 -4.33301 17 -13c0 -6 -2.16699 -9.5 -6.5 -10.5s-10.833 -1.5 -19.5 -1.5c-32 0 -50.833 -4.83301 -56.5 -14.5
s-8.5 -32.5 -8.5 -68.5v-411c0 -37.333 1.66699 -59.333 5 -66s14.333 -10 33 -10h153c17.333 0 27.5 3.33301 30.5 10s4.5 28.667 4.5 66v410v22c0 24.667 -3 40.334 -9 47.001c-8 8.66699 -26.667 13 -56 13c-16.667 0 -25 4.33301 -25 13c0 9.33301 5.66699 14 17 14
c13.333 0 34.833 -0.666992 64.5 -2s45.5 -2 47.5 -2c12.667 0 34.334 0.666992 65.001 2s47 2 49 2c11.333 0 17 -4.66699 17 -14c0 -5.33301 -2.5 -8.83301 -7.5 -10.5s-11.167 -2.5 -18.5 -2.5c-28.667 0 -46.667 -4 -54 -12s-11 -24 -11 -48v-22v-410
c0 -38 1.5 -60.167 4.5 -66.5s13.167 -9.5 30.5 -9.5h157c17.333 0 27.5 3.33301 30.5 10s4.5 28.667 4.5 66v411v22c0 25.333 -3 41.333 -9 48c-8 8.66699 -26.667 13 -56 13c-16.667 0 -25 4 -25 12c0 8.66699 5.66699 13 17 13c12.667 0 34.167 -0.666992 64.5 -2
s46.833 -2 49.5 -2c13.333 0 34.833 0.666992 64.5 2s45.5 2 47.5 2c11.333 0 17 -4.33301 17 -13c0 -6 -2.16699 -9.5 -6.5 -10.5s-10.833 -1.5 -19.5 -1.5c-32 0 -50.833 -4.83301 -56.5 -14.5s-8.5 -32.5 -8.5 -68.5v-410c0 -32 0.333008 -49.667 1 -53
c4 -19.333 25.333 -29 64 -29c8 0 14.333 -0.666992 19 -2s7 -5 7 -11l-6 -145c0 -11.333 -4 -17 -12 -17c-4 0 -7.66699 4.66699 -11 14c-6 26 -11.167 46.667 -15.5 62s-8.83301 26 -13.5 32c-14 16.667 -27.333 27.334 -40 32.001c-20.667 8 -56.334 12 -107.001 12z" />
    </font>
</defs>
</svg>
