<svg width="" height="" viewBox="0 0 700 102" version="1.1" xmlns="http://www.w3.org/2000/svg" preserveAspectRatio="xMidYMid meet">
<g id="#ffffffff">
<path fill="#ffffff" opacity="1.00" d=" M 101.86 0.00 L 102.48 0.00 C 104.88 1.36 106.90 3.27 109.03 5.01 C 127.66 20.34 146.30 35.66 164.93 51.00 C 164.96 34.75 164.93 18.51 164.94 2.27 C 173.10 2.26 181.25 2.27 189.41 2.26 C 189.38 35.51 189.48 68.76 189.35 102.00 L 188.73 102.00 C 167.71 85.27 147.14 67.96 126.30 51.01 C 126.29 67.16 126.30 83.31 126.29 99.46 C 118.14 99.47 109.98 99.47 101.83 99.46 C 101.85 66.31 101.78 33.15 101.86 0.00 Z" />
<path fill="#ffffff" opacity="1.00" d=" M 568.27 4.01 C 568.59 3.22 569.18 1.96 570.18 2.75 L 569.85 3.70 C 586.20 36.25 602.50 68.83 618.82 101.40 C 609.54 101.40 600.27 101.40 591.00 101.40 C 583.71 84.87 576.41 68.35 569.13 51.82 C 561.85 68.35 554.55 84.88 547.26 101.40 C 538.65 101.39 530.04 101.41 521.43 101.40 C 537.04 68.93 552.67 36.48 568.27 4.01 Z" />
<path fill="#ffffff" opacity="1.00" d=" M 250.94 4.27 C 274.83 4.27 298.71 4.26 322.59 4.27 C 322.52 11.57 322.72 18.88 322.49 26.19 C 298.64 26.06 274.79 26.17 250.94 26.13 C 250.94 18.84 250.94 11.56 250.94 4.27 Z" />
<path fill="#ffffff" opacity="1.00" d=" M 385.24 4.27 C 394.98 4.28 404.72 4.24 414.46 4.28 C 419.24 12.50 424.09 20.67 428.90 28.86 C 433.75 20.66 438.65 12.50 443.48 4.29 C 452.51 4.24 461.53 4.28 470.56 4.27 C 461.17 18.90 451.75 33.52 442.36 48.15 C 453.52 65.90 464.68 83.64 475.84 101.40 C 466.15 101.40 456.47 101.40 446.79 101.40 C 440.30 90.52 433.77 79.67 427.32 68.77 C 420.23 79.39 413.94 90.57 407.15 101.40 C 398.13 101.40 389.12 101.40 380.10 101.40 C 391.27 83.96 402.66 66.66 413.70 49.14 C 404.09 34.26 394.92 19.10 385.24 4.27 Z" />
<path fill="#ffffff" opacity="1.00" d=" M 0.00 41.07 C 16.92 41.07 33.85 41.06 50.77 41.07 C 50.76 46.09 50.76 51.11 50.77 56.13 C 33.84 56.14 16.92 56.13 0.00 56.13 L 0.00 41.07 Z" />
<path fill="#ffffff" opacity="1.00" d=" M 649.23 41.07 C 666.15 41.06 683.08 41.07 700.00 41.07 L 700.00 56.13 C 683.08 56.13 666.16 56.14 649.23 56.13 C 649.23 51.11 649.23 46.09 649.23 41.07 Z" />
<path fill="#ffffff" opacity="1.00" d=" M 251.00 41.93 C 270.88 41.94 290.77 41.92 310.65 41.95 C 310.64 49.21 310.65 56.47 310.65 63.73 C 290.77 63.74 270.89 63.73 251.00 63.74 C 250.99 56.47 251.00 49.20 251.00 41.93 Z" />
<path fill="#ffffff" opacity="1.00" d=" M 251.00 79.60 C 274.86 79.60 298.72 79.60 322.58 79.60 C 322.59 86.87 322.59 94.13 322.58 101.40 C 298.72 101.40 274.86 101.40 251.00 101.40 C 251.00 94.13 251.00 86.87 251.00 79.60 Z" />
</g>
</svg>
