<svg width="" height="" viewBox="0 0 400 331" version="1.1" xmlns="http://www.w3.org/2000/svg" preserveAspectRatio="xMidYMid meet">
<g id="#000000ff">
<path fill="#000000" opacity="1.00" d=" M 23.70 0.00 L 375.88 0.00 C 388.42 0.39 399.16 11.18 400.00 23.60 L 400.00 243.46 C 399.36 252.92 393.22 261.85 384.36 265.41 C 379.55 267.57 374.17 267.31 369.03 267.27 C 316.86 267.27 264.70 267.26 212.54 267.28 C 212.52 280.02 212.53 292.77 212.54 305.52 C 233.36 305.57 254.19 305.49 275.02 305.55 C 282.06 305.37 288.10 312.04 287.47 319.01 C 287.28 325.11 282.18 330.29 276.19 331.00 L 124.11 331.00 C 117.61 330.49 112.19 324.53 112.51 317.98 C 112.46 311.37 118.31 305.40 124.97 305.55 C 145.80 305.49 166.63 305.57 187.46 305.52 C 187.47 292.77 187.47 280.02 187.46 267.28 C 132.98 267.23 78.50 267.32 24.02 267.23 C 11.48 267.03 0.80 256.02 0.00 243.68 L 0.00 23.87 C 0.66 11.48 11.24 0.64 23.70 0.00 M 25.01 25.47 C 25.00 97.60 25.00 169.73 25.01 241.86 C 141.67 241.87 258.33 241.87 374.99 241.87 C 375.00 169.73 375.00 97.60 374.99 25.47 C 258.33 25.46 141.67 25.46 25.01 25.47 Z" />
</g>
</svg>
