<svg width="" height="" viewBox="0 0 400 401" version="1.1" xmlns="http://www.w3.org/2000/svg" preserveAspectRatio="xMidYMid meet">
<g id="#1b1b1bff">
<path fill="#1b1b1b" opacity="1.00" d=" M 62.54 12.98 C 62.56 6.48 68.50 0.81 74.99 0.98 C 81.51 0.79 87.43 6.50 87.49 13.03 C 87.60 29.83 87.47 46.64 87.55 63.44 C 165.06 63.49 242.57 63.48 320.08 63.45 C 335.79 48.03 351.23 32.32 366.89 16.84 C 371.29 12.61 378.87 12.50 383.43 16.55 C 388.73 20.84 389.25 29.59 384.51 34.49 C 368.89 50.20 353.14 65.78 337.53 81.49 C 337.43 158.81 337.44 236.14 337.52 313.46 C 354.35 313.50 371.19 313.42 388.02 313.49 C 394.01 313.63 399.15 318.52 400.00 324.38 L 400.00 327.51 C 399.25 332.03 396.18 336.25 391.72 337.69 C 388.95 338.77 385.94 338.40 383.04 338.47 C 367.86 338.48 352.68 338.43 337.50 338.50 C 337.43 353.65 337.49 368.81 337.47 383.96 C 337.42 387.36 337.89 390.99 336.16 394.09 C 334.36 397.86 330.55 400.25 326.53 401.00 L 323.58 401.00 C 317.69 400.20 312.61 395.07 312.54 389.02 C 312.50 372.18 312.57 355.33 312.50 338.49 C 233.37 338.42 154.24 338.50 75.11 338.45 C 68.34 338.50 62.45 332.73 62.54 325.93 C 62.51 246.79 62.57 167.64 62.50 88.50 C 45.68 88.41 28.86 88.51 12.04 88.45 C 6.05 88.36 0.86 83.43 0.00 77.57 L 0.00 74.50 C 0.77 68.60 5.94 63.66 11.94 63.50 C 28.79 63.41 45.63 63.50 62.48 63.46 C 62.60 46.63 62.49 29.81 62.54 12.98 M 87.53 88.50 C 87.53 157.58 87.52 226.67 87.54 295.75 C 156.72 226.66 225.95 157.61 295.08 88.46 C 225.89 88.50 156.71 88.41 87.53 88.50 M 311.52 107.40 C 242.77 176.11 173.97 244.76 105.22 313.46 C 174.31 313.48 243.40 313.46 312.49 313.47 C 312.60 244.57 312.49 175.66 312.54 106.75 C 312.29 106.91 311.78 107.24 311.52 107.40 Z" />
</g>
</svg>
