<svg width="" height="" viewBox="0 0 302 438" version="1.1" xmlns="http://www.w3.org/2000/svg" preserveAspectRatio="xMidYMid meet">
<g id="#ffffffff">
<path fill="#ffffff" opacity="1.00" d=" M 147.46 0.00 L 154.51 0.00 C 184.07 0.75 213.42 10.28 237.40 27.65 C 267.26 48.96 288.64 81.53 296.85 117.23 C 302.48 141.66 302.59 167.47 296.56 191.84 C 292.35 208.50 284.33 224.16 273.28 237.32 C 261.64 251.66 246.81 262.84 233.52 275.52 C 226.18 282.60 219.11 291.39 218.86 302.07 C 218.69 325.39 219.26 348.72 218.92 372.04 C 218.32 388.77 212.59 405.72 200.96 418.02 C 189.16 430.82 171.79 437.35 154.60 438.00 L 147.64 438.00 C 131.57 437.20 115.26 431.79 103.48 420.50 C 89.97 407.88 83.50 389.21 83.10 371.02 C 82.91 348.68 83.22 326.35 83.18 304.01 C 83.38 297.36 79.18 291.72 74.89 287.06 C 67.57 279.35 59.31 272.63 51.62 265.31 C 36.39 251.53 22.69 235.59 13.99 216.84 C 1.24 189.56 -1.47 158.32 2.89 128.75 C 8.81 89.82 30.19 53.42 61.73 29.76 C 86.23 11.10 116.72 0.76 147.46 0.00 M 73.99 54.86 C 47.59 76.39 31.06 109.17 28.58 143.08 C 27.06 164.38 29.55 186.48 38.97 205.86 C 46.03 220.89 57.27 233.47 69.38 244.63 C 79.68 254.35 90.99 263.16 99.68 274.44 C 105.60 282.08 109.87 291.28 110.30 301.05 C 110.53 307.81 110.35 314.57 110.41 321.34 C 118.28 325.65 127.27 327.28 136.11 328.12 C 146.74 329.05 157.48 328.99 168.09 327.76 C 176.20 326.66 184.37 324.83 191.59 320.83 C 191.81 311.39 190.90 301.83 192.66 292.49 C 194.90 280.45 201.62 269.77 209.80 260.86 C 223.13 246.41 239.69 235.24 252.17 219.96 C 260.32 210.23 266.41 198.78 269.76 186.53 C 274.79 167.83 274.98 147.97 271.56 128.97 C 265.85 98.35 248.59 69.92 223.51 51.33 C 201.99 35.14 174.88 26.64 147.98 27.44 C 121.17 27.93 94.64 37.75 73.99 54.86 M 110.07 349.87 C 110.55 362.90 108.74 376.59 114.07 388.90 C 117.91 398.38 126.23 405.80 136.06 408.61 C 146.81 411.64 158.61 411.32 169.08 407.35 C 178.01 403.96 185.25 396.59 188.50 387.61 C 193.27 375.48 191.51 362.23 191.79 349.53 C 179.37 353.98 166.11 355.66 152.96 355.86 C 138.49 356.00 123.85 354.52 110.07 349.87 Z" />
</g>
</svg>
