
<svg width="920pt" height="175pt" viewBox="0 0 920 175" version="1.1" xmlns="http://www.w3.org/2000/svg" preserveAspectRatio="xMidYMid meet">
<g id="#9f9f9f9f">
<path fill="#9f9f9f" opacity="0.62" d=" M 0.00 0.00 L 0.50 0.00 C 0.37 0.10 0.12 0.29 0.00 0.38 L 0.00 0.00 Z" />
</g>
<g id="#ffffffff">
<path fill="#ffffff" opacity="1.00" d=" M 0.50 0.00 L 1.10 0.00 C 3.22 0.68 4.70 2.36 6.40 3.68 C 40.31 31.60 74.18 59.57 108.10 87.47 C 108.14 59.63 108.10 31.79 108.12 3.94 C 122.10 3.93 136.08 3.93 150.05 3.94 C 150.08 59.65 150.04 115.35 150.07 171.05 C 150.13 172.39 149.97 173.71 149.61 175.00 L 148.90 175.00 C 146.61 173.73 144.69 171.92 142.67 170.29 C 109.09 142.72 75.55 115.10 41.95 87.56 C 41.92 115.24 41.96 142.92 41.94 170.60 C 27.96 170.60 13.98 170.61 0.00 170.59 L 0.00 0.38 C 0.12 0.29 0.37 0.10 0.50 0.00 Z" />
<path fill="#ffffff" opacity="1.00" d=" M 834.72 3.10 C 863.15 59.70 891.54 116.32 919.91 172.95 C 904.01 172.90 888.10 172.96 872.20 172.93 C 859.71 144.63 847.25 116.32 834.73 88.04 C 822.14 116.32 809.87 144.77 797.12 172.97 C 784.09 172.89 771.06 172.96 758.03 172.93 C 756.40 172.69 754.47 173.42 753.05 172.63 C 780.35 116.16 807.49 59.61 834.72 3.10 Z" />
<path fill="#ffffff" opacity="1.00" d=" M 256.00 5.00 C 297.00 5.00 338.00 5.00 379.00 5.00 C 378.96 17.52 379.09 30.05 378.93 42.57 C 337.98 42.51 297.03 42.50 256.08 42.57 C 255.89 30.05 256.05 17.53 256.00 5.00 Z" />
<path fill="#ffffff" opacity="1.00" d=" M 492.06 5.00 C 508.65 5.00 525.24 4.99 541.83 5.01 C 550.10 19.07 558.26 33.19 566.62 47.20 C 574.84 33.17 583.27 19.26 591.40 5.18 C 606.88 4.77 622.41 5.11 637.90 5.00 C 621.85 30.19 605.58 55.25 589.64 80.50 C 608.82 110.93 627.84 141.46 646.96 171.93 C 630.37 171.93 613.78 171.94 597.20 171.93 C 586.03 153.11 574.81 134.32 563.66 115.49 C 552.13 134.28 540.84 153.23 529.23 171.96 C 513.83 171.89 498.42 171.96 483.02 171.93 C 502.19 142.04 521.44 112.21 540.60 82.31 C 524.40 56.55 508.24 30.77 492.06 5.00 Z" />
<path fill="#ffffff" opacity="1.00" d=" M 256.12 69.68 C 290.25 69.66 324.39 69.67 358.52 69.67 C 358.54 82.18 358.53 94.69 358.53 107.20 C 324.39 107.20 290.26 107.21 256.12 107.19 C 256.11 94.69 256.12 82.18 256.12 69.68 Z" />
<path fill="#ffffff" opacity="1.00" d=" M 256.13 134.47 C 297.07 134.45 338.01 134.51 378.95 134.44 C 379.20 146.93 378.99 159.43 379.05 171.93 C 338.08 171.94 297.10 171.94 256.12 171.93 C 256.12 159.44 256.11 146.95 256.13 134.47 Z" />
</g>
</svg>
