<svg width="" height="" viewBox="0 0 400 321" version="1.1" xmlns="http://www.w3.org/2000/svg" preserveAspectRatio="xMidYMid meet">
<g id="#1b1b1bff">
<path fill="#1b1b1b" opacity="1.00" d=" M 125.01 0.87 C 175.00 0.87 224.99 0.86 274.99 0.87 C 285.03 17.28 294.99 33.73 305.04 50.13 C 324.03 50.13 343.02 50.14 362.00 50.13 C 368.60 50.01 375.22 51.79 380.83 55.26 C 391.13 61.70 398.06 72.92 400.00 84.84 L 400.00 286.40 C 397.99 304.00 382.50 318.32 365.32 321.00 L 33.33 321.00 C 16.23 318.92 2.01 304.08 0.00 287.08 L 0.00 83.94 C 1.86 63.76 22.47 48.86 42.06 50.12 C 59.70 50.15 77.33 50.13 94.97 50.13 C 105.01 33.73 114.97 17.27 125.01 0.87 M 139.21 25.45 C 129.21 41.82 119.13 58.14 109.31 74.61 C 85.21 74.97 61.10 74.50 37.01 74.84 C 31.48 76.45 25.02 80.46 25.01 86.92 C 24.98 152.28 25.02 217.64 25.00 283.00 C 24.72 288.73 28.98 293.84 34.02 296.05 C 36.33 296.46 38.69 296.22 41.03 296.27 C 146.34 296.27 251.66 296.27 356.97 296.27 C 360.30 296.15 364.00 296.91 366.90 294.81 C 370.84 292.14 375.25 288.25 375.01 283.04 C 374.98 218.00 375.02 152.95 374.99 87.91 C 374.03 81.61 369.06 74.51 362.02 74.73 C 338.24 74.64 314.45 74.92 290.69 74.59 C 281.46 57.96 271.32 41.84 261.65 25.47 C 220.84 25.45 180.02 25.49 139.21 25.45 Z" />
<path fill="#1b1b1b" opacity="1.00" d=" M 188.50 87.77 C 205.65 85.54 223.46 88.37 238.98 96.04 C 259.19 105.87 275.36 123.81 282.73 145.09 C 289.07 163.16 289.08 183.39 282.66 201.44 C 276.58 218.85 264.62 234.06 249.33 244.32 C 235.42 253.72 218.76 258.95 201.98 259.28 C 183.87 259.73 165.64 254.47 150.64 244.29 C 134.04 233.16 121.40 216.16 115.88 196.92 C 109.79 176.21 112.04 153.22 122.02 134.08 C 134.84 108.99 160.55 91.17 188.50 87.77 M 188.44 112.70 C 174.76 115.20 162.00 122.41 152.83 132.87 C 143.10 143.79 137.48 158.32 137.52 172.96 C 137.41 185.80 141.60 198.59 149.18 208.94 C 158.98 222.51 174.45 231.79 191.03 234.06 C 206.76 236.39 223.29 232.43 236.27 223.25 C 246.83 215.85 255.02 205.11 259.19 192.91 C 263.99 179.10 263.53 163.56 257.92 150.07 C 251.96 135.54 240.19 123.55 225.85 117.17 C 214.22 111.89 200.98 110.39 188.44 112.70 Z" />
</g>
</svg>
