<svg width="" height="" viewBox="0 0 400 669" version="1.1" xmlns="http://www.w3.org/2000/svg" preserveAspectRatio="xMidYMid meet">
<g id="#1b1b1bff">
<path fill="#1b1b1b" opacity="1.00" d=" M 304.52 1.70 C 320.31 -0.55 336.82 2.41 350.75 10.21 C 365.57 18.37 377.39 31.83 383.53 47.60 C 389.42 62.55 390.10 79.45 385.56 94.85 C 381.06 110.21 371.32 123.94 358.37 133.32 C 345.63 142.65 329.82 147.67 314.04 147.41 C 298.64 147.28 283.35 142.12 271.01 132.90 C 257.84 123.15 248.06 108.87 243.89 93.01 C 238.86 74.44 241.59 53.92 251.39 37.36 C 262.47 18.22 282.60 4.69 304.52 1.70 M 306.40 43.62 C 295.74 46.43 286.90 55.23 284.22 65.93 C 281.41 76.13 284.36 87.66 291.69 95.27 C 301.00 105.53 317.32 108.21 329.44 101.51 C 342.64 94.84 349.51 78.13 344.58 64.13 C 339.84 48.65 321.95 38.99 306.40 43.62 Z" />
<path fill="#1b1b1b" opacity="1.00" d=" M 174.35 126.42 C 181.53 125.61 188.93 126.62 195.57 129.51 C 207.76 134.68 217.13 146.00 219.81 158.98 C 222.44 170.96 219.42 184.07 211.66 193.59 C 199.87 209.12 176.59 213.90 159.58 204.40 C 148.18 198.40 139.95 186.82 138.06 174.07 C 136.03 161.54 140.18 148.17 149.05 139.07 C 155.64 132.04 164.77 127.49 174.35 126.42 Z" />
<path fill="#1b1b1b" opacity="1.00" d=" M 82.26 246.93 C 83.88 237.67 92.47 230.24 101.89 230.08 C 113.95 229.93 126.02 229.96 138.08 230.07 C 149.03 230.10 158.60 240.04 158.28 250.97 C 158.32 336.98 158.27 422.99 158.31 508.99 C 158.45 514.20 156.78 519.44 153.38 523.42 C 124.92 557.77 96.44 592.11 67.99 626.46 C 156.00 626.47 244.00 626.47 332.01 626.46 C 305.06 593.92 278.09 561.40 251.13 528.86 C 246.41 523.55 241.35 517.54 241.72 509.95 C 241.69 425.63 241.72 341.30 241.70 256.98 C 241.71 252.35 241.35 247.51 243.20 243.15 C 246.13 235.57 253.83 230.15 261.97 230.07 C 273.64 229.92 285.32 230.00 297.00 230.03 C 302.77 229.97 308.52 232.35 312.45 236.60 C 317.78 242.12 319.55 250.70 316.90 257.89 C 314.31 265.46 306.98 271.14 298.98 271.64 C 293.79 271.89 288.60 271.66 283.42 271.73 C 283.38 347.81 283.46 423.89 283.38 499.97 C 283.14 502.81 285.73 504.59 287.28 506.61 C 323.03 548.88 358.76 591.18 394.51 633.45 C 398.91 638.42 400.80 645.50 399.24 651.98 C 397.54 659.79 390.90 666.26 383.05 667.75 C 379.09 668.44 375.05 668.16 371.05 668.20 C 256.70 668.20 142.35 668.20 28.00 668.20 C 23.10 668.15 17.94 668.64 13.31 666.67 C 7.11 664.16 2.18 658.57 0.76 652.00 C -0.81 645.51 1.09 638.42 5.49 633.44 C 41.39 591.01 77.23 548.54 113.14 506.12 C 114.58 504.29 116.86 502.63 116.62 500.04 C 116.55 423.94 116.61 347.83 116.58 271.73 C 108.67 271.26 100.08 273.25 92.79 269.22 C 84.93 265.11 80.43 255.62 82.26 246.93 Z" />
</g>
</svg>
