<svg width="" height="" viewBox="0 0 301 300" version="1.1" xmlns="http://www.w3.org/2000/svg" preserveAspectRatio="xMidYMid meet">
<g id="#ffffffff">
<path fill="#ffffff" opacity="1.00" d=" M 278.37 0.00 L 279.54 0.00 C 283.68 0.26 287.85 0.01 291.96 0.55 C 296.42 1.22 299.77 5.49 299.69 9.94 C 300.48 27.69 299.90 45.50 298.06 63.17 C 295.65 85.31 290.89 107.53 280.72 127.50 C 275.37 138.00 267.64 147.09 259.02 155.05 C 249.44 164.30 237.55 170.55 226.02 176.98 C 206.94 187.15 187.69 197.01 169.06 207.99 C 169.05 224.03 169.09 240.06 169.04 256.10 C 169.12 258.73 167.96 261.25 166.05 263.03 C 154.45 274.49 142.93 286.05 131.30 297.49 C 126.59 302.23 117.54 299.54 116.10 293.05 C 112.35 277.65 108.77 262.20 105.12 246.77 C 104.67 243.78 102.00 241.99 100.21 239.80 C 88.03 226.21 75.62 212.83 63.72 199.00 C 62.96 198.07 61.65 198.05 60.60 197.71 C 43.04 193.76 25.52 189.71 7.98 185.72 C 3.10 184.97 -0.64 180.01 0.25 175.10 C 0.64 171.80 3.19 169.49 5.31 167.20 C 15.73 155.98 26.08 144.70 36.49 133.48 C 38.34 131.36 41.02 129.97 43.87 130.09 C 61.17 130.03 78.46 130.09 95.76 130.06 C 107.99 107.69 118.00 84.12 131.40 62.39 C 140.03 48.47 151.77 36.52 165.23 27.23 C 178.69 17.91 194.43 12.69 210.13 8.56 C 232.39 2.81 255.40 0.36 278.37 0.00 M 195.46 32.65 C 174.07 40.28 156.27 56.44 145.01 75.99 C 132.17 97.69 122.44 121.04 109.92 142.92 C 108.30 146.27 104.92 148.82 101.09 148.71 C 83.38 148.77 65.67 148.72 47.96 148.73 C 40.95 156.11 33.95 163.51 26.95 170.90 C 41.17 174.15 55.39 177.37 69.61 180.64 C 71.73 181.10 73.62 182.31 75.03 183.95 C 89.07 199.55 103.14 215.13 117.19 230.71 C 119.24 233.00 121.73 235.22 122.33 238.39 C 125.12 250.09 127.86 261.81 130.66 273.51 C 137.22 266.30 143.79 259.10 150.35 251.89 C 150.37 235.63 150.32 219.36 150.38 203.10 C 150.27 199.24 152.90 196.02 156.08 194.17 C 179.49 179.62 204.54 167.98 228.44 154.29 C 240.89 147.36 251.71 137.57 259.93 125.94 C 267.72 114.06 272.18 100.32 275.37 86.57 C 280.21 64.32 281.53 41.45 281.26 18.73 C 252.19 18.79 222.84 22.61 195.46 32.65 Z" />
<path fill="#ffffff" opacity="1.00" d=" M 197.53 56.73 C 208.73 53.93 221.14 56.68 230.07 64.01 C 242.93 74.06 247.63 92.95 240.94 107.85 C 236.73 117.74 228.05 125.57 217.80 128.79 C 208.34 131.76 197.66 130.91 188.93 126.15 C 180.78 121.91 174.39 114.50 171.23 105.90 C 167.62 96.05 168.36 84.66 173.43 75.45 C 178.33 66.17 187.33 59.19 197.53 56.73 M 201.12 75.18 C 194.43 77.12 189.11 83.07 188.02 89.96 C 186.70 97.14 190.12 104.87 196.28 108.75 C 201.88 112.50 209.55 112.78 215.43 109.50 C 221.06 106.47 224.92 100.39 225.17 93.99 C 225.51 87.94 222.64 81.83 217.79 78.21 C 213.13 74.61 206.74 73.47 201.12 75.18 Z" />
<path fill="#ffffff" opacity="1.00" d=" M 14.04 233.08 C 22.72 224.05 35.43 221.07 45.22 213.61 C 49.03 218.44 52.81 223.28 56.60 228.12 C 49.98 233.26 42.45 236.98 35.01 240.76 C 30.19 243.12 25.85 246.83 23.79 251.90 C 20.11 260.71 19.94 270.46 19.45 279.86 C 28.78 279.37 38.41 278.84 47.11 275.11 C 52.28 272.95 56.42 268.81 58.96 263.85 C 62.70 256.64 65.93 249.12 70.78 242.54 C 75.42 246.73 80.04 250.93 84.66 255.12 C 78.73 264.76 75.57 276.22 67.31 284.31 C 59.05 292.52 47.21 295.40 36.02 296.87 C 24.34 298.46 12.53 298.20 0.77 298.55 C 0.42 285.39 0.51 272.14 2.58 259.12 C 4.17 249.71 7.14 239.99 14.04 233.08 Z" />
</g>
</svg>
