
<svg width="163pt" height="288pt" viewBox="0 0 163 288" version="1.1" xmlns="http://www.w3.org/2000/svg" preserveAspectRatio="xMidYMid meet">
<g id="#ffffffff">
<path fill="#ffffff" opacity="1.00" d=" M 80.43 0.00 L 85.57 0.00 C 104.44 0.79 122.95 8.36 136.82 21.21 C 153.16 36.08 162.88 57.90 162.87 80.01 C 162.89 122.66 162.89 165.31 162.87 207.95 C 162.81 225.78 156.60 243.51 145.46 257.44 C 131.14 275.75 108.60 287.07 85.41 288.00 L 79.98 288.00 C 56.60 287.28 33.81 276.10 19.08 257.92 C 7.59 243.99 1.00 226.08 0.95 208.01 C 0.95 165.01 0.92 122.01 0.96 79.01 C 1.22 55.57 12.75 32.75 31.03 18.17 C 44.91 6.90 62.55 0.40 80.43 0.00 M 72.56 18.74 C 57.52 21.06 43.46 29.04 33.67 40.67 C 24.39 51.54 18.99 65.70 18.95 80.01 C 18.94 122.67 18.94 165.33 18.95 207.99 C 19.00 222.55 24.62 236.94 34.20 247.88 C 45.78 261.35 63.20 269.65 80.99 269.94 C 95.98 270.35 111.01 265.03 122.46 255.36 C 134.27 245.54 142.25 231.22 144.29 215.99 C 145.07 210.70 144.85 205.34 144.88 200.01 C 144.87 159.99 144.90 119.97 144.87 79.95 C 144.87 58.98 133.36 38.47 115.47 27.54 C 102.89 19.46 87.30 16.40 72.56 18.74 Z" />
<path fill="#ffffff" opacity="1.00" d=" M 80.09 54.18 C 86.35 52.61 92.14 58.79 91.01 64.95 C 90.97 79.31 91.03 93.68 90.98 108.04 C 91.12 113.21 86.06 117.65 80.95 116.92 C 76.61 116.46 72.92 112.47 73.02 108.06 C 72.99 93.01 72.99 77.96 73.02 62.91 C 72.94 58.81 76.08 54.99 80.09 54.18 Z" />
</g>
</svg>
