<svg width="" height="" viewBox="0 0 300 212" version="1.1" xmlns="http://www.w3.org/2000/svg" preserveAspectRatio="xMidYMid meet">
<g id="#ffffffff">
<path fill="#ffffff" opacity="1.00" d=" M 130.39 0.00 L 169.44 0.00 C 173.65 0.39 177.41 3.75 177.96 8.00 C 178.32 11.74 178.04 15.51 178.12 19.26 C 207.05 19.26 235.99 19.29 264.93 19.25 C 268.72 12.72 276.41 8.55 283.99 9.86 C 292.63 11.01 299.39 18.87 300.00 27.44 L 300.00 30.36 C 299.40 38.88 292.72 46.72 284.14 47.93 C 276.40 49.37 268.74 44.98 264.75 38.47 C 249.22 38.62 233.69 38.48 218.16 38.54 C 244.35 54.96 264.42 80.75 274.10 110.09 C 278.89 124.27 281.14 139.25 281.18 154.20 C 284.93 154.30 288.70 153.97 292.43 154.37 C 296.46 155.06 299.34 158.68 300.00 162.58 L 300.00 203.36 C 299.50 207.97 295.55 211.91 290.84 212.00 L 252.49 212.00 C 247.50 211.64 243.46 206.98 243.77 201.99 C 243.77 189.30 243.75 176.60 243.78 163.90 C 243.61 159.24 247.32 154.68 252.03 154.28 C 255.50 154.06 258.97 154.25 262.43 154.20 C 262.58 127.12 253.14 100.04 235.83 79.17 C 221.08 61.14 200.65 47.79 178.12 41.81 C 178.02 45.07 178.52 48.46 177.51 51.62 C 176.16 55.47 172.16 58.08 168.10 57.81 C 155.74 57.77 143.37 57.84 131.01 57.78 C 126.68 57.79 122.76 54.28 122.07 50.05 C 121.72 47.31 121.90 44.55 121.88 41.80 C 94.69 48.97 70.73 66.99 55.78 90.75 C 43.78 109.58 37.48 131.89 37.57 154.20 C 41.01 154.25 44.45 154.07 47.89 154.29 C 52.68 154.62 56.39 159.28 56.23 163.98 C 56.25 176.64 56.23 189.31 56.23 201.97 C 56.51 206.92 52.60 211.56 47.64 212.00 L 8.71 212.00 C 4.22 211.65 0.58 207.90 0.00 203.49 L 0.00 162.80 C 0.52 158.58 3.86 154.68 8.22 154.28 C 11.74 154.06 15.28 154.26 18.81 154.20 C 18.71 125.03 28.01 95.84 45.44 72.40 C 55.31 58.96 67.74 47.43 81.84 38.54 C 66.33 38.57 50.82 38.45 35.32 38.59 C 31.71 43.62 26.42 47.93 19.95 48.12 C 9.85 49.04 0.67 40.41 0.00 30.48 L 0.00 27.56 C 0.54 18.58 7.93 10.41 17.03 9.74 C 24.33 8.88 31.40 13.07 35.08 19.25 C 64.01 19.29 92.95 19.26 121.88 19.27 C 121.96 15.52 121.68 11.76 122.04 8.02 C 122.56 3.82 126.24 0.50 130.39 0.00 M 140.64 19.28 C 140.66 25.70 140.64 32.11 140.64 38.53 C 146.88 38.54 153.12 38.54 159.36 38.52 C 159.40 32.14 159.25 25.76 159.44 19.38 C 153.18 19.13 146.90 19.31 140.64 19.28 M 18.76 173.48 C 18.77 179.90 18.76 186.32 18.77 192.74 C 25.02 192.73 31.28 192.74 37.53 192.73 C 37.53 186.31 37.53 179.89 37.53 173.47 C 31.27 173.47 25.02 173.46 18.76 173.48 M 262.53 173.47 C 262.53 179.89 262.54 186.30 262.52 192.72 C 268.76 192.75 274.99 192.72 281.23 192.74 C 281.24 186.31 281.23 179.89 281.24 173.47 C 275.00 173.46 268.76 173.46 262.53 173.47 Z" />
</g>
</svg>
