<svg width="" height="" viewBox="0 0 301 300" version="1.1" xmlns="http://www.w3.org/2000/svg" preserveAspectRatio="xMidYMid meet">
<g id="#ffffffff">
<path fill="#ffffff" opacity="1.00" d=" M 171.00 5.98 C 190.90 1.03 211.53 -0.03 231.96 0.09 C 237.05 -0.04 241.29 4.99 240.54 9.97 C 240.23 13.23 237.70 15.49 235.72 17.84 C 222.53 33.06 209.32 48.25 196.17 63.50 C 210.33 78.02 224.60 92.44 238.60 107.11 C 254.84 93.21 270.42 78.50 286.53 64.44 C 291.76 59.93 300.78 64.19 300.72 71.07 C 300.78 90.15 300.22 109.44 295.79 128.08 C 292.93 139.73 288.58 151.44 280.42 160.47 C 276.52 164.60 272.56 168.72 268.06 172.22 C 254.87 182.71 237.87 188.36 221.01 187.51 C 209.39 186.84 197.88 183.73 187.56 178.35 C 150.78 215.32 114.09 252.37 77.32 289.34 C 70.58 296.06 61.16 299.81 51.68 300.00 L 50.42 300.00 C 43.85 299.68 37.35 297.80 31.77 294.29 C 26.67 291.16 22.83 286.48 18.59 282.34 C 13.80 277.38 8.41 272.77 5.28 266.50 C -0.75 255.20 -0.48 240.85 5.95 229.78 C 8.10 225.84 11.19 222.56 14.35 219.43 C 49.55 183.54 84.73 147.62 119.94 111.74 C 108.12 82.86 112.96 46.14 136.30 24.32 C 145.43 14.50 158.26 9.26 171.00 5.98 M 167.04 25.95 C 160.10 28.33 153.32 31.79 148.41 37.39 C 139.26 45.81 134.39 57.92 132.81 70.06 C 130.81 85.74 133.25 102.55 142.36 115.76 C 103.14 155.76 63.88 195.72 24.69 235.75 C 18.00 242.61 17.91 254.58 24.50 261.53 C 29.27 266.45 34.07 271.33 38.94 276.15 C 45.83 282.84 57.93 282.54 64.52 275.57 C 104.60 235.22 144.64 194.82 184.72 154.47 C 192.55 161.66 202.43 166.69 213.04 167.98 C 228.93 170.74 246.25 167.31 258.72 156.73 C 265.34 150.87 271.26 143.86 274.38 135.47 C 279.71 121.58 281.40 106.62 282.47 91.88 C 269.71 103.31 257.02 114.82 244.25 126.23 C 240.97 129.40 235.21 129.20 232.11 125.86 C 213.97 107.34 195.87 88.76 177.79 70.18 C 174.62 67.06 174.30 61.60 177.16 58.19 C 188.66 44.85 200.21 31.55 211.75 18.25 C 196.66 19.33 181.43 21.04 167.04 25.95 Z" />
</g>
</svg>
